<svg xmlns="http://www.w3.org/2000/svg" width="812" height="564" viewBox="0 0 812 564"><rect width="812" height="564" rx="24" fill="#0E151E"/><text x="24" y="43" fill="#F4F0E8" font-family="Arial,sans-serif" font-size="25" font-weight="700">Browser Workflow / Public Launchers</text><g transform="translate(22,76)"><svg xmlns="http://www.w3.org/2000/svg" width="144" height="144" viewBox="0 0 144 144"><defs><linearGradient id="bg33faf9ed87" x2=".7" y2="1"><stop stop-color="#28313D"/><stop offset="1" stop-color="#131B25"/></linearGradient><radialGradient id="light33faf9ed87"><stop stop-color="#94C3DD" stop-opacity=".18"/><stop offset="1" stop-color="#94C3DD" stop-opacity="0"/></radialGradient></defs><rect x="2" y="2" width="140" height="140" rx="19" fill="url(#bg33faf9ed87)"/><g fill="none" stroke="#94C3DD" stroke-opacity=".45" stroke-width="1.2"><rect x="3.5" y="3.5" width="137" height="137" rx="18"/></g><circle cx="72" cy="62" r="57" fill="url(#light33faf9ed87)"/><path d="M57 12h30" stroke="#94C3DD" stroke-width="3" stroke-linecap="round"/><g fill="#94C3DD" opacity=".85"></g><svg x="42.0" y="28" width="60" height="60" viewBox="0 0 24 24" fill="none" stroke="#F4F0E8" stroke-width="1.65" stroke-linecap="round" stroke-linejoin="round"><path d="m10 5-7 7 7 7M3 12h18"/></svg><text x="72" y="121" text-anchor="middle" fill="#F4F0E8" font-family="Arial,sans-serif" font-size="14" font-weight="700">BACK</text></svg></g><g transform="translate(178,76)"><svg xmlns="http://www.w3.org/2000/svg" width="144" height="144" viewBox="0 0 144 144"><defs><linearGradient id="bg76a62516b1" x2=".7" y2="1"><stop stop-color="#28313D"/><stop offset="1" stop-color="#131B25"/></linearGradient><radialGradient id="light76a62516b1"><stop stop-color="#94C3DD" stop-opacity=".18"/><stop offset="1" stop-color="#94C3DD" stop-opacity="0"/></radialGradient></defs><rect x="2" y="2" width="140" height="140" rx="19" fill="url(#bg76a62516b1)"/><g fill="none" stroke="#94C3DD" stroke-opacity=".45" stroke-width="1.2"><rect x="3.5" y="3.5" width="137" height="137" rx="18"/></g><circle cx="72" cy="62" r="57" fill="url(#light76a62516b1)"/><path d="M57 12h30" stroke="#94C3DD" stroke-width="3" stroke-linecap="round"/><g fill="#94C3DD" opacity=".85"></g><svg x="42.0" y="28" width="60" height="60" viewBox="0 0 24 24" fill="none" stroke="#F4F0E8" stroke-width="1.65" stroke-linecap="round" stroke-linejoin="round">
  <path d="M12 6V2H8" />
  <path d="M15 11v2" />
  <path d="M2 12h2" />
  <path d="M20 12h2" />
  <path d="M20 16a2 2 0 0 1-2 2H8.828a2 2 0 0 0-1.414.586l-2.202 2.202A.71.71 0 0 1 4 20.286V8a2 2 0 0 1 2-2h12a2 2 0 0 1 2 2z" />
  <path d="M9 11v2" />
</svg><text x="72" y="121" text-anchor="middle" fill="#F4F0E8" font-family="Arial,sans-serif" font-size="14" font-weight="700">CHATGPT</text></svg></g><g transform="translate(334,76)"><svg xmlns="http://www.w3.org/2000/svg" width="144" height="144" viewBox="0 0 144 144"><defs><linearGradient id="bg62362838c8" x2=".7" y2="1"><stop stop-color="#28313D"/><stop offset="1" stop-color="#131B25"/></linearGradient><radialGradient id="light62362838c8"><stop stop-color="#94C3DD" stop-opacity=".18"/><stop offset="1" stop-color="#94C3DD" stop-opacity="0"/></radialGradient></defs><rect x="2" y="2" width="140" height="140" rx="19" fill="url(#bg62362838c8)"/><g fill="none" stroke="#94C3DD" stroke-opacity=".45" stroke-width="1.2"><rect x="3.5" y="3.5" width="137" height="137" rx="18"/></g><circle cx="72" cy="62" r="57" fill="url(#light62362838c8)"/><path d="M57 12h30" stroke="#94C3DD" stroke-width="3" stroke-linecap="round"/><g fill="#94C3DD" opacity=".85"></g><svg x="42.0" y="28" width="60" height="60" viewBox="0 0 24 24" fill="none" stroke="#F4F0E8" stroke-width="1.65" stroke-linecap="round" stroke-linejoin="round">
  <rect width="18" height="18" x="3" y="3" rx="2" />
  <path d="M3 9h18" />
  <path d="M9 21V9" />
</svg><text x="72" y="121" text-anchor="middle" fill="#F4F0E8" font-family="Arial,sans-serif" font-size="14" font-weight="700">CLAUDE</text></svg></g><g transform="translate(490,76)"><svg xmlns="http://www.w3.org/2000/svg" width="144" height="144" viewBox="0 0 144 144"><defs><linearGradient id="bg62362838c8" x2=".7" y2="1"><stop stop-color="#28313D"/><stop offset="1" stop-color="#131B25"/></linearGradient><radialGradient id="light62362838c8"><stop stop-color="#94C3DD" stop-opacity=".18"/><stop offset="1" stop-color="#94C3DD" stop-opacity="0"/></radialGradient></defs><rect x="2" y="2" width="140" height="140" rx="19" fill="url(#bg62362838c8)"/><g fill="none" stroke="#94C3DD" stroke-opacity=".45" stroke-width="1.2"><rect x="3.5" y="3.5" width="137" height="137" rx="18"/></g><circle cx="72" cy="62" r="57" fill="url(#light62362838c8)"/><path d="M57 12h30" stroke="#94C3DD" stroke-width="3" stroke-linecap="round"/><g fill="#94C3DD" opacity=".85"></g><svg x="42.0" y="28" width="60" height="60" viewBox="0 0 24 24" fill="none" stroke="#F4F0E8" stroke-width="1.65" stroke-linecap="round" stroke-linejoin="round">
  <rect width="18" height="18" x="3" y="3" rx="2" />
  <path d="M3 9h18" />
  <path d="M9 21V9" />
</svg><text x="72" y="121" text-anchor="middle" fill="#F4F0E8" font-family="Arial,sans-serif" font-size="14" font-weight="700">GEMINI</text></svg></g><g transform="translate(646,76)"><svg xmlns="http://www.w3.org/2000/svg" width="144" height="144" viewBox="0 0 144 144"><defs><linearGradient id="bg62362838c8" x2=".7" y2="1"><stop stop-color="#28313D"/><stop offset="1" stop-color="#131B25"/></linearGradient><radialGradient id="light62362838c8"><stop stop-color="#94C3DD" stop-opacity=".18"/><stop offset="1" stop-color="#94C3DD" stop-opacity="0"/></radialGradient></defs><rect x="2" y="2" width="140" height="140" rx="19" fill="url(#bg62362838c8)"/><g fill="none" stroke="#94C3DD" stroke-opacity=".45" stroke-width="1.2"><rect x="3.5" y="3.5" width="137" height="137" rx="18"/></g><circle cx="72" cy="62" r="57" fill="url(#light62362838c8)"/><path d="M57 12h30" stroke="#94C3DD" stroke-width="3" stroke-linecap="round"/><g fill="#94C3DD" opacity=".85"></g><svg x="42.0" y="28" width="60" height="60" viewBox="0 0 24 24" fill="none" stroke="#F4F0E8" stroke-width="1.65" stroke-linecap="round" stroke-linejoin="round">
  <rect width="18" height="18" x="3" y="3" rx="2" />
  <path d="M3 9h18" />
  <path d="M9 21V9" />
</svg><text x="72" y="121" text-anchor="middle" fill="#F4F0E8" font-family="Arial,sans-serif" font-size="14" font-weight="700">PERPLEXITY</text></svg></g><g transform="translate(22,232)"><svg xmlns="http://www.w3.org/2000/svg" width="144" height="144" viewBox="0 0 144 144"><defs><linearGradient id="bgfe0303b88b" x2=".7" y2="1"><stop stop-color="#28313D"/><stop offset="1" stop-color="#131B25"/></linearGradient><radialGradient id="lightfe0303b88b"><stop stop-color="#94C3DD" stop-opacity=".18"/><stop offset="1" stop-color="#94C3DD" stop-opacity="0"/></radialGradient></defs><rect x="2" y="2" width="140" height="140" rx="19" fill="url(#bgfe0303b88b)"/><g fill="none" stroke="#94C3DD" stroke-opacity=".45" stroke-width="1.2"><rect x="3.5" y="3.5" width="137" height="137" rx="18"/></g><circle cx="72" cy="62" r="57" fill="url(#lightfe0303b88b)"/><path d="M57 12h30" stroke="#94C3DD" stroke-width="3" stroke-linecap="round"/><g fill="#94C3DD" opacity=".85"></g><svg x="42.0" y="28" width="60" height="60" viewBox="0 0 24 24" fill="none" stroke="#F4F0E8" stroke-width="1.65" stroke-linecap="round" stroke-linejoin="round">
  <path d="M13.4 2H6a2 2 0 0 0-2 2v16a2 2 0 0 0 2 2h12a2 2 0 0 0 2-2v-7.4" />
  <path d="M2 6h4" />
  <path d="M2 10h4" />
  <path d="M2 14h4" />
  <path d="M2 18h4" />
  <path d="M21.378 5.626a1 1 0 1 0-3.004-3.004l-5.01 5.012a2 2 0 0 0-.506.854l-.837 2.87a.5.5 0 0 0 .62.62l2.87-.837a2 2 0 0 0 .854-.506z" />
</svg><text x="72" y="121" text-anchor="middle" fill="#F4F0E8" font-family="Arial,sans-serif" font-size="14" font-weight="700">NOTEBOOK LM</text></svg></g><g transform="translate(178,232)"><svg xmlns="http://www.w3.org/2000/svg" width="144" height="144" viewBox="0 0 144 144"><defs><linearGradient id="bg3ca30942c8" x2=".7" y2="1"><stop stop-color="#28313D"/><stop offset="1" stop-color="#131B25"/></linearGradient><radialGradient id="light3ca30942c8"><stop stop-color="#94C3DD" stop-opacity=".18"/><stop offset="1" stop-color="#94C3DD" stop-opacity="0"/></radialGradient></defs><rect x="2" y="2" width="140" height="140" rx="19" fill="url(#bg3ca30942c8)"/><g fill="none" stroke="#94C3DD" stroke-opacity=".45" stroke-width="1.2"><rect x="3.5" y="3.5" width="137" height="137" rx="18"/></g><circle cx="72" cy="62" r="57" fill="url(#light3ca30942c8)"/><path d="M57 12h30" stroke="#94C3DD" stroke-width="3" stroke-linecap="round"/><g fill="#94C3DD" opacity=".85"></g><svg x="42.0" y="28" width="60" height="60" viewBox="0 0 24 24" fill="none" stroke="#F4F0E8" stroke-width="1.65" stroke-linecap="round" stroke-linejoin="round">
  <circle cx="5" cy="6" r="3" />
  <path d="M12 6h5a2 2 0 0 1 2 2v7" />
  <path d="m15 9-3-3 3-3" />
  <circle cx="19" cy="18" r="3" />
  <path d="M12 18H7a2 2 0 0 1-2-2V9" />
  <path d="m9 15 3 3-3 3" />
</svg><text x="72" y="121" text-anchor="middle" fill="#F4F0E8" font-family="Arial,sans-serif" font-size="14" font-weight="700">GITHUB</text></svg></g><g transform="translate(334,232)"><svg xmlns="http://www.w3.org/2000/svg" width="144" height="144" viewBox="0 0 144 144"><defs><linearGradient id="bg62362838c8" x2=".7" y2="1"><stop stop-color="#28313D"/><stop offset="1" stop-color="#131B25"/></linearGradient><radialGradient id="light62362838c8"><stop stop-color="#94C3DD" stop-opacity=".18"/><stop offset="1" stop-color="#94C3DD" stop-opacity="0"/></radialGradient></defs><rect x="2" y="2" width="140" height="140" rx="19" fill="url(#bg62362838c8)"/><g fill="none" stroke="#94C3DD" stroke-opacity=".45" stroke-width="1.2"><rect x="3.5" y="3.5" width="137" height="137" rx="18"/></g><circle cx="72" cy="62" r="57" fill="url(#light62362838c8)"/><path d="M57 12h30" stroke="#94C3DD" stroke-width="3" stroke-linecap="round"/><g fill="#94C3DD" opacity=".85"></g><svg x="42.0" y="28" width="60" height="60" viewBox="0 0 24 24" fill="none" stroke="#F4F0E8" stroke-width="1.65" stroke-linecap="round" stroke-linejoin="round">
  <rect width="18" height="18" x="3" y="3" rx="2" />
  <path d="M3 9h18" />
  <path d="M9 21V9" />
</svg><text x="72" y="121" text-anchor="middle" fill="#F4F0E8" font-family="Arial,sans-serif" font-size="14" font-weight="700">VERCEL</text></svg></g><g transform="translate(490,232)"><svg xmlns="http://www.w3.org/2000/svg" width="144" height="144" viewBox="0 0 144 144"><defs><linearGradient id="bg62362838c8" x2=".7" y2="1"><stop stop-color="#28313D"/><stop offset="1" stop-color="#131B25"/></linearGradient><radialGradient id="light62362838c8"><stop stop-color="#94C3DD" stop-opacity=".18"/><stop offset="1" stop-color="#94C3DD" stop-opacity="0"/></radialGradient></defs><rect x="2" y="2" width="140" height="140" rx="19" fill="url(#bg62362838c8)"/><g fill="none" stroke="#94C3DD" stroke-opacity=".45" stroke-width="1.2"><rect x="3.5" y="3.5" width="137" height="137" rx="18"/></g><circle cx="72" cy="62" r="57" fill="url(#light62362838c8)"/><path d="M57 12h30" stroke="#94C3DD" stroke-width="3" stroke-linecap="round"/><g fill="#94C3DD" opacity=".85"></g><svg x="42.0" y="28" width="60" height="60" viewBox="0 0 24 24" fill="none" stroke="#F4F0E8" stroke-width="1.65" stroke-linecap="round" stroke-linejoin="round">
  <rect width="18" height="18" x="3" y="3" rx="2" />
  <path d="M3 9h18" />
  <path d="M9 21V9" />
</svg><text x="72" y="121" text-anchor="middle" fill="#F4F0E8" font-family="Arial,sans-serif" font-size="14" font-weight="700">NETLIFY</text></svg></g><g transform="translate(646,232)"><svg xmlns="http://www.w3.org/2000/svg" width="144" height="144" viewBox="0 0 144 144"><defs><linearGradient id="bg09f53a4ca7" x2=".7" y2="1"><stop stop-color="#28313D"/><stop offset="1" stop-color="#131B25"/></linearGradient><radialGradient id="light09f53a4ca7"><stop stop-color="#94C3DD" stop-opacity=".18"/><stop offset="1" stop-color="#94C3DD" stop-opacity="0"/></radialGradient></defs><rect x="2" y="2" width="140" height="140" rx="19" fill="url(#bg09f53a4ca7)"/><g fill="none" stroke="#94C3DD" stroke-opacity=".45" stroke-width="1.2"><rect x="3.5" y="3.5" width="137" height="137" rx="18"/></g><circle cx="72" cy="62" r="57" fill="url(#light09f53a4ca7)"/><path d="M57 12h30" stroke="#94C3DD" stroke-width="3" stroke-linecap="round"/><g fill="#94C3DD" opacity=".85"></g><svg x="42.0" y="28" width="60" height="60" viewBox="0 0 24 24" fill="none" stroke="#F4F0E8" stroke-width="1.65" stroke-linecap="round" stroke-linejoin="round">
  <path d="M12 16v5" />
  <path d="M16 14.639V21" />
  <path d="M20 10.656V21" />
  <path d="m22 3-8.646 8.646a.5.5 0 0 1-.708 0L9.354 8.354a.5.5 0 0 0-.707 0L2 15" />
  <path d="M4 18.463V21" />
  <path d="M8 14.656V21" />
</svg><text x="72" y="121" text-anchor="middle" fill="#F4F0E8" font-family="Arial,sans-serif" font-size="14" font-weight="700">ANALYTICS</text></svg></g><g transform="translate(22,388)"><svg xmlns="http://www.w3.org/2000/svg" width="144" height="144" viewBox="0 0 144 144"><defs><linearGradient id="bgf0d29e3e7a" x2=".7" y2="1"><stop stop-color="#28313D"/><stop offset="1" stop-color="#131B25"/></linearGradient><radialGradient id="lightf0d29e3e7a"><stop stop-color="#94C3DD" stop-opacity=".18"/><stop offset="1" stop-color="#94C3DD" stop-opacity="0"/></radialGradient></defs><rect x="2" y="2" width="140" height="140" rx="19" fill="url(#bgf0d29e3e7a)"/><g fill="none" stroke="#94C3DD" stroke-opacity=".45" stroke-width="1.2"><rect x="3.5" y="3.5" width="137" height="137" rx="18"/></g><circle cx="72" cy="62" r="57" fill="url(#lightf0d29e3e7a)"/><path d="M57 12h30" stroke="#94C3DD" stroke-width="3" stroke-linecap="round"/><g fill="#94C3DD" opacity=".85"></g><svg x="42.0" y="28" width="60" height="60" viewBox="0 0 24 24" fill="none" stroke="#F4F0E8" stroke-width="1.65" stroke-linecap="round" stroke-linejoin="round">
  <path d="M3 7V5a2 2 0 0 1 2-2h2" />
  <path d="M17 3h2a2 2 0 0 1 2 2v2" />
  <path d="M21 17v2a2 2 0 0 1-2 2h-2" />
  <path d="M7 21H5a2 2 0 0 1-2-2v-2" />
  <circle cx="12" cy="12" r="3" />
  <path d="m16 16-1.9-1.9" />
</svg><text x="72" y="121" text-anchor="middle" fill="#F4F0E8" font-family="Arial,sans-serif" font-size="14" font-weight="700">SEARCH</text></svg></g><g transform="translate(178,388)"><svg xmlns="http://www.w3.org/2000/svg" width="144" height="144" viewBox="0 0 144 144"><defs><linearGradient id="bg62362838c8" x2=".7" y2="1"><stop stop-color="#28313D"/><stop offset="1" stop-color="#131B25"/></linearGradient><radialGradient id="light62362838c8"><stop stop-color="#94C3DD" stop-opacity=".18"/><stop offset="1" stop-color="#94C3DD" stop-opacity="0"/></radialGradient></defs><rect x="2" y="2" width="140" height="140" rx="19" fill="url(#bg62362838c8)"/><g fill="none" stroke="#94C3DD" stroke-opacity=".45" stroke-width="1.2"><rect x="3.5" y="3.5" width="137" height="137" rx="18"/></g><circle cx="72" cy="62" r="57" fill="url(#light62362838c8)"/><path d="M57 12h30" stroke="#94C3DD" stroke-width="3" stroke-linecap="round"/><g fill="#94C3DD" opacity=".85"></g><svg x="42.0" y="28" width="60" height="60" viewBox="0 0 24 24" fill="none" stroke="#F4F0E8" stroke-width="1.65" stroke-linecap="round" stroke-linejoin="round">
  <rect width="18" height="18" x="3" y="3" rx="2" />
  <path d="M3 9h18" />
  <path d="M9 21V9" />
</svg><text x="72" y="121" text-anchor="middle" fill="#F4F0E8" font-family="Arial,sans-serif" font-size="14" font-weight="700">GOOGLE ADS</text></svg></g><g transform="translate(334,388)"><svg xmlns="http://www.w3.org/2000/svg" width="144" height="144" viewBox="0 0 144 144"><defs><linearGradient id="bg62362838c8" x2=".7" y2="1"><stop stop-color="#28313D"/><stop offset="1" stop-color="#131B25"/></linearGradient><radialGradient id="light62362838c8"><stop stop-color="#94C3DD" stop-opacity=".18"/><stop offset="1" stop-color="#94C3DD" stop-opacity="0"/></radialGradient></defs><rect x="2" y="2" width="140" height="140" rx="19" fill="url(#bg62362838c8)"/><g fill="none" stroke="#94C3DD" stroke-opacity=".45" stroke-width="1.2"><rect x="3.5" y="3.5" width="137" height="137" rx="18"/></g><circle cx="72" cy="62" r="57" fill="url(#light62362838c8)"/><path d="M57 12h30" stroke="#94C3DD" stroke-width="3" stroke-linecap="round"/><g fill="#94C3DD" opacity=".85"></g><svg x="42.0" y="28" width="60" height="60" viewBox="0 0 24 24" fill="none" stroke="#F4F0E8" stroke-width="1.65" stroke-linecap="round" stroke-linejoin="round">
  <rect width="18" height="18" x="3" y="3" rx="2" />
  <path d="M3 9h18" />
  <path d="M9 21V9" />
</svg><text x="72" y="121" text-anchor="middle" fill="#F4F0E8" font-family="Arial,sans-serif" font-size="14" font-weight="700">LOOKER</text></svg></g><g transform="translate(490,388)"><svg xmlns="http://www.w3.org/2000/svg" width="144" height="144" viewBox="0 0 144 144"><defs><linearGradient id="bg0e5487727a" x2=".7" y2="1"><stop stop-color="#28313D"/><stop offset="1" stop-color="#131B25"/></linearGradient><radialGradient id="light0e5487727a"><stop stop-color="#94C3DD" stop-opacity=".18"/><stop offset="1" stop-color="#94C3DD" stop-opacity="0"/></radialGradient></defs><rect x="2" y="2" width="140" height="140" rx="19" fill="url(#bg0e5487727a)"/><g fill="none" stroke="#94C3DD" stroke-opacity=".45" stroke-width="1.2"><rect x="3.5" y="3.5" width="137" height="137" rx="18"/></g><circle cx="72" cy="62" r="57" fill="url(#light0e5487727a)"/><path d="M57 12h30" stroke="#94C3DD" stroke-width="3" stroke-linecap="round"/><g fill="#94C3DD" opacity=".85"></g><svg x="42.0" y="28" width="60" height="60" viewBox="0 0 24 24" fill="none" stroke="#F4F0E8" stroke-width="1.65" stroke-linecap="round" stroke-linejoin="round">
  <path d="m22 7-8.991 5.727a2 2 0 0 1-2.009 0L2 7" />
  <rect x="2" y="4" width="20" height="16" rx="2" />
</svg><text x="72" y="121" text-anchor="middle" fill="#F4F0E8" font-family="Arial,sans-serif" font-size="14" font-weight="700">MAIL</text></svg></g><g transform="translate(646,388)"><svg xmlns="http://www.w3.org/2000/svg" width="144" height="144" viewBox="0 0 144 144"><defs><linearGradient id="bgbd0ae4659b" x2=".7" y2="1"><stop stop-color="#28313D"/><stop offset="1" stop-color="#131B25"/></linearGradient><radialGradient id="lightbd0ae4659b"><stop stop-color="#94C3DD" stop-opacity=".18"/><stop offset="1" stop-color="#94C3DD" stop-opacity="0"/></radialGradient></defs><rect x="2" y="2" width="140" height="140" rx="19" fill="url(#bgbd0ae4659b)"/><g fill="none" stroke="#94C3DD" stroke-opacity=".45" stroke-width="1.2"><rect x="3.5" y="3.5" width="137" height="137" rx="18"/></g><circle cx="72" cy="62" r="57" fill="url(#lightbd0ae4659b)"/><path d="M57 12h30" stroke="#94C3DD" stroke-width="3" stroke-linecap="round"/><g fill="#94C3DD" opacity=".85"></g><svg x="42.0" y="28" width="60" height="60" viewBox="0 0 24 24" fill="none" stroke="#F4F0E8" stroke-width="1.65" stroke-linecap="round" stroke-linejoin="round">
  <path d="m6 14 1.5-2.9A2 2 0 0 1 9.24 10H20a2 2 0 0 1 1.94 2.5l-1.54 6a2 2 0 0 1-1.95 1.5H4a2 2 0 0 1-2-2V5a2 2 0 0 1 2-2h3.9a2 2 0 0 1 1.69.9l.81 1.2a2 2 0 0 0 1.67.9H18a2 2 0 0 1 2 2v2" />
</svg><text x="72" y="121" text-anchor="middle" fill="#F4F0E8" font-family="Arial,sans-serif" font-size="14" font-weight="700">DRIVE</text></svg></g><text x="24" y="552" fill="#A4B1C2" font-family="Arial,sans-serif" font-size="11">Layout guide. Text buttons paste; links open in your default browser; shortcuts act on the focused app.</text></svg>