<svg xmlns="http://www.w3.org/2000/svg" width="812" height="564" viewBox="0 0 812 564"><rect width="812" height="564" rx="24" fill="#F7F9FD"/><text x="24" y="43" fill="#172033" font-family="Arial,sans-serif" font-size="25" font-weight="700">Code Workflow / Home</text><g transform="translate(22,76)"><svg xmlns="http://www.w3.org/2000/svg" width="144" height="144" viewBox="0 0 144 144"><rect x="2" y="2" width="140" height="140" rx="19" fill="#111827"/><path d="M21 2h102a19 19 0 0 1 19 19v77H2V21A19 19 0 0 1 21 2Z" fill="#F5F8FF"/><path d="M3 98h138" stroke="#49A8FF" stroke-width="3"/><rect x="2.75" y="2.75" width="138.5" height="138.5" rx="18.25" fill="none" stroke="#DDE5F1" stroke-width="1.5"/><g transform="translate(31 10) scale(2.5625)">
<path d="M2.52 6.84L8.97 5L9.5 16.5L8.97 27.99L2.85 29.98C2.42 30.09 2 29.76 2 29.32V7.5C2 7.19 2.22 6.92 2.52 6.84ZM15.98 7L22.97 5L23.5 16.5L22.99 28L15.98 30L15 18.5L15.98 7Z" fill="white"/>
<path d="M15.98 7L8.96997 5V27.99L15.98 30V7ZM29.4 6.84L22.97 5V28L29.06 29.98C29.49 30.09 29.91 29.76 29.91 29.32V7.5C29.91 7.19 29.7 6.92 29.4 6.84Z" fill="#E6E6E6"/>
<path d="M3.94994 8.34L8.96994 7L10 16.5L8.96994 26L4.30994 27.42C3.86994 27.54 3.43994 27.21 3.43994 26.76V9C3.43994 8.69 3.64994 8.42 3.94994 8.34ZM15.9399 9.00002L22.9699 7.02002L24 16.5L22.9699 25.99L15.9399 27.99L15 18.5L15.9399 9.00002Z" fill="#00A6ED"/>
<path d="M15.94 9.00002L8.96997 7.02002V25.99L15.94 27.99V9.00002ZM27.94 8.34001L22.97 7.02002V26.02L27.58 27.44C28.02 27.56 28.45 27.23 28.45 26.78V9.00002C28.45 8.69002 28.24 8.42001 27.94 8.34001Z" fill="#0074BA"/>
<path d="M14.32 17.64L14.85 17.11C14.9218 17.0471 15.0098 17.0085 15.0922 16.9722L15.12 16.96H15.55C15.77 16.96 15.95 16.78 15.95 16.56V16.37C15.95 16.15 15.77 15.97 15.55 15.97H15.36C15.14 15.97 14.96 15.79 14.96 15.57V14.38C14.96 14.16 15.14 13.98 15.36 13.98H15.55C15.77 13.98 15.95 13.8 15.95 13.58V13.39C15.95 13.17 16.13 12.99 16.35 12.99H17.79C17.89 12.99 17.99 12.96 18.06 12.89L19.81 11.32C19.89 11.24 19.94 11.13 19.94 11.02V10.99C19.94 10.44 20.39 9.98999 20.94 9.98999H21.34C21.67 9.98999 21.94 10.26 21.94 10.59C21.94 10.81 22.12 10.99 22.34 10.99H23.53C23.75 10.99 23.93 10.81 23.93 10.59V10.4C23.93 10.18 24.11 9.99998 24.33 9.99998H24.37C25.22 9.99998 25.92 10.69 25.92 11.55V13.49C25.92 13.77 25.7 13.99 25.42 13.99C25.14 13.99 24.92 13.77 24.92 13.49V13.39C24.92 13.17 24.74 12.99 24.52 12.99H24.33C24.11 12.99 23.93 13.17 23.93 13.39V14.58C23.93 14.8 24.11 14.98 24.33 14.98C24.61 14.98 24.81 15.27 24.7 15.53L23.82 17.72C23.76 17.87 23.61 17.97 23.45 17.97H22.33C22.11 17.97 21.93 17.79 21.93 17.57V17.38C21.93 17.16 21.75 16.98 21.53 16.98H21.34C21.12 16.98 20.94 17.16 20.94 17.38V17.57C20.94 17.79 20.76 17.97 20.54 17.97H20.35C20.13 17.97 19.95 17.79 19.95 17.57V17.38C19.95 17.16 19.77 16.98 19.55 16.98H19.36C19.14 16.98 18.96 17.16 18.96 17.38V17.88C18.96 17.94 18.95 18 18.92 18.06L18.01 19.89C17.98 19.95 17.97 20.01 17.97 20.07V21.31C17.97 21.74 17.8 22.15 17.5 22.45L17.09 22.86C17.01 22.94 16.91 22.98 16.8 22.98H16.37C16.15 22.98 15.97 22.8 15.97 22.58V20.39C15.97 20.17 15.79 19.99 15.57 19.99H15.14C15.03 19.99 14.93 19.95 14.85 19.87L14.32 19.34C14.1 19.12 13.97 18.81 13.97 18.49C13.97 18.17 14.09 17.87 14.32 17.64ZM10.97 23.49C10.97 23.77 10.75 23.99 10.47 23.99C10.2 23.99 9.96999 23.77 9.98999 23.52V22.15C9.98999 22.07 9.95999 21.99 9.89999 21.93L9.51999 21.55C9.17999 21.21 8.98999 20.74 8.98999 20.26V19.14C8.98999 19.06 8.95999 18.98 8.89999 18.92L7.64999 17.67C7.51599 17.536 7.29852 17.3867 7.06448 17.2261C6.56497 16.8832 5.98999 16.4886 5.98999 16.08V13.72C5.98999 13.5279 6.15496 13.3528 6.27578 13.2245C6.40027 13.0924 6.4779 13.01 6.27999 13.01C6.08999 13.01 5.90999 13.09 5.77999 13.22L4.51999 14.48C4.31999 14.67 3.98999 14.54 3.98999 14.26V14.13C3.98999 14.05 4.01999 13.97 4.07999 13.91L4.31999 13.67C4.73999 13.25 4.97999 12.67 4.97999 12.07V11.7C4.97999 11.32 5.28999 11.01 5.66999 11.01H6.28999C6.66999 11.01 6.97999 11.32 6.97999 11.7C6.97999 11.87 7.11999 12.01 7.28999 12.01H7.38999C7.84999 12.01 8.28999 11.82 8.59999 11.48L9.21999 10.81C9.69999 10.3 10.37 10.01 11.07 10.01H12.67C13.39 10.01 13.97 10.59 13.97 11.31C13.97 11.76 13.79 12.19 13.47 12.51L13.06 12.92C13 12.98 12.97 13.06 12.97 13.14V13.51C12.97 13.79 12.75 14.01 12.47 14.01C12.19 14.01 11.97 13.79 11.97 13.51V11.51C11.97 11.23 11.75 11.01 11.47 11.01C11.19 11.01 10.97 11.23 10.97 11.51V11.7C10.97 11.87 10.83 12.01 10.66 12.01H9.87999C9.69999 12.01 9.55999 12.15 9.56999 12.33L9.58999 12.68C9.59999 12.85 9.45999 13 9.27999 13C9.10999 13 8.96999 13.14 8.96999 13.31V13.5C8.96999 13.78 9.18999 14 9.46999 14C9.74999 14 9.96999 13.78 9.96999 13.5C9.96999 13.22 10.19 13 10.47 13C10.75 13 10.97 13.22 10.97 13.5V13.87C10.97 13.95 11 14.03 11.06 14.09L11.75 14.78C11.87 14.9 11.87 15.1 11.75 15.22L11.46 15.51C11.15 15.82 10.72 16 10.28 16C10.11 16 9.96999 16.14 9.96999 16.31V16.5C9.96999 16.78 9.74999 17 9.46999 17C9.18999 17 8.96999 16.78 8.96999 16.5V16.31C8.96999 16.14 8.82999 16 8.65999 16H8.27999C8.10999 16 7.96999 16.14 7.96999 16.31V16.87C7.96999 16.95 7.99999 17.03 8.05999 17.09L9.87999 18.91C9.93999 18.97 10.02 19 10.1 19H10.54C10.82 19 11.1 19.06 11.35 19.19L12.52 19.77C12.8 19.9 12.97 20.18 12.97 20.49C12.97 20.79 12.79 21.07 12.52 21.21L11.91 21.52C11.33 21.81 10.97 22.39 10.97 23.04V23.49ZM21.97 19.51C21.97 19.82 22.08 20.12 22.27 20.36L22.48 20.61C22.78 20.98 23.27 21.15 23.73 21.04C23.87 21.01 23.97 20.88 23.97 20.74V20.37C23.97 20.21 24.09 20.08 24.24 20.06L24.39 20.04C24.7 20.01 24.97 20.25 24.97 20.56C24.97 20.8 25.14 21.02 25.38 21.07L25.6 21.12C25.79 21.16 25.97 21.02 25.97 20.82V19.98C25.97 19.43 25.52 18.98 24.97 18.98H24.11C24.02 18.98 23.94 19.02 23.88 19.08L23.51 19.49C23.32 19.7 22.97 19.57 22.97 19.28C22.97 19.11 22.83 18.97 22.66 18.97H22.28C22.11 18.99 21.97 19.13 21.97 19.3V19.51ZM23.47 24C23.19 24 22.97 23.78 22.97 23.5V22.83C22.97 22.37 23.34 21.99 23.8 21.99H25.41C25.72 21.99 25.97 22.24 25.97 22.55V23.5C25.97 23.78 25.75 24 25.47 24H23.47Z" fill="#00D26A"/>
</g><circle cx="124" cy="18" r="10.5" fill="#111827"/><path d="m122 14 4 4-4 4" fill="none" stroke="#FFFFFF" stroke-width="2.5" stroke-linecap="round" stroke-linejoin="round"/><text x="72" y="134" text-anchor="middle" fill="#FFFFFF" font-family="Arial,sans-serif" font-size="20" font-weight="700">CONTEXT</text></svg></g><g transform="translate(178,76)"><svg xmlns="http://www.w3.org/2000/svg" width="144" height="144" viewBox="0 0 144 144"><rect x="2" y="2" width="140" height="140" rx="19" fill="#111827"/><path d="M21 2h102a19 19 0 0 1 19 19v77H2V21A19 19 0 0 1 21 2Z" fill="#F5F8FF"/><path d="M3 98h138" stroke="#55D99B" stroke-width="3"/><rect x="2.75" y="2.75" width="138.5" height="138.5" rx="18.25" fill="none" stroke="#DDE5F1" stroke-width="1.5"/><g transform="translate(31 10) scale(2.5625)">
<path d="M2 6C2 3.79086 3.79086 2 6 2H26C28.2091 2 30 3.79086 30 6V26C30 28.2091 28.2091 30 26 30H6C3.79086 30 2 28.2091 2 26V6Z" fill="#00D26A"/>
<path d="M13.242 23C12.8588 23 12.4757 22.8566 12.183 22.5692L6.43855 16.9278C5.85382 16.3535 5.85382 15.422 6.43855 14.8477C7.02329 14.2735 7.97186 14.2735 8.55659 14.8477L13.242 19.4491L23.4434 9.43069C24.0281 8.85644 24.9767 8.85644 25.5614 9.43069C26.1462 10.0049 26.1462 10.9365 25.5614 11.5107L14.301 22.5692C14.009 22.8566 13.6252 23 13.242 23Z" fill="#F4F4F4"/>
</g><circle cx="124" cy="18" r="10.5" fill="#111827"/><path d="m122 14 4 4-4 4" fill="none" stroke="#FFFFFF" stroke-width="2.5" stroke-linecap="round" stroke-linejoin="round"/><text x="72" y="134" text-anchor="middle" fill="#FFFFFF" font-family="Arial,sans-serif" font-size="20" font-weight="700">PLAN</text></svg></g><g transform="translate(334,76)"><svg xmlns="http://www.w3.org/2000/svg" width="144" height="144" viewBox="0 0 144 144"><rect x="2" y="2" width="140" height="140" rx="19" fill="#111827"/><path d="M21 2h102a19 19 0 0 1 19 19v77H2V21A19 19 0 0 1 21 2Z" fill="#F5F8FF"/><path d="M3 98h138" stroke="#FF9B45" stroke-width="3"/><rect x="2.75" y="2.75" width="138.5" height="138.5" rx="18.25" fill="none" stroke="#DDE5F1" stroke-width="1.5"/><g transform="translate(31 10) scale(2.5625)">
<path d="M13.1215 8.87866L28.1215 23.8787C29.2931 25.0502 29.2931 26.9497 28.1215 28.1213C26.95 29.2929 25.0505 29.2929 23.8789 28.1213L8.87891 13.1213L13.1215 8.87866Z" fill="#7D4533"/>
<path d="M11.4272 2.22958L4.35348 9.30331C4.15822 9.49857 4.15822 9.81515 4.35348 10.0104L5.99988 13L8.94967 14.6066C9.14493 14.8019 9.46152 14.8019 9.65678 14.6066L14.6065 9.65686C14.8018 9.4616 14.8018 9.14502 14.6065 8.94975L12.6568 7C12.1796 6.51953 12.6065 6 12.6065 6L15.3307 3.27588C15.6279 2.97861 15.4479 2.46948 15.0299 2.42512L11.8335 2.08592C11.6833 2.06999 11.534 2.12279 11.4272 2.22958Z" fill="#B4ACBC"/>
<path d="M26.32 9.12471L28.87 6.57471C29.19 6.24471 29.75 6.40471 29.86 6.85471C30.26 8.51471 29.82 10.3347 28.52 11.6347C27.1368 13.0178 25.1499 13.4348 23.4052 12.8789L13.6688 22.6835C14.195 24.4392 13.7508 26.4259 12.3499 27.7848C11.0499 29.0348 9.25993 29.4648 7.62993 29.0648C7.17993 28.9548 7.02993 28.3947 7.34993 28.0747L9.89993 25.5248C10.1299 25.2948 10.1299 24.9248 9.89993 24.6948L8.28993 23.0848C8.05993 22.8548 7.68993 22.8548 7.45993 23.0848L4.90993 25.6347C4.58993 25.9647 4.02993 25.8047 3.91993 25.3547C3.51993 23.6947 3.95993 21.8747 5.25993 20.5747C6.65638 19.1783 8.66835 18.7667 10.4251 19.3469L20.1268 9.57726C19.5764 7.8091 20.0155 5.79678 21.43 4.42472C22.73 3.17472 24.52 2.74472 26.15 3.14472C26.6 3.25472 26.75 3.81471 26.43 4.13471L23.88 6.68471C23.65 6.91471 23.65 7.28471 23.88 7.51471L25.49 9.12471C25.72 9.35471 26.09 9.35471 26.32 9.12471Z" fill="#B4ACBC"/>
<path d="M1.17674 11.2981C1.07911 11.2005 1.07911 11.0422 1.17674 10.9446L1.82021 10.3011C2.60126 9.52007 3.86758 9.52007 4.64863 10.3011L8.53772 14.1902C9.31877 14.9713 9.31877 16.2376 8.53772 17.0186L7.89425 17.6621C7.79662 17.7597 7.63833 17.7597 7.5407 17.6621L1.17674 11.2981Z" fill="#CDC4D6"/>
</g><circle cx="124" cy="18" r="10.5" fill="#111827"/><path d="m122 14 4 4-4 4" fill="none" stroke="#FFFFFF" stroke-width="2.5" stroke-linecap="round" stroke-linejoin="round"/><text x="72" y="134" text-anchor="middle" fill="#FFFFFF" font-family="Arial,sans-serif" font-size="20" font-weight="700">BUILD</text></svg></g><g transform="translate(490,76)"><svg xmlns="http://www.w3.org/2000/svg" width="144" height="144" viewBox="0 0 144 144"><rect x="2" y="2" width="140" height="140" rx="19" fill="#111827"/><path d="M21 2h102a19 19 0 0 1 19 19v77H2V21A19 19 0 0 1 21 2Z" fill="#F5F8FF"/><path d="M3 98h138" stroke="#FF6576" stroke-width="3"/><rect x="2.75" y="2.75" width="138.5" height="138.5" rx="18.25" fill="none" stroke="#DDE5F1" stroke-width="1.5"/><g transform="translate(31 10) scale(2.5625)">
<path d="M13.5704 1.74986C13.4322 1.51079 13.1264 1.42901 12.8873 1.5672C12.6482 1.70539 12.5664 2.01123 12.7046 2.25031L14.1336 4.7224C11.3473 5.49473 9.2609 7.95628 9.05434 10.9418L7.8275 9.70992C7.6175 9.49992 7.4975 9.21992 7.4975 8.91992V6.91992C7.4975 6.49992 7.1575 6.16992 6.7475 6.16992C6.3375 6.16992 5.9975 6.49992 5.9975 6.91992V8.91992C5.9975 9.61992 6.2675 10.2799 6.7675 10.7799L9.2175 13.2299C9.24008 13.251 9.26356 13.2707 9.28781 13.289C10.014 15.9226 12.2457 17.9281 14.9975 18.3201V29.4201C15.3275 29.4501 15.6575 29.4701 15.9975 29.4701C16.3375 29.4701 16.6675 29.4501 16.9975 29.4201V18.3201C19.7434 17.9289 21.9714 15.9312 22.7025 13.3059C22.7284 13.2859 22.7535 13.264 22.7775 13.2399L25.2275 10.7899C25.7275 10.2899 25.9975 9.62993 25.9975 8.92993V6.92993C25.9975 6.51993 25.6575 6.17993 25.2475 6.17993C24.8375 6.17993 24.4975 6.51993 24.4975 6.92993V8.92993C24.4975 9.23993 24.3775 9.51993 24.1675 9.72993L22.9416 10.9558C22.7367 7.90537 20.5695 5.39942 17.6966 4.67889L19.1004 2.25031C19.2386 2.01123 19.1568 1.70539 18.9177 1.5672C18.6787 1.42901 18.3728 1.51079 18.2346 1.74986L16.6451 4.49978C16.4318 4.48011 16.2158 4.47005 15.9975 4.47005C15.7178 4.47005 15.442 4.48655 15.1708 4.51863L13.5704 1.74986Z" fill="#212121"/>
<path d="M28.7175 16.16C28.8675 16.31 29.0575 16.38 29.2475 16.38C29.4375 16.38 29.6275 16.3 29.7775 16.16C30.0675 15.87 30.0675 15.39 29.7775 15.1L29.1075 14.43C28.4875 13.81 27.6675 13.47 26.7875 13.47H25.0375C24.6275 13.47 24.2875 13.81 24.2875 14.22C24.2875 14.63 24.6275 14.97 25.0375 14.97H26.7875C27.2575 14.97 27.7075 15.15 28.0475 15.49L28.7175 16.16Z" fill="#212121"/>
<path d="M27.2475 29.4401C26.8375 29.4401 26.4975 29.1001 26.4975 28.6901V26.6001C26.4975 25.9801 26.2575 25.4001 25.8175 24.9601L23.2575 22.4001C22.9675 22.1101 22.9675 21.6301 23.2575 21.3401C23.5475 21.0501 24.0275 21.0501 24.3175 21.3401L26.8775 23.9001C27.5975 24.6201 27.9975 25.5801 27.9975 26.6001V28.6901C27.9975 29.1001 27.6575 29.4401 27.2475 29.4401Z" fill="#212121"/>
<path d="M5.4975 28.67C5.4975 29.08 5.1575 29.42 4.7475 29.42C4.3375 29.42 3.9975 29.08 3.9975 28.67V26.58C3.9975 25.56 4.3975 24.6 5.1175 23.88L7.6775 21.32C7.9675 21.03 8.4475 21.03 8.7375 21.32C9.0275 21.61 9.0275 22.09 8.7375 22.38L6.1775 24.94C5.7375 25.38 5.4975 25.96 5.4975 26.58V28.67Z" fill="#212121"/>
<path d="M3.2775 16.14C3.1275 16.29 2.9375 16.36 2.7475 16.36C2.5575 16.36 2.3675 16.28 2.2175 16.14C1.9275 15.85 1.9275 15.37 2.2175 15.08L2.8875 14.41C3.5075 13.79 4.3275 13.45 5.2075 13.45H6.9575C7.3675 13.45 7.7075 13.79 7.7075 14.2C7.7075 14.61 7.3675 14.95 6.9575 14.95H5.2075C4.7375 14.95 4.2875 15.13 3.9475 15.47L3.2775 16.14Z" fill="#212121"/>
<path d="M15.5 9.45996H9.31751C9.31751 9.46496 9.31501 9.46746 9.31251 9.46996C9.31001 9.47246 9.30751 9.47496 9.30751 9.47996C8.30728 10.2348 7.43977 11.1541 6.74458 12.1974L8 15L5.00752 16.7106C4.92845 17.2457 4.88751 17.7931 4.88751 18.35C4.88751 24.15 9.32751 28.91 14.9975 29.42C15.1646 29.4351 15.3316 29.4478 15.5 29.4565V9.45996Z" fill="#F8312F"/>
<path d="M16.5 29.4563C16.6667 29.4475 16.8321 29.435 16.9975 29.42C22.6675 28.91 27.1075 24.15 27.1075 18.35C27.1075 17.802 27.0679 17.2634 26.9913 16.7368L24 15L25.2531 12.2009C24.5564 11.1543 23.6874 10.2336 22.6875 9.47996V9.45996H16.5V29.4563Z" fill="#F8312F"/>
<path d="M19.8975 14.92C19.8975 17.0739 18.1514 18.82 15.9975 18.82C13.8436 18.82 12.0975 17.0739 12.0975 14.92C12.0975 12.7661 13.8436 11.02 15.9975 11.02C18.1514 11.02 19.8975 12.7661 19.8975 14.92Z" fill="#212121"/>
<path d="M12.8875 22.0699C12.8875 23.528 11.7055 24.7099 10.2475 24.7099C8.78948 24.7099 7.60751 23.528 7.60751 22.0699C7.60751 20.6119 8.78948 19.4299 10.2475 19.4299C11.7055 19.4299 12.8875 20.6119 12.8875 22.0699Z" fill="#212121"/>
<path d="M6.8175 12.1899H6.7475C5.8475 13.5299 5.2375 15.0799 4.9975 16.7399C5.4675 17.1899 6.1075 17.4599 6.8175 17.4599C8.2775 17.4599 9.4575 16.2799 9.4575 14.8199C9.4575 13.3599 8.2775 12.1899 6.8175 12.1899Z" fill="#212121"/>
<path d="M25.2375 12.1899C26.1375 13.5299 26.7475 15.0699 26.9875 16.7399C26.5175 17.1899 25.8775 17.4599 25.1675 17.4699C23.7075 17.4699 22.5275 16.2899 22.5275 14.8299C22.5275 13.3699 23.7075 12.1899 25.1675 12.1899H25.2375Z" fill="#212121"/>
<path d="M21.7475 24.7099C23.2055 24.7099 24.3875 23.528 24.3875 22.0699C24.3875 20.6119 23.2055 19.4299 21.7475 19.4299C20.2895 19.4299 19.1075 20.6119 19.1075 22.0699C19.1075 23.528 20.2895 24.7099 21.7475 24.7099Z" fill="#212121"/>
<path d="M17.4575 26.16C17.4575 26.9663 16.8038 27.62 15.9975 27.62C15.1912 27.62 14.5375 26.9663 14.5375 26.16C14.5375 25.3536 15.1912 24.7 15.9975 24.7C16.8038 24.7 17.4575 25.3536 17.4575 26.16Z" fill="#212121"/>
</g><circle cx="124" cy="18" r="10.5" fill="#111827"/><path d="m122 14 4 4-4 4" fill="none" stroke="#FFFFFF" stroke-width="2.5" stroke-linecap="round" stroke-linejoin="round"/><text x="72" y="134" text-anchor="middle" fill="#FFFFFF" font-family="Arial,sans-serif" font-size="20" font-weight="700">DEBUG</text></svg></g><g transform="translate(646,76)"><svg xmlns="http://www.w3.org/2000/svg" width="144" height="144" viewBox="0 0 144 144"><rect x="2" y="2" width="140" height="140" rx="19" fill="#111827"/><path d="M21 2h102a19 19 0 0 1 19 19v77H2V21A19 19 0 0 1 21 2Z" fill="#F5F8FF"/><path d="M3 98h138" stroke="#55D99B" stroke-width="3"/><rect x="2.75" y="2.75" width="138.5" height="138.5" rx="18.25" fill="none" stroke="#DDE5F1" stroke-width="1.5"/><g transform="translate(31 10) scale(2.5625)">
<path d="M12.0955 2.00006C11.3976 1.98479 10.7193 2.23248 10.1955 2.69402C9.35852 3.44402 9.47151 4.16102 8.72451 5.21502C8.51573 5.55185 8.24017 5.84237 7.91475 6.06854C7.58934 6.29471 7.22102 6.4518 6.83254 6.53008L6.80355 6.53704C6.2786 6.68227 5.81167 6.98694 5.46737 7.40899C5.12307 7.83104 4.91839 8.34958 4.88155 8.893C4.23255 13.982 5.98151 21.8931 10.2035 26.2241C11.3554 27.3166 12.611 28.2941 13.9525 29.143C15.3322 29.6195 16.8318 29.6195 18.2115 29.143C19.5677 28.3047 20.8315 27.3252 21.9816 26.221C26.0686 22.029 27.9655 14.0831 27.3035 8.89007C27.272 8.33987 27.0659 7.81407 26.715 7.38909C26.3641 6.96412 25.8869 6.6621 25.3526 6.52703C24.9641 6.44875 24.5957 6.29166 24.2703 6.06549C23.9449 5.83931 23.6694 5.54892 23.4606 5.21209C22.7846 4.25809 22.7935 3.4121 21.9895 2.6911C21.4657 2.22955 20.7875 1.98174 20.0895 1.997L12.0955 2.00006Z" fill="#E6E6E6"/>
<path d="M20.0089 3.5H16L12.7858 15.9188L16 28.5C18 28.5 18 28 20 26.5C20 26.5 26.5 22 26 9.5C26 9.5 26.0024 8.25 25 8C22.5 7.5 21.5 4.5 21.5 4.5C21.368 4.16593 21 3.5 20.0089 3.5Z" fill="#AEDDFF"/>
<path d="M12.0186 3.5H16.0275V28.5C14.0275 28.5 14.0275 28 12.0275 26.5C12.0275 26.5 5.52747 22 6.02747 9.5C6.02747 9.5 6.02505 8.25 7.02747 8C9.52747 7.5 10.5275 4.5 10.5275 4.5C10.6594 4.16593 11.0275 3.5 12.0186 3.5Z" fill="#00A6ED"/>
</g><circle cx="124" cy="18" r="10.5" fill="#111827"/><path d="m122 14 4 4-4 4" fill="none" stroke="#FFFFFF" stroke-width="2.5" stroke-linecap="round" stroke-linejoin="round"/><text x="72" y="134" text-anchor="middle" fill="#FFFFFF" font-family="Arial,sans-serif" font-size="20" font-weight="700">REVIEW</text></svg></g><g transform="translate(22,232)"><svg xmlns="http://www.w3.org/2000/svg" width="144" height="144" viewBox="0 0 144 144"><rect x="2" y="2" width="140" height="140" rx="19" fill="#111827"/><path d="M21 2h102a19 19 0 0 1 19 19v77H2V21A19 19 0 0 1 21 2Z" fill="#F5F8FF"/><path d="M3 98h138" stroke="#FF9B45" stroke-width="3"/><rect x="2.75" y="2.75" width="138.5" height="138.5" rx="18.25" fill="none" stroke="#DDE5F1" stroke-width="1.5"/><g transform="translate(31 10) scale(2.5625)">
<path d="M2 6C2 3.79086 3.79086 2 6 2H26C28.2091 2 30 3.79086 30 6V26C30 28.2091 28.2091 30 26 30H6C3.79086 30 2 28.2091 2 26V6Z" fill="#00A6ED"/>
<path d="M25.8352 11.8454C26.0299 11.6502 26.0299 11.3342 25.8352 11.1391L22.8227 8.11954C22.5079 7.80399 21.9688 8.02695 21.9688 8.47268V10H20.3681C20.2041 10 19.9034 10.024 19.6431 10.046C17.6928 10.2108 15.8889 11.2991 14.9511 13.1172C14.8599 13.294 14.7687 13.4719 14.6773 13.6501L14.6766 13.6514C14.0974 14.7812 13.5102 15.9263 12.8715 16.9033C12.0872 18.1029 11.4577 18.6689 11.0302 18.8099C10.7259 18.9102 10.2386 18.9712 9.70636 18.9944C9.31486 19.0114 9.00702 19.006 8.79419 19.0023C8.72395 19.0011 8.66397 19 8.61484 19H6.5C6.22386 19 6 19.2239 6 19.5V21.5C6 21.7762 6.22386 22 6.5 22H8.61481L8.61733 22L8.62534 22.0001L8.65336 22.0005L8.74359 22.0021C8.81631 22.0034 8.9107 22.0049 9.02052 22.0056C9.23965 22.007 9.52332 22.0052 9.83692 21.9915C10.4296 21.9657 11.2576 21.8938 11.9698 21.6589C13.4646 21.1659 14.5792 19.7734 15.3824 18.5449C16.1156 17.4236 16.7836 16.1191 17.3562 15.0011C17.4456 14.8266 17.5326 14.6566 17.6173 14.4925C18.042 13.6691 18.8843 13.1208 19.8956 13.0354C20.0367 13.0235 20.1566 13.014 20.2487 13.0076C20.2948 13.0044 20.3301 13.0023 20.3553 13.001L20.3773 13H21.9688V14.5117C21.9688 14.9575 22.5079 15.1804 22.8227 14.8649L25.8352 11.8454Z" fill="white"/>
<path d="M19.6431 21.96C19.9034 21.982 20.2041 22.006 20.3681 22.006H21.9688V23.5196C21.9688 23.9653 22.5079 24.1882 22.8227 23.8727L25.8352 20.8532C26.0299 20.658 26.0299 20.3421 25.8352 20.1469L22.8227 17.1274C22.5079 16.8118 21.9688 17.0348 21.9688 17.4805V19.006H20.3773L20.3553 19.005C20.3301 19.0037 20.2948 19.0016 20.2487 18.9984C20.1566 18.992 20.0367 18.9826 19.8956 18.9707C19.0442 18.8987 18.3402 18.5335 17.8855 17.9285C17.7699 17.7748 17.5263 17.7643 17.4221 17.9259L16.0374 20.0747C15.9741 20.1729 15.9869 20.3023 16.0716 20.3827C17.039 21.3006 18.3066 21.8471 19.6431 21.96Z" fill="white"/>
<path d="M9.63195 10C9.79595 10 10.0966 10.024 10.3569 10.046C11.769 10.1653 12.9634 10.641 13.9282 11.6362C14.0688 11.7813 14.0942 12 14.0018 12.1796C13.745 12.6789 13.2116 13.6986 12.796 14.3771C12.6575 14.6032 12.3403 14.5794 12.2188 14.3438C11.794 13.5204 11.1157 13.1208 10.1044 13.0354C9.96327 13.0235 9.84337 13.014 9.7513 13.0076C9.7052 13.0044 9.66994 13.0023 9.64471 13.001L9.62272 13H6.5C6.22386 13 6 12.7762 6 12.5V10.5C6 10.2239 6.22386 10 6.5 10H9.63195Z" fill="white"/>
</g><circle cx="124" cy="18" r="10.5" fill="#111827"/><path d="m122 14 4 4-4 4" fill="none" stroke="#FFFFFF" stroke-width="2.5" stroke-linecap="round" stroke-linejoin="round"/><text x="72" y="134" text-anchor="middle" fill="#FFFFFF" font-family="Arial,sans-serif" font-size="20" font-weight="700">GIT + PR</text></svg></g><g transform="translate(178,232)"><svg xmlns="http://www.w3.org/2000/svg" width="144" height="144" viewBox="0 0 144 144"><rect x="2" y="2" width="140" height="140" rx="19" fill="#111827"/><path d="M21 2h102a19 19 0 0 1 19 19v77H2V21A19 19 0 0 1 21 2Z" fill="#F5F8FF"/><path d="M3 98h138" stroke="#45D5CC" stroke-width="3"/><rect x="2.75" y="2.75" width="138.5" height="138.5" rx="18.25" fill="none" stroke="#DDE5F1" stroke-width="1.5"/><g transform="translate(31 10) scale(2.5625)">
<path d="M13 7.07617C13 7.58185 13.4526 8 14 8C14.5474 8 15 7.58185 15 7.07617V2.92382C15 2.41815 14.5474 2 14 2C13.4526 2 13 2.41815 13 2.92382V7.07617ZM18 7.07617C18 7.58185 18.4526 8 19 8C19.5474 8 20 7.58185 20 7.07617V2.92382C20 2.41815 19.5474 2 19 2C18.4526 2 18 2.41815 18 2.92382V7.07617Z" fill="#F3AD61"/>
<path d="M11.06 9.93474C10.4455 9.74724 10 9.17681 10 8.5C10 7.67 10.67 7 11.5 7H21.5C22.33 7 23 7.67 23 8.5C23 9.15084 22.588 9.70329 22.01 9.91147V13.27C22.01 15.4124 20.7851 17.2649 19 18.1663V22.0838C19 22.5906 18.5906 23 18.0838 23H18V30H15V23H14.9162C14.4094 23 14 22.5906 14 22.0838V18.1262C12.2542 17.2107 11.06 15.3812 11.06 13.27V9.93474Z" fill="#533566"/>
<path d="M15 12H18C18.27 12 18.5 11.77 18.5 11.5C18.5 11.22 18.27 11 18 11H15C14.72 11 14.5 11.23 14.5 11.5C14.5 11.77 14.73 12 15 12ZM15 14H18C18.27 14 18.5 13.78 18.5 13.5C18.5 13.23 18.27 13 18 13H15C14.72 13 14.5 13.23 14.5 13.5C14.5 13.78 14.73 14 15 14Z" fill="#C790F1"/>
</g><circle cx="124" cy="18" r="10.5" fill="#111827"/><path d="m122 14 4 4-4 4" fill="none" stroke="#FFFFFF" stroke-width="2.5" stroke-linecap="round" stroke-linejoin="round"/><text x="72" y="134" text-anchor="middle" fill="#FFFFFF" font-family="Arial,sans-serif" font-size="20" font-weight="700">TOOLING</text></svg></g><g transform="translate(334,232)"><svg xmlns="http://www.w3.org/2000/svg" width="144" height="144" viewBox="0 0 144 144"><rect x="2" y="2" width="140" height="140" rx="19" fill="#111827"/><path d="M21 2h102a19 19 0 0 1 19 19v77H2V21A19 19 0 0 1 21 2Z" fill="#F5F8FF"/><path d="M3 98h138" stroke="#49A8FF" stroke-width="3"/><rect x="2.75" y="2.75" width="138.5" height="138.5" rx="18.25" fill="none" stroke="#DDE5F1" stroke-width="1.5"/><g transform="translate(31 10) scale(2.5625)">
<path d="M2 6C2 3.79086 3.79086 2 6 2H26C28.2091 2 30 3.79086 30 6V26C30 28.2091 28.2091 30 26 30H6C3.79086 30 2 28.2091 2 26V6Z" fill="#00A6ED"/>
<path d="M25.8648 10.2181L22.4657 7.10997C22.2266 6.87088 21.8108 7.0476 21.8004 7.39063V8.65882C21.8004 8.85633 21.6445 9.02265 21.4366 9.02265H11.5717C8.50519 9.03304 6 11.5071 6 14.5632V17.7141C6 18.0364 6.36382 18.1923 6.60291 17.9844L8.84823 15.9262C8.921 15.8638 8.96258 15.7702 8.96258 15.6767V14.5736C8.96258 13.1287 10.1372 11.954 11.5821 11.954L21.447 11.9852C21.6445 11.9852 21.8108 12.1515 21.8108 12.349V13.6172C21.8108 13.9603 22.2162 14.1474 22.4657 13.9083L25.8648 10.7898C26.0416 10.6339 26.0416 10.374 25.8648 10.2181Z" fill="white"/>
<path d="M6.13515 21.7711L9.53432 24.8792C9.7734 25.1183 10.1892 24.9415 10.1996 24.5985V23.3303C10.1996 23.1328 10.3555 22.9665 10.5634 22.9665H20.4283C23.4948 22.9561 26 20.4821 26 17.426V14.3125C26 13.9902 25.6362 13.8343 25.3971 14.0422L23.1518 16.1004C23.079 16.1628 23.0374 16.2563 23.0374 16.3499V17.4156C23.0374 18.8605 21.8628 20.0351 20.4179 20.0351L10.553 20.0039C10.3555 20.0039 10.1892 19.8376 10.1892 19.6401V18.3719C10.1892 18.0289 9.7838 17.8418 9.53432 18.0808L6.13515 21.1993C5.95844 21.3553 5.95844 21.6151 6.13515 21.7711Z" fill="white"/>
</g><circle cx="124" cy="18" r="10.5" fill="#111827"/><path d="m122 14 4 4-4 4" fill="none" stroke="#FFFFFF" stroke-width="2.5" stroke-linecap="round" stroke-linejoin="round"/><text x="72" y="134" text-anchor="middle" fill="#FFFFFF" font-family="Arial,sans-serif" font-size="20" font-weight="700">RECOVER</text></svg></g><g transform="translate(490,232)"><svg xmlns="http://www.w3.org/2000/svg" width="144" height="144" viewBox="0 0 144 144"><rect x="2" y="2" width="140" height="140" rx="19" fill="#111827"/><path d="M21 2h102a19 19 0 0 1 19 19v77H2V21A19 19 0 0 1 21 2Z" fill="#F5F8FF"/><path d="M3 98h138" stroke="#49A8FF" stroke-width="3"/><rect x="2.75" y="2.75" width="138.5" height="138.5" rx="18.25" fill="none" stroke="#DDE5F1" stroke-width="1.5"/><g transform="translate(31 10) scale(2.5625)">
<path fill-rule="evenodd" clip-rule="evenodd" d="M16 8.05051C16.6353 7.40223 17.5207 7 18.5 7H26.5C27.2428 7 27.8892 7.40449 28.234 8.00326C28.3036 8.12402 28.3296 8.26363 28.3296 8.40297V10.6972L29 25.5C29 26.8807 27.8807 28 26.5 28H5.5C4.11929 28 3 26.8807 3 25.5L3.67038 10.6972V8.40298C3.67038 8.26363 3.69643 8.12402 3.76597 8.00327C4.11082 7.40451 4.75724 7 5.5 7H13.5C14.4793 7 15.3647 7.40223 16 8.05051Z" fill="#B4ACBC"/>
<path d="M17.7324 30H28.4989C29.3295 30 30 29.3221 30 28.4948V27.4414C30 26.614 29.3295 25 28.4989 25H3.50107C2.67048 25 2 26.614 2 27.4414V28.5047C2 29.3321 2.67048 30 3.50107 30H14.2676C14.6134 30.5978 15.2597 31 16 31C16.7403 31 17.3866 30.5978 17.7324 30Z" fill="#0074BA"/>
<path fill-rule="evenodd" clip-rule="evenodd" d="M3.50107 10H14V11H18V10H28.4989C29.3295 10 30 10.6679 30 11.4953V27.4948C30 28.3221 29.3295 29 28.4989 29H17.7324C17.3866 29.5978 16.7403 30 16 30C15.2597 30 14.6134 29.5978 14.2676 29H3.50107C2.67048 29 2 28.3321 2 27.5047V11.4953C2 10.6679 2.67048 10 3.50107 10ZM17.5 27.5C17.5 28.3284 16.8284 29 16 29C15.1716 29 14.5 28.3284 14.5 27.5C14.5 26.6716 15.1716 26 16 26C16.8284 26 17.5 26.6716 17.5 27.5Z" fill="#00A6ED"/>
<path d="M13 8H5.80278C5.30125 8 4.8329 8.25065 4.5547 8.66795L3 11V25.5C3 26.3284 3.67157 27 4.5 27H27.5C28.3284 27 29 26.3284 29 25.5V11L27.4453 8.66795C27.1671 8.25065 26.6988 8 26.1972 8H19V11H13V8Z" fill="#B4ACBC"/>
<path d="M5.5 8H13.5C14.8807 8 16 9.11929 16 10.5V27L15.5528 26.1056C15.214 25.428 14.5215 25 13.7639 25H5.5C4.94772 25 4.5 24.5523 4.5 24V9C4.5 8.44772 4.94772 8 5.5 8Z" fill="#F3EEF8"/>
<path d="M18.5 8H26.5C27.0523 8 27.5 8.44772 27.5 9V24C27.5 24.5523 27.0523 25 26.5 25H18.2361C17.516 25 16.8546 25.3867 16.5 26.007V8.99976C16.9561 8.39267 17.6822 8 18.5 8Z" fill="#F3EEF8"/>
</g><circle cx="124" cy="18" r="10.5" fill="#111827"/><path d="m122 14 4 4-4 4" fill="none" stroke="#FFFFFF" stroke-width="2.5" stroke-linecap="round" stroke-linejoin="round"/><text x="72" y="134" text-anchor="middle" fill="#FFFFFF" font-family="Arial,sans-serif" font-size="20" font-weight="700">LEARN</text></svg></g><g transform="translate(646,232)"><svg xmlns="http://www.w3.org/2000/svg" width="144" height="144" viewBox="0 0 144 144"><rect x="2" y="2" width="140" height="140" rx="19" fill="#111827"/><path d="M21 2h102a19 19 0 0 1 19 19v77H2V21A19 19 0 0 1 21 2Z" fill="#F5F8FF"/><path d="M3 98h138" stroke="#FF9B45" stroke-width="3"/><rect x="2.75" y="2.75" width="138.5" height="138.5" rx="18.25" fill="none" stroke="#DDE5F1" stroke-width="1.5"/><g transform="translate(31 10) scale(2.5625)">
<path d="M27.6259 11.9438L8 4H7V21H8L27.6259 13.0562C28.1258 12.8538 28.1258 12.1462 27.6259 11.9438Z" fill="#F8312F"/>
<path d="M4 4C4 2.89543 4.89543 2 6 2C7.10457 2 8 2.89543 8 4V30H4V4Z" fill="#E39D89"/>
</g><text x="72" y="114" text-anchor="middle" fill="#FFFFFF" font-family="Arial,sans-serif" font-size="20" font-weight="700">WRITE</text><text x="72" y="134" text-anchor="middle" fill="#FFFFFF" font-family="Arial,sans-serif" font-size="20" font-weight="700">GOAL</text></svg></g><g transform="translate(22,388)"><svg xmlns="http://www.w3.org/2000/svg" width="144" height="144" viewBox="0 0 144 144"><rect x="2" y="2" width="140" height="140" rx="19" fill="#111827"/><path d="M21 2h102a19 19 0 0 1 19 19v77H2V21A19 19 0 0 1 21 2Z" fill="#F5F8FF"/><path d="M3 98h138" stroke="#55D99B" stroke-width="3"/><rect x="2.75" y="2.75" width="138.5" height="138.5" rx="18.25" fill="none" stroke="#DDE5F1" stroke-width="1.5"/><g transform="translate(31 10) scale(2.5625)">
<path d="M12.0955 2.00006C11.3976 1.98479 10.7193 2.23248 10.1955 2.69402C9.35852 3.44402 9.47151 4.16102 8.72451 5.21502C8.51573 5.55185 8.24017 5.84237 7.91475 6.06854C7.58934 6.29471 7.22102 6.4518 6.83254 6.53008L6.80355 6.53704C6.2786 6.68227 5.81167 6.98694 5.46737 7.40899C5.12307 7.83104 4.91839 8.34958 4.88155 8.893C4.23255 13.982 5.98151 21.8931 10.2035 26.2241C11.3554 27.3166 12.611 28.2941 13.9525 29.143C15.3322 29.6195 16.8318 29.6195 18.2115 29.143C19.5677 28.3047 20.8315 27.3252 21.9816 26.221C26.0686 22.029 27.9655 14.0831 27.3035 8.89007C27.272 8.33987 27.0659 7.81407 26.715 7.38909C26.3641 6.96412 25.8869 6.6621 25.3526 6.52703C24.9641 6.44875 24.5957 6.29166 24.2703 6.06549C23.9449 5.83931 23.6694 5.54892 23.4606 5.21209C22.7846 4.25809 22.7935 3.4121 21.9895 2.6911C21.4657 2.22955 20.7875 1.98174 20.0895 1.997L12.0955 2.00006Z" fill="#E6E6E6"/>
<path d="M20.0089 3.5H16L12.7858 15.9188L16 28.5C18 28.5 18 28 20 26.5C20 26.5 26.5 22 26 9.5C26 9.5 26.0024 8.25 25 8C22.5 7.5 21.5 4.5 21.5 4.5C21.368 4.16593 21 3.5 20.0089 3.5Z" fill="#AEDDFF"/>
<path d="M12.0186 3.5H16.0275V28.5C14.0275 28.5 14.0275 28 12.0275 26.5C12.0275 26.5 5.52747 22 6.02747 9.5C6.02747 9.5 6.02505 8.25 7.02747 8C9.52747 7.5 10.5275 4.5 10.5275 4.5C10.6594 4.16593 11.0275 3.5 12.0186 3.5Z" fill="#00A6ED"/>
</g><text x="72" y="114" text-anchor="middle" fill="#FFFFFF" font-family="Arial,sans-serif" font-size="20" font-weight="700">SHIP</text><text x="72" y="134" text-anchor="middle" fill="#FFFFFF" font-family="Arial,sans-serif" font-size="20" font-weight="700">GATE</text></svg></g><g transform="translate(178,388)"><svg xmlns="http://www.w3.org/2000/svg" width="144" height="144" viewBox="0 0 144 144"><rect x="2" y="2" width="140" height="140" rx="19" fill="#111827"/><path d="M21 2h102a19 19 0 0 1 19 19v77H2V21A19 19 0 0 1 21 2Z" fill="#F5F8FF"/><path d="M3 98h138" stroke="#FF6576" stroke-width="3"/><rect x="2.75" y="2.75" width="138.5" height="138.5" rx="18.25" fill="none" stroke="#DDE5F1" stroke-width="1.5"/><g transform="translate(31 10) scale(2.5625)">
<path d="M13.5704 1.74986C13.4322 1.51079 13.1264 1.42901 12.8873 1.5672C12.6482 1.70539 12.5664 2.01123 12.7046 2.25031L14.1336 4.7224C11.3473 5.49473 9.2609 7.95628 9.05434 10.9418L7.8275 9.70992C7.6175 9.49992 7.4975 9.21992 7.4975 8.91992V6.91992C7.4975 6.49992 7.1575 6.16992 6.7475 6.16992C6.3375 6.16992 5.9975 6.49992 5.9975 6.91992V8.91992C5.9975 9.61992 6.2675 10.2799 6.7675 10.7799L9.2175 13.2299C9.24008 13.251 9.26356 13.2707 9.28781 13.289C10.014 15.9226 12.2457 17.9281 14.9975 18.3201V29.4201C15.3275 29.4501 15.6575 29.4701 15.9975 29.4701C16.3375 29.4701 16.6675 29.4501 16.9975 29.4201V18.3201C19.7434 17.9289 21.9714 15.9312 22.7025 13.3059C22.7284 13.2859 22.7535 13.264 22.7775 13.2399L25.2275 10.7899C25.7275 10.2899 25.9975 9.62993 25.9975 8.92993V6.92993C25.9975 6.51993 25.6575 6.17993 25.2475 6.17993C24.8375 6.17993 24.4975 6.51993 24.4975 6.92993V8.92993C24.4975 9.23993 24.3775 9.51993 24.1675 9.72993L22.9416 10.9558C22.7367 7.90537 20.5695 5.39942 17.6966 4.67889L19.1004 2.25031C19.2386 2.01123 19.1568 1.70539 18.9177 1.5672C18.6787 1.42901 18.3728 1.51079 18.2346 1.74986L16.6451 4.49978C16.4318 4.48011 16.2158 4.47005 15.9975 4.47005C15.7178 4.47005 15.442 4.48655 15.1708 4.51863L13.5704 1.74986Z" fill="#212121"/>
<path d="M28.7175 16.16C28.8675 16.31 29.0575 16.38 29.2475 16.38C29.4375 16.38 29.6275 16.3 29.7775 16.16C30.0675 15.87 30.0675 15.39 29.7775 15.1L29.1075 14.43C28.4875 13.81 27.6675 13.47 26.7875 13.47H25.0375C24.6275 13.47 24.2875 13.81 24.2875 14.22C24.2875 14.63 24.6275 14.97 25.0375 14.97H26.7875C27.2575 14.97 27.7075 15.15 28.0475 15.49L28.7175 16.16Z" fill="#212121"/>
<path d="M27.2475 29.4401C26.8375 29.4401 26.4975 29.1001 26.4975 28.6901V26.6001C26.4975 25.9801 26.2575 25.4001 25.8175 24.9601L23.2575 22.4001C22.9675 22.1101 22.9675 21.6301 23.2575 21.3401C23.5475 21.0501 24.0275 21.0501 24.3175 21.3401L26.8775 23.9001C27.5975 24.6201 27.9975 25.5801 27.9975 26.6001V28.6901C27.9975 29.1001 27.6575 29.4401 27.2475 29.4401Z" fill="#212121"/>
<path d="M5.4975 28.67C5.4975 29.08 5.1575 29.42 4.7475 29.42C4.3375 29.42 3.9975 29.08 3.9975 28.67V26.58C3.9975 25.56 4.3975 24.6 5.1175 23.88L7.6775 21.32C7.9675 21.03 8.4475 21.03 8.7375 21.32C9.0275 21.61 9.0275 22.09 8.7375 22.38L6.1775 24.94C5.7375 25.38 5.4975 25.96 5.4975 26.58V28.67Z" fill="#212121"/>
<path d="M3.2775 16.14C3.1275 16.29 2.9375 16.36 2.7475 16.36C2.5575 16.36 2.3675 16.28 2.2175 16.14C1.9275 15.85 1.9275 15.37 2.2175 15.08L2.8875 14.41C3.5075 13.79 4.3275 13.45 5.2075 13.45H6.9575C7.3675 13.45 7.7075 13.79 7.7075 14.2C7.7075 14.61 7.3675 14.95 6.9575 14.95H5.2075C4.7375 14.95 4.2875 15.13 3.9475 15.47L3.2775 16.14Z" fill="#212121"/>
<path d="M15.5 9.45996H9.31751C9.31751 9.46496 9.31501 9.46746 9.31251 9.46996C9.31001 9.47246 9.30751 9.47496 9.30751 9.47996C8.30728 10.2348 7.43977 11.1541 6.74458 12.1974L8 15L5.00752 16.7106C4.92845 17.2457 4.88751 17.7931 4.88751 18.35C4.88751 24.15 9.32751 28.91 14.9975 29.42C15.1646 29.4351 15.3316 29.4478 15.5 29.4565V9.45996Z" fill="#F8312F"/>
<path d="M16.5 29.4563C16.6667 29.4475 16.8321 29.435 16.9975 29.42C22.6675 28.91 27.1075 24.15 27.1075 18.35C27.1075 17.802 27.0679 17.2634 26.9913 16.7368L24 15L25.2531 12.2009C24.5564 11.1543 23.6874 10.2336 22.6875 9.47996V9.45996H16.5V29.4563Z" fill="#F8312F"/>
<path d="M19.8975 14.92C19.8975 17.0739 18.1514 18.82 15.9975 18.82C13.8436 18.82 12.0975 17.0739 12.0975 14.92C12.0975 12.7661 13.8436 11.02 15.9975 11.02C18.1514 11.02 19.8975 12.7661 19.8975 14.92Z" fill="#212121"/>
<path d="M12.8875 22.0699C12.8875 23.528 11.7055 24.7099 10.2475 24.7099C8.78948 24.7099 7.60751 23.528 7.60751 22.0699C7.60751 20.6119 8.78948 19.4299 10.2475 19.4299C11.7055 19.4299 12.8875 20.6119 12.8875 22.0699Z" fill="#212121"/>
<path d="M6.8175 12.1899H6.7475C5.8475 13.5299 5.2375 15.0799 4.9975 16.7399C5.4675 17.1899 6.1075 17.4599 6.8175 17.4599C8.2775 17.4599 9.4575 16.2799 9.4575 14.8199C9.4575 13.3599 8.2775 12.1899 6.8175 12.1899Z" fill="#212121"/>
<path d="M25.2375 12.1899C26.1375 13.5299 26.7475 15.0699 26.9875 16.7399C26.5175 17.1899 25.8775 17.4599 25.1675 17.4699C23.7075 17.4699 22.5275 16.2899 22.5275 14.8299C22.5275 13.3699 23.7075 12.1899 25.1675 12.1899H25.2375Z" fill="#212121"/>
<path d="M21.7475 24.7099C23.2055 24.7099 24.3875 23.528 24.3875 22.0699C24.3875 20.6119 23.2055 19.4299 21.7475 19.4299C20.2895 19.4299 19.1075 20.6119 19.1075 22.0699C19.1075 23.528 20.2895 24.7099 21.7475 24.7099Z" fill="#212121"/>
<path d="M17.4575 26.16C17.4575 26.9663 16.8038 27.62 15.9975 27.62C15.1912 27.62 14.5375 26.9663 14.5375 26.16C14.5375 25.3536 15.1912 24.7 15.9975 24.7C16.8038 24.7 17.4575 25.3536 17.4575 26.16Z" fill="#212121"/>
</g><text x="72" y="114" text-anchor="middle" fill="#FFFFFF" font-family="Arial,sans-serif" font-size="20" font-weight="700">FIX</text><text x="72" y="134" text-anchor="middle" fill="#FFFFFF" font-family="Arial,sans-serif" font-size="20" font-weight="700">ERROR</text></svg></g><g transform="translate(334,388)"><svg xmlns="http://www.w3.org/2000/svg" width="144" height="144" viewBox="0 0 144 144"><rect x="2" y="2" width="140" height="140" rx="19" fill="#111827"/><path d="M21 2h102a19 19 0 0 1 19 19v77H2V21A19 19 0 0 1 21 2Z" fill="#F5F8FF"/><path d="M3 98h138" stroke="#49A8FF" stroke-width="3"/><rect x="2.75" y="2.75" width="138.5" height="138.5" rx="18.25" fill="none" stroke="#DDE5F1" stroke-width="1.5"/><g transform="translate(31 10) scale(2.5625)">
<path d="M3 13C3 18.5228 7.47715 23 13 23C18.5228 23 23 18.5228 23 13C23 7.47715 18.5228 3 13 3C7.47715 3 3 7.47715 3 13Z" fill="#00A6ED"/>
<path d="M18.3481 7.73205C18.9004 8.68864 18.7665 9.79989 18.049 10.2141C17.3316 10.6283 16.3023 10.1886 15.75 9.23205C15.1977 8.27547 15.3316 7.16421 16.049 6.75C16.7665 6.33579 17.7958 6.77547 18.3481 7.73205Z" fill="white"/>
<path d="M2 13C2 19.0751 6.92487 24 13 24C15.2952 24 17.4262 23.2971 19.1895 22.0947C18.9147 23.3086 19.2498 24.6327 20.195 25.5779L23.3769 28.7599C24.8414 30.2243 27.2158 30.2243 28.6803 28.7599C30.1447 27.2954 30.1447 24.921 28.6803 23.4566L25.4983 20.2746C24.5607 19.3371 23.2503 18.9997 22.0445 19.2626C23.2774 17.4852 24 15.327 24 13C24 6.92487 19.0751 2 13 2C6.92487 2 2 6.92487 2 13ZM22 13C22 17.9706 17.9706 22 13 22C8.02944 22 4 17.9706 4 13C4 8.02944 8.02944 4 13 4C17.9706 4 22 8.02944 22 13Z" fill="#533566"/>
</g><text x="72" y="114" text-anchor="middle" fill="#FFFFFF" font-family="Arial,sans-serif" font-size="20" font-weight="700">REVIEW</text><text x="72" y="134" text-anchor="middle" fill="#FFFFFF" font-family="Arial,sans-serif" font-size="20" font-weight="700">DIFF</text></svg></g><g transform="translate(490,388)"><svg xmlns="http://www.w3.org/2000/svg" width="144" height="144" viewBox="0 0 144 144"><rect x="2" y="2" width="140" height="140" rx="19" fill="#111827"/><path d="M21 2h102a19 19 0 0 1 19 19v77H2V21A19 19 0 0 1 21 2Z" fill="#F5F8FF"/><path d="M3 98h138" stroke="#55D99B" stroke-width="3"/><rect x="2.75" y="2.75" width="138.5" height="138.5" rx="18.25" fill="none" stroke="#DDE5F1" stroke-width="1.5"/><g transform="translate(31 10) scale(2.5625)">
<path d="M2 6C2 3.79086 3.79086 2 6 2H26C28.2091 2 30 3.79086 30 6V26C30 28.2091 28.2091 30 26 30H6C3.79086 30 2 28.2091 2 26V6Z" fill="#00D26A"/>
<path d="M13.242 23C12.8588 23 12.4757 22.8566 12.183 22.5692L6.43855 16.9278C5.85382 16.3535 5.85382 15.422 6.43855 14.8477C7.02329 14.2735 7.97186 14.2735 8.55659 14.8477L13.242 19.4491L23.4434 9.43069C24.0281 8.85644 24.9767 8.85644 25.5614 9.43069C26.1462 10.0049 26.1462 10.9365 25.5614 11.5107L14.301 22.5692C14.009 22.8566 13.6252 23 13.242 23Z" fill="#F4F4F4"/>
</g><text x="72" y="114" text-anchor="middle" fill="#FFFFFF" font-family="Arial,sans-serif" font-size="20" font-weight="700">DEFINE</text><text x="72" y="134" text-anchor="middle" fill="#FFFFFF" font-family="Arial,sans-serif" font-size="20" font-weight="700">DONE</text></svg></g><g transform="translate(646,388)"><svg xmlns="http://www.w3.org/2000/svg" width="144" height="144" viewBox="0 0 144 144"><rect x="2" y="2" width="140" height="140" rx="19" fill="#111827"/><path d="M21 2h102a19 19 0 0 1 19 19v77H2V21A19 19 0 0 1 21 2Z" fill="#F5F8FF"/><path d="M3 98h138" stroke="#49A8FF" stroke-width="3"/><rect x="2.75" y="2.75" width="138.5" height="138.5" rx="18.25" fill="none" stroke="#DDE5F1" stroke-width="1.5"/><g transform="translate(31 10) scale(2.5625)">
<path fill-rule="evenodd" clip-rule="evenodd" d="M16 8.05051C16.6353 7.40223 17.5207 7 18.5 7H26.5C27.2428 7 27.8892 7.40449 28.234 8.00326C28.3036 8.12402 28.3296 8.26363 28.3296 8.40297V10.6972L29 25.5C29 26.8807 27.8807 28 26.5 28H5.5C4.11929 28 3 26.8807 3 25.5L3.67038 10.6972V8.40298C3.67038 8.26363 3.69643 8.12402 3.76597 8.00327C4.11082 7.40451 4.75724 7 5.5 7H13.5C14.4793 7 15.3647 7.40223 16 8.05051Z" fill="#B4ACBC"/>
<path d="M17.7324 30H28.4989C29.3295 30 30 29.3221 30 28.4948V27.4414C30 26.614 29.3295 25 28.4989 25H3.50107C2.67048 25 2 26.614 2 27.4414V28.5047C2 29.3321 2.67048 30 3.50107 30H14.2676C14.6134 30.5978 15.2597 31 16 31C16.7403 31 17.3866 30.5978 17.7324 30Z" fill="#0074BA"/>
<path fill-rule="evenodd" clip-rule="evenodd" d="M3.50107 10H14V11H18V10H28.4989C29.3295 10 30 10.6679 30 11.4953V27.4948C30 28.3221 29.3295 29 28.4989 29H17.7324C17.3866 29.5978 16.7403 30 16 30C15.2597 30 14.6134 29.5978 14.2676 29H3.50107C2.67048 29 2 28.3321 2 27.5047V11.4953C2 10.6679 2.67048 10 3.50107 10ZM17.5 27.5C17.5 28.3284 16.8284 29 16 29C15.1716 29 14.5 28.3284 14.5 27.5C14.5 26.6716 15.1716 26 16 26C16.8284 26 17.5 26.6716 17.5 27.5Z" fill="#00A6ED"/>
<path d="M13 8H5.80278C5.30125 8 4.8329 8.25065 4.5547 8.66795L3 11V25.5C3 26.3284 3.67157 27 4.5 27H27.5C28.3284 27 29 26.3284 29 25.5V11L27.4453 8.66795C27.1671 8.25065 26.6988 8 26.1972 8H19V11H13V8Z" fill="#B4ACBC"/>
<path d="M5.5 8H13.5C14.8807 8 16 9.11929 16 10.5V27L15.5528 26.1056C15.214 25.428 14.5215 25 13.7639 25H5.5C4.94772 25 4.5 24.5523 4.5 24V9C4.5 8.44772 4.94772 8 5.5 8Z" fill="#F3EEF8"/>
<path d="M18.5 8H26.5C27.0523 8 27.5 8.44772 27.5 9V24C27.5 24.5523 27.0523 25 26.5 25H18.2361C17.516 25 16.8546 25.3867 16.5 26.007V8.99976C16.9561 8.39267 17.6822 8 18.5 8Z" fill="#F3EEF8"/>
</g><text x="72" y="114" text-anchor="middle" fill="#FFFFFF" font-family="Arial,sans-serif" font-size="20" font-weight="700">EXPLAIN</text><text x="72" y="134" text-anchor="middle" fill="#FFFFFF" font-family="Arial,sans-serif" font-size="20" font-weight="700">CODE</text></svg></g><text x="24" y="552" fill="#56657A" font-family="Arial,sans-serif" font-size="11">Layout guide. Text buttons paste; links open in your default browser; shortcuts act on the focused app.</text></svg>