<svg xmlns="http://www.w3.org/2000/svg" width="812" height="564" viewBox="0 0 812 564"><rect width="812" height="564" rx="24" fill="#0E151E"/><text x="24" y="43" fill="#F4F0E8" font-family="Arial,sans-serif" font-size="25" font-weight="700">Code Workflow / Git &amp; PR</text><g transform="translate(22,76)"><svg xmlns="http://www.w3.org/2000/svg" width="144" height="144" viewBox="0 0 144 144"><defs><linearGradient id="bg51300ee603" x2=".7" y2="1"><stop stop-color="#28313D"/><stop offset="1" stop-color="#131B25"/></linearGradient><radialGradient id="light51300ee603"><stop stop-color="#B6CC92" stop-opacity=".18"/><stop offset="1" stop-color="#B6CC92" stop-opacity="0"/></radialGradient></defs><rect x="2" y="2" width="140" height="140" rx="19" fill="url(#bg51300ee603)"/><g fill="none" stroke="#B6CC92" stroke-opacity=".45" stroke-width="1.2"><rect x="3.5" y="3.5" width="137" height="137" rx="18"/></g><circle cx="72" cy="62" r="57" fill="url(#light51300ee603)"/><path d="M57 12h30" stroke="#B6CC92" stroke-width="3" stroke-linecap="round"/><g fill="#B6CC92" opacity=".85"></g><svg x="42.0" y="28" width="60" height="60" viewBox="0 0 24 24" fill="none" stroke="#F4F0E8" stroke-width="1.65" stroke-linecap="round" stroke-linejoin="round"><path d="m10 5-7 7 7 7M3 12h18"/></svg><text x="72" y="121" text-anchor="middle" fill="#F4F0E8" font-family="Arial,sans-serif" font-size="14" font-weight="700">BACK</text></svg></g><g transform="translate(178,76)"><svg xmlns="http://www.w3.org/2000/svg" width="144" height="144" viewBox="0 0 144 144"><defs><linearGradient id="bg5f577310ee" x2=".7" y2="1"><stop stop-color="#28313D"/><stop offset="1" stop-color="#131B25"/></linearGradient><radialGradient id="light5f577310ee"><stop stop-color="#B6CC92" stop-opacity=".18"/><stop offset="1" stop-color="#B6CC92" stop-opacity="0"/></radialGradient></defs><rect x="2" y="2" width="140" height="140" rx="19" fill="url(#bg5f577310ee)"/><g fill="none" stroke="#B6CC92" stroke-opacity=".45" stroke-width="1.2"><rect x="3.5" y="3.5" width="137" height="137" rx="18"/></g><circle cx="72" cy="62" r="57" fill="url(#light5f577310ee)"/><path d="M57 12h30" stroke="#B6CC92" stroke-width="3" stroke-linecap="round"/><g fill="#B6CC92" opacity=".85"></g><svg x="42.0" y="28" width="60" height="60" viewBox="0 0 24 24" fill="none" stroke="#F4F0E8" stroke-width="1.65" stroke-linecap="round" stroke-linejoin="round">
  <path d="M6 18h8" />
  <path d="M3 22h18" />
  <path d="M14 22a7 7 0 1 0 0-14h-1" />
  <path d="M9 14h2" />
  <path d="M9 12a2 2 0 0 1-2-2V6h6v4a2 2 0 0 1-2 2Z" />
  <path d="M12 6V3a1 1 0 0 0-1-1H9a1 1 0 0 0-1 1v3" />
</svg><text x="72" y="111" text-anchor="middle" fill="#F4F0E8" font-family="Arial,sans-serif" font-size="14" font-weight="700">WRITE</text><text x="72" y="130" text-anchor="middle" fill="#F4F0E8" font-family="Arial,sans-serif" font-size="14" font-weight="700">PR</text></svg></g><g transform="translate(334,76)"><svg xmlns="http://www.w3.org/2000/svg" width="144" height="144" viewBox="0 0 144 144"><defs><linearGradient id="bg9f957f9898" x2=".7" y2="1"><stop stop-color="#28313D"/><stop offset="1" stop-color="#131B25"/></linearGradient><radialGradient id="light9f957f9898"><stop stop-color="#B6CC92" stop-opacity=".18"/><stop offset="1" stop-color="#B6CC92" stop-opacity="0"/></radialGradient></defs><rect x="2" y="2" width="140" height="140" rx="19" fill="url(#bg9f957f9898)"/><g fill="none" stroke="#B6CC92" stroke-opacity=".45" stroke-width="1.2"><rect x="3.5" y="3.5" width="137" height="137" rx="18"/></g><circle cx="72" cy="62" r="57" fill="url(#light9f957f9898)"/><path d="M57 12h30" stroke="#B6CC92" stroke-width="3" stroke-linecap="round"/><g fill="#B6CC92" opacity=".85"></g><svg x="42.0" y="28" width="60" height="60" viewBox="0 0 24 24" fill="none" stroke="#F4F0E8" stroke-width="1.65" stroke-linecap="round" stroke-linejoin="round">
  <path d="m13 19 6-6" />
  <path d="M14.5 17.5 3.586 6.586A2 2 0 013 5.172V3h2.172a2 2 0 011.414.586L17.5 14.5" />
  <path d="m14.828 6.172 2.586-2.586A2 2 0 0118.828 3H21v2.172a2 2 0 01-.586 1.414l-2.586 2.586" />
  <path d="m16 16 4 4" />
  <path d="m19 21 2-2" />
  <path d="m5 14 4 4" />
  <path d="m5 21-2-2" />
  <path d="M7.5 16.5 4 20" />
</svg><text x="72" y="111" text-anchor="middle" fill="#F4F0E8" font-family="Arial,sans-serif" font-size="14" font-weight="700">REVIEW</text><text x="72" y="130" text-anchor="middle" fill="#F4F0E8" font-family="Arial,sans-serif" font-size="14" font-weight="700">DIFF</text></svg></g><g transform="translate(490,76)"><svg xmlns="http://www.w3.org/2000/svg" width="144" height="144" viewBox="0 0 144 144"><defs><linearGradient id="bgef258a1e03" x2=".7" y2="1"><stop stop-color="#28313D"/><stop offset="1" stop-color="#131B25"/></linearGradient><radialGradient id="lightef258a1e03"><stop stop-color="#B6CC92" stop-opacity=".18"/><stop offset="1" stop-color="#B6CC92" stop-opacity="0"/></radialGradient></defs><rect x="2" y="2" width="140" height="140" rx="19" fill="url(#bgef258a1e03)"/><g fill="none" stroke="#B6CC92" stroke-opacity=".45" stroke-width="1.2"><rect x="3.5" y="3.5" width="137" height="137" rx="18"/></g><circle cx="72" cy="62" r="57" fill="url(#lightef258a1e03)"/><path d="M57 12h30" stroke="#B6CC92" stroke-width="3" stroke-linecap="round"/><g fill="#B6CC92" opacity=".85"></g><svg x="42.0" y="28" width="60" height="60" viewBox="0 0 24 24" fill="none" stroke="#F4F0E8" stroke-width="1.65" stroke-linecap="round" stroke-linejoin="round">
  <circle cx="5" cy="6" r="3" />
  <path d="M12 6h5a2 2 0 0 1 2 2v7" />
  <path d="m15 9-3-3 3-3" />
  <circle cx="19" cy="18" r="3" />
  <path d="M12 18H7a2 2 0 0 1-2-2V9" />
  <path d="m9 15 3 3-3 3" />
</svg><text x="72" y="111" text-anchor="middle" fill="#F4F0E8" font-family="Arial,sans-serif" font-size="14" font-weight="700">EXPLAIN</text><text x="72" y="130" text-anchor="middle" fill="#F4F0E8" font-family="Arial,sans-serif" font-size="14" font-weight="700">DIFF</text></svg></g><g transform="translate(646,76)"><svg xmlns="http://www.w3.org/2000/svg" width="144" height="144" viewBox="0 0 144 144"><defs><linearGradient id="bg9f957f9898" x2=".7" y2="1"><stop stop-color="#28313D"/><stop offset="1" stop-color="#131B25"/></linearGradient><radialGradient id="light9f957f9898"><stop stop-color="#B6CC92" stop-opacity=".18"/><stop offset="1" stop-color="#B6CC92" stop-opacity="0"/></radialGradient></defs><rect x="2" y="2" width="140" height="140" rx="19" fill="url(#bg9f957f9898)"/><g fill="none" stroke="#B6CC92" stroke-opacity=".45" stroke-width="1.2"><rect x="3.5" y="3.5" width="137" height="137" rx="18"/></g><circle cx="72" cy="62" r="57" fill="url(#light9f957f9898)"/><path d="M57 12h30" stroke="#B6CC92" stroke-width="3" stroke-linecap="round"/><g fill="#B6CC92" opacity=".85"></g><svg x="42.0" y="28" width="60" height="60" viewBox="0 0 24 24" fill="none" stroke="#F4F0E8" stroke-width="1.65" stroke-linecap="round" stroke-linejoin="round">
  <path d="m13 19 6-6" />
  <path d="M14.5 17.5 3.586 6.586A2 2 0 013 5.172V3h2.172a2 2 0 011.414.586L17.5 14.5" />
  <path d="m14.828 6.172 2.586-2.586A2 2 0 0118.828 3H21v2.172a2 2 0 01-.586 1.414l-2.586 2.586" />
  <path d="m16 16 4 4" />
  <path d="m19 21 2-2" />
  <path d="m5 14 4 4" />
  <path d="m5 21-2-2" />
  <path d="M7.5 16.5 4 20" />
</svg><text x="72" y="111" text-anchor="middle" fill="#F4F0E8" font-family="Arial,sans-serif" font-size="14" font-weight="700">SPLIT</text><text x="72" y="130" text-anchor="middle" fill="#F4F0E8" font-family="Arial,sans-serif" font-size="14" font-weight="700">COMMITS</text></svg></g><g transform="translate(22,232)"><svg xmlns="http://www.w3.org/2000/svg" width="144" height="144" viewBox="0 0 144 144"><defs><linearGradient id="bg9f957f9898" x2=".7" y2="1"><stop stop-color="#28313D"/><stop offset="1" stop-color="#131B25"/></linearGradient><radialGradient id="light9f957f9898"><stop stop-color="#B6CC92" stop-opacity=".18"/><stop offset="1" stop-color="#B6CC92" stop-opacity="0"/></radialGradient></defs><rect x="2" y="2" width="140" height="140" rx="19" fill="url(#bg9f957f9898)"/><g fill="none" stroke="#B6CC92" stroke-opacity=".45" stroke-width="1.2"><rect x="3.5" y="3.5" width="137" height="137" rx="18"/></g><circle cx="72" cy="62" r="57" fill="url(#light9f957f9898)"/><path d="M57 12h30" stroke="#B6CC92" stroke-width="3" stroke-linecap="round"/><g fill="#B6CC92" opacity=".85"></g><svg x="42.0" y="28" width="60" height="60" viewBox="0 0 24 24" fill="none" stroke="#F4F0E8" stroke-width="1.65" stroke-linecap="round" stroke-linejoin="round">
  <path d="m13 19 6-6" />
  <path d="M14.5 17.5 3.586 6.586A2 2 0 013 5.172V3h2.172a2 2 0 011.414.586L17.5 14.5" />
  <path d="m14.828 6.172 2.586-2.586A2 2 0 0118.828 3H21v2.172a2 2 0 01-.586 1.414l-2.586 2.586" />
  <path d="m16 16 4 4" />
  <path d="m19 21 2-2" />
  <path d="m5 14 4 4" />
  <path d="m5 21-2-2" />
  <path d="M7.5 16.5 4 20" />
</svg><text x="72" y="111" text-anchor="middle" fill="#F4F0E8" font-family="Arial,sans-serif" font-size="14" font-weight="700">ANSWER</text><text x="72" y="130" text-anchor="middle" fill="#F4F0E8" font-family="Arial,sans-serif" font-size="14" font-weight="700">REVIEW</text></svg></g><g transform="translate(178,232)"><svg xmlns="http://www.w3.org/2000/svg" width="144" height="144" viewBox="0 0 144 144"><defs><linearGradient id="bg78fa724d4c" x2=".7" y2="1"><stop stop-color="#28313D"/><stop offset="1" stop-color="#131B25"/></linearGradient><radialGradient id="light78fa724d4c"><stop stop-color="#B6CC92" stop-opacity=".18"/><stop offset="1" stop-color="#B6CC92" stop-opacity="0"/></radialGradient></defs><rect x="2" y="2" width="140" height="140" rx="19" fill="url(#bg78fa724d4c)"/><g fill="none" stroke="#B6CC92" stroke-opacity=".45" stroke-width="1.2"><rect x="3.5" y="3.5" width="137" height="137" rx="18"/></g><circle cx="72" cy="62" r="57" fill="url(#light78fa724d4c)"/><path d="M57 12h30" stroke="#B6CC92" stroke-width="3" stroke-linecap="round"/><g fill="#B6CC92" opacity=".85"></g><svg x="42.0" y="28" width="60" height="60" viewBox="0 0 24 24" fill="none" stroke="#F4F0E8" stroke-width="1.65" stroke-linecap="round" stroke-linejoin="round">
  <path d="M14.086 18.412A2 2 0 0112.67 19H5v-7.672a2 2 0 01.586-1.414L11.75 3.75a6 6 0 118.49 8.49z" />
  <path d="M16 8 2 22" />
  <path d="M17.488 15H9" />
</svg><text x="72" y="111" text-anchor="middle" fill="#F4F0E8" font-family="Arial,sans-serif" font-size="14" font-weight="700">WRITE</text><text x="72" y="130" text-anchor="middle" fill="#F4F0E8" font-family="Arial,sans-serif" font-size="14" font-weight="700">CHANGELOG</text></svg></g><g transform="translate(334,232)"><svg xmlns="http://www.w3.org/2000/svg" width="144" height="144" viewBox="0 0 144 144"><defs><linearGradient id="bgef258a1e03" x2=".7" y2="1"><stop stop-color="#28313D"/><stop offset="1" stop-color="#131B25"/></linearGradient><radialGradient id="lightef258a1e03"><stop stop-color="#B6CC92" stop-opacity=".18"/><stop offset="1" stop-color="#B6CC92" stop-opacity="0"/></radialGradient></defs><rect x="2" y="2" width="140" height="140" rx="19" fill="url(#bgef258a1e03)"/><g fill="none" stroke="#B6CC92" stroke-opacity=".45" stroke-width="1.2"><rect x="3.5" y="3.5" width="137" height="137" rx="18"/></g><circle cx="72" cy="62" r="57" fill="url(#lightef258a1e03)"/><path d="M57 12h30" stroke="#B6CC92" stroke-width="3" stroke-linecap="round"/><g fill="#B6CC92" opacity=".85"></g><svg x="42.0" y="28" width="60" height="60" viewBox="0 0 24 24" fill="none" stroke="#F4F0E8" stroke-width="1.65" stroke-linecap="round" stroke-linejoin="round">
  <circle cx="5" cy="6" r="3" />
  <path d="M12 6h5a2 2 0 0 1 2 2v7" />
  <path d="m15 9-3-3 3-3" />
  <circle cx="19" cy="18" r="3" />
  <path d="M12 18H7a2 2 0 0 1-2-2V9" />
  <path d="m9 15 3 3-3 3" />
</svg><text x="72" y="111" text-anchor="middle" fill="#F4F0E8" font-family="Arial,sans-serif" font-size="14" font-weight="700">REBASE</text><text x="72" y="130" text-anchor="middle" fill="#F4F0E8" font-family="Arial,sans-serif" font-size="14" font-weight="700">PLAN</text></svg></g><g transform="translate(490,232)"><svg xmlns="http://www.w3.org/2000/svg" width="144" height="144" viewBox="0 0 144 144"><defs><linearGradient id="bg78fa724d4c" x2=".7" y2="1"><stop stop-color="#28313D"/><stop offset="1" stop-color="#131B25"/></linearGradient><radialGradient id="light78fa724d4c"><stop stop-color="#B6CC92" stop-opacity=".18"/><stop offset="1" stop-color="#B6CC92" stop-opacity="0"/></radialGradient></defs><rect x="2" y="2" width="140" height="140" rx="19" fill="url(#bg78fa724d4c)"/><g fill="none" stroke="#B6CC92" stroke-opacity=".45" stroke-width="1.2"><rect x="3.5" y="3.5" width="137" height="137" rx="18"/></g><circle cx="72" cy="62" r="57" fill="url(#light78fa724d4c)"/><path d="M57 12h30" stroke="#B6CC92" stroke-width="3" stroke-linecap="round"/><g fill="#B6CC92" opacity=".85"></g><svg x="42.0" y="28" width="60" height="60" viewBox="0 0 24 24" fill="none" stroke="#F4F0E8" stroke-width="1.65" stroke-linecap="round" stroke-linejoin="round">
  <path d="M14.086 18.412A2 2 0 0112.67 19H5v-7.672a2 2 0 01.586-1.414L11.75 3.75a6 6 0 118.49 8.49z" />
  <path d="M16 8 2 22" />
  <path d="M17.488 15H9" />
</svg><text x="72" y="111" text-anchor="middle" fill="#F4F0E8" font-family="Arial,sans-serif" font-size="14" font-weight="700">ISSUE</text><text x="72" y="130" text-anchor="middle" fill="#F4F0E8" font-family="Arial,sans-serif" font-size="14" font-weight="700">REPORT</text></svg></g><g transform="translate(646,232)"><svg xmlns="http://www.w3.org/2000/svg" width="144" height="144" viewBox="0 0 144 144"><defs><linearGradient id="bg78fa724d4c" x2=".7" y2="1"><stop stop-color="#28313D"/><stop offset="1" stop-color="#131B25"/></linearGradient><radialGradient id="light78fa724d4c"><stop stop-color="#B6CC92" stop-opacity=".18"/><stop offset="1" stop-color="#B6CC92" stop-opacity="0"/></radialGradient></defs><rect x="2" y="2" width="140" height="140" rx="19" fill="url(#bg78fa724d4c)"/><g fill="none" stroke="#B6CC92" stroke-opacity=".45" stroke-width="1.2"><rect x="3.5" y="3.5" width="137" height="137" rx="18"/></g><circle cx="72" cy="62" r="57" fill="url(#light78fa724d4c)"/><path d="M57 12h30" stroke="#B6CC92" stroke-width="3" stroke-linecap="round"/><g fill="#B6CC92" opacity=".85"></g><svg x="42.0" y="28" width="60" height="60" viewBox="0 0 24 24" fill="none" stroke="#F4F0E8" stroke-width="1.65" stroke-linecap="round" stroke-linejoin="round">
  <path d="M14.086 18.412A2 2 0 0112.67 19H5v-7.672a2 2 0 01.586-1.414L11.75 3.75a6 6 0 118.49 8.49z" />
  <path d="M16 8 2 22" />
  <path d="M17.488 15H9" />
</svg><text x="72" y="111" text-anchor="middle" fill="#F4F0E8" font-family="Arial,sans-serif" font-size="14" font-weight="700">RELEASE</text><text x="72" y="130" text-anchor="middle" fill="#F4F0E8" font-family="Arial,sans-serif" font-size="14" font-weight="700">NOTES</text></svg></g><text x="24" y="552" fill="#A4B1C2" font-family="Arial,sans-serif" font-size="11">Layout guide. Text buttons paste; links open in your default browser; shortcuts act on the focused app.</text></svg>