<svg xmlns="http://www.w3.org/2000/svg" width="812" height="564" viewBox="0 0 812 564"><rect width="812" height="564" rx="24" fill="#0E151E"/><text x="24" y="43" fill="#F4F0E8" font-family="Arial,sans-serif" font-size="25" font-weight="700">Code Workflow / Explain &amp; Learn</text><g transform="translate(22,76)"><svg xmlns="http://www.w3.org/2000/svg" width="144" height="144" viewBox="0 0 144 144"><defs><linearGradient id="bgc53e002e18" x2=".7" y2="1"><stop stop-color="#28313D"/><stop offset="1" stop-color="#131B25"/></linearGradient><radialGradient id="lightc53e002e18"><stop stop-color="#9FAEF5" stop-opacity=".18"/><stop offset="1" stop-color="#9FAEF5" stop-opacity="0"/></radialGradient></defs><rect x="2" y="2" width="140" height="140" rx="19" fill="url(#bgc53e002e18)"/><g fill="none" stroke="#9FAEF5" stroke-opacity=".45" stroke-width="1.2"><rect x="3.5" y="3.5" width="137" height="137" rx="18"/></g><circle cx="72" cy="62" r="57" fill="url(#lightc53e002e18)"/><path d="M57 12h30" stroke="#9FAEF5" stroke-width="3" stroke-linecap="round"/><g fill="#9FAEF5" opacity=".85"></g><svg x="42.0" y="28" width="60" height="60" viewBox="0 0 24 24" fill="none" stroke="#F4F0E8" stroke-width="1.65" stroke-linecap="round" stroke-linejoin="round"><path d="m10 5-7 7 7 7M3 12h18"/></svg><text x="72" y="121" text-anchor="middle" fill="#F4F0E8" font-family="Arial,sans-serif" font-size="14" font-weight="700">BACK</text></svg></g><g transform="translate(178,76)"><svg xmlns="http://www.w3.org/2000/svg" width="144" height="144" viewBox="0 0 144 144"><defs><linearGradient id="bg7baf4c6dd8" x2=".7" y2="1"><stop stop-color="#28313D"/><stop offset="1" stop-color="#131B25"/></linearGradient><radialGradient id="light7baf4c6dd8"><stop stop-color="#9FAEF5" stop-opacity=".18"/><stop offset="1" stop-color="#9FAEF5" stop-opacity="0"/></radialGradient></defs><rect x="2" y="2" width="140" height="140" rx="19" fill="url(#bg7baf4c6dd8)"/><g fill="none" stroke="#9FAEF5" stroke-opacity=".45" stroke-width="1.2"><rect x="3.5" y="3.5" width="137" height="137" rx="18"/></g><circle cx="72" cy="62" r="57" fill="url(#light7baf4c6dd8)"/><path d="M57 12h30" stroke="#9FAEF5" stroke-width="3" stroke-linecap="round"/><g fill="#9FAEF5" opacity=".85"></g><svg x="42.0" y="28" width="60" height="60" viewBox="0 0 24 24" fill="none" stroke="#F4F0E8" stroke-width="1.65" stroke-linecap="round" stroke-linejoin="round">
  <path d="M12 5v16" />
  <path d="M20.001 19A2 2 0 0022 17V5a2 2 0 00-1.999-2L16 3.002A5 5 0 0012 5a5 5 0 00-4-2H4a2 2 0 00-2 2v12a2 2 0 001.999 2H8a5 5 0 014 2 5 5 0 014-2z" />
</svg><text x="72" y="111" text-anchor="middle" fill="#F4F0E8" font-family="Arial,sans-serif" font-size="14" font-weight="700">EXPLAIN</text><text x="72" y="130" text-anchor="middle" fill="#F4F0E8" font-family="Arial,sans-serif" font-size="14" font-weight="700">CODE</text></svg></g><g transform="translate(334,76)"><svg xmlns="http://www.w3.org/2000/svg" width="144" height="144" viewBox="0 0 144 144"><defs><linearGradient id="bgc744bd5d7d" x2=".7" y2="1"><stop stop-color="#28313D"/><stop offset="1" stop-color="#131B25"/></linearGradient><radialGradient id="lightc744bd5d7d"><stop stop-color="#9FAEF5" stop-opacity=".18"/><stop offset="1" stop-color="#9FAEF5" stop-opacity="0"/></radialGradient></defs><rect x="2" y="2" width="140" height="140" rx="19" fill="url(#bgc744bd5d7d)"/><g fill="none" stroke="#9FAEF5" stroke-opacity=".45" stroke-width="1.2"><rect x="3.5" y="3.5" width="137" height="137" rx="18"/></g><circle cx="72" cy="62" r="57" fill="url(#lightc744bd5d7d)"/><path d="M57 12h30" stroke="#9FAEF5" stroke-width="3" stroke-linecap="round"/><g fill="#9FAEF5" opacity=".85"></g><svg x="42.0" y="28" width="60" height="60" viewBox="0 0 24 24" fill="none" stroke="#F4F0E8" stroke-width="1.65" stroke-linecap="round" stroke-linejoin="round">
  <path d="M12 20v-9" />
  <path d="M14 7a4 4 0 0 1 4 4v3a6 6 0 0 1-12 0v-3a4 4 0 0 1 4-4z" />
  <path d="M14.12 3.88 16 2" />
  <path d="M21 21a4 4 0 0 0-3.81-4" />
  <path d="M21 5a4 4 0 0 1-3.55 3.97" />
  <path d="M22 13h-4" />
  <path d="M3 21a4 4 0 0 1 3.81-4" />
  <path d="M3 5a4 4 0 0 0 3.55 3.97" />
  <path d="M6 13H2" />
  <path d="m8 2 1.88 1.88" />
  <path d="M9 7.13V6a3 3 0 1 1 6 0v1.13" />
</svg><text x="72" y="111" text-anchor="middle" fill="#F4F0E8" font-family="Arial,sans-serif" font-size="14" font-weight="700">EXPLAIN</text><text x="72" y="130" text-anchor="middle" fill="#F4F0E8" font-family="Arial,sans-serif" font-size="14" font-weight="700">ERROR</text></svg></g><g transform="translate(490,76)"><svg xmlns="http://www.w3.org/2000/svg" width="144" height="144" viewBox="0 0 144 144"><defs><linearGradient id="bgb7deb2e621" x2=".7" y2="1"><stop stop-color="#28313D"/><stop offset="1" stop-color="#131B25"/></linearGradient><radialGradient id="lightb7deb2e621"><stop stop-color="#9FAEF5" stop-opacity=".18"/><stop offset="1" stop-color="#9FAEF5" stop-opacity="0"/></radialGradient></defs><rect x="2" y="2" width="140" height="140" rx="19" fill="url(#bgb7deb2e621)"/><g fill="none" stroke="#9FAEF5" stroke-opacity=".45" stroke-width="1.2"><rect x="3.5" y="3.5" width="137" height="137" rx="18"/></g><circle cx="72" cy="62" r="57" fill="url(#lightb7deb2e621)"/><path d="M57 12h30" stroke="#9FAEF5" stroke-width="3" stroke-linecap="round"/><g fill="#9FAEF5" opacity=".85"></g><svg x="42.0" y="28" width="60" height="60" viewBox="0 0 24 24" fill="none" stroke="#F4F0E8" stroke-width="1.65" stroke-linecap="round" stroke-linejoin="round">
  <path d="m15 12-9.373 9.373a1 1 0 0 1-3.001-3L12 9" />
  <path d="m18 15 4-4" />
  <path d="m21.5 11.5-1.914-1.914A2 2 0 0 1 19 8.172v-.344a2 2 0 0 0-.586-1.414l-1.657-1.657A6 6 0 0 0 12.516 3H9l1.243 1.243A6 6 0 0 1 12 8.485V10l2 2h1.172a2 2 0 0 1 1.414.586L18.5 14.5" />
</svg><text x="72" y="111" text-anchor="middle" fill="#F4F0E8" font-family="Arial,sans-serif" font-size="14" font-weight="700">TEACH</text><text x="72" y="130" text-anchor="middle" fill="#F4F0E8" font-family="Arial,sans-serif" font-size="14" font-weight="700">PATTERN</text></svg></g><g transform="translate(646,76)"><svg xmlns="http://www.w3.org/2000/svg" width="144" height="144" viewBox="0 0 144 144"><defs><linearGradient id="bgf8d746578a" x2=".7" y2="1"><stop stop-color="#28313D"/><stop offset="1" stop-color="#131B25"/></linearGradient><radialGradient id="lightf8d746578a"><stop stop-color="#9FAEF5" stop-opacity=".18"/><stop offset="1" stop-color="#9FAEF5" stop-opacity="0"/></radialGradient></defs><rect x="2" y="2" width="140" height="140" rx="19" fill="url(#bgf8d746578a)"/><g fill="none" stroke="#9FAEF5" stroke-opacity=".45" stroke-width="1.2"><rect x="3.5" y="3.5" width="137" height="137" rx="18"/></g><circle cx="72" cy="62" r="57" fill="url(#lightf8d746578a)"/><path d="M57 12h30" stroke="#9FAEF5" stroke-width="3" stroke-linecap="round"/><g fill="#9FAEF5" opacity=".85"></g><svg x="42.0" y="28" width="60" height="60" viewBox="0 0 24 24" fill="none" stroke="#F4F0E8" stroke-width="1.65" stroke-linecap="round" stroke-linejoin="round">
  <path d="M12 3v18" />
  <path d="m19 8 3 8a5 5 0 0 1-6 0zV7" />
  <path d="M3 7h1a17 17 0 0 0 8-2 17 17 0 0 0 8 2h1" />
  <path d="m5 8 3 8a5 5 0 0 1-6 0zV7" />
  <path d="M7 21h10" />
</svg><text x="72" y="111" text-anchor="middle" fill="#F4F0E8" font-family="Arial,sans-serif" font-size="14" font-weight="700">COMPARE</text><text x="72" y="130" text-anchor="middle" fill="#F4F0E8" font-family="Arial,sans-serif" font-size="14" font-weight="700">LIBRARIES</text></svg></g><g transform="translate(22,232)"><svg xmlns="http://www.w3.org/2000/svg" width="144" height="144" viewBox="0 0 144 144"><defs><linearGradient id="bg7baf4c6dd8" x2=".7" y2="1"><stop stop-color="#28313D"/><stop offset="1" stop-color="#131B25"/></linearGradient><radialGradient id="light7baf4c6dd8"><stop stop-color="#9FAEF5" stop-opacity=".18"/><stop offset="1" stop-color="#9FAEF5" stop-opacity="0"/></radialGradient></defs><rect x="2" y="2" width="140" height="140" rx="19" fill="url(#bg7baf4c6dd8)"/><g fill="none" stroke="#9FAEF5" stroke-opacity=".45" stroke-width="1.2"><rect x="3.5" y="3.5" width="137" height="137" rx="18"/></g><circle cx="72" cy="62" r="57" fill="url(#light7baf4c6dd8)"/><path d="M57 12h30" stroke="#9FAEF5" stroke-width="3" stroke-linecap="round"/><g fill="#9FAEF5" opacity=".85"></g><svg x="42.0" y="28" width="60" height="60" viewBox="0 0 24 24" fill="none" stroke="#F4F0E8" stroke-width="1.65" stroke-linecap="round" stroke-linejoin="round">
  <path d="M12 5v16" />
  <path d="M20.001 19A2 2 0 0022 17V5a2 2 0 00-1.999-2L16 3.002A5 5 0 0012 5a5 5 0 00-4-2H4a2 2 0 00-2 2v12a2 2 0 001.999 2H8a5 5 0 014 2 5 5 0 014-2z" />
</svg><text x="72" y="111" text-anchor="middle" fill="#F4F0E8" font-family="Arial,sans-serif" font-size="14" font-weight="700">SHOW</text><text x="72" y="130" text-anchor="middle" fill="#F4F0E8" font-family="Arial,sans-serif" font-size="14" font-weight="700">IDIOMATIC</text></svg></g><g transform="translate(178,232)"><svg xmlns="http://www.w3.org/2000/svg" width="144" height="144" viewBox="0 0 144 144"><defs><linearGradient id="bg7baf4c6dd8" x2=".7" y2="1"><stop stop-color="#28313D"/><stop offset="1" stop-color="#131B25"/></linearGradient><radialGradient id="light7baf4c6dd8"><stop stop-color="#9FAEF5" stop-opacity=".18"/><stop offset="1" stop-color="#9FAEF5" stop-opacity="0"/></radialGradient></defs><rect x="2" y="2" width="140" height="140" rx="19" fill="url(#bg7baf4c6dd8)"/><g fill="none" stroke="#9FAEF5" stroke-opacity=".45" stroke-width="1.2"><rect x="3.5" y="3.5" width="137" height="137" rx="18"/></g><circle cx="72" cy="62" r="57" fill="url(#light7baf4c6dd8)"/><path d="M57 12h30" stroke="#9FAEF5" stroke-width="3" stroke-linecap="round"/><g fill="#9FAEF5" opacity=".85"></g><svg x="42.0" y="28" width="60" height="60" viewBox="0 0 24 24" fill="none" stroke="#F4F0E8" stroke-width="1.65" stroke-linecap="round" stroke-linejoin="round">
  <path d="M12 5v16" />
  <path d="M20.001 19A2 2 0 0022 17V5a2 2 0 00-1.999-2L16 3.002A5 5 0 0012 5a5 5 0 00-4-2H4a2 2 0 00-2 2v12a2 2 0 001.999 2H8a5 5 0 014 2 5 5 0 014-2z" />
</svg><text x="72" y="111" text-anchor="middle" fill="#F4F0E8" font-family="Arial,sans-serif" font-size="14" font-weight="700">USEFUL</text><text x="72" y="130" text-anchor="middle" fill="#F4F0E8" font-family="Arial,sans-serif" font-size="14" font-weight="700">COMMENTS</text></svg></g><g transform="translate(334,232)"><svg xmlns="http://www.w3.org/2000/svg" width="144" height="144" viewBox="0 0 144 144"><defs><linearGradient id="bga83dc08558" x2=".7" y2="1"><stop stop-color="#28313D"/><stop offset="1" stop-color="#131B25"/></linearGradient><radialGradient id="lighta83dc08558"><stop stop-color="#9FAEF5" stop-opacity=".18"/><stop offset="1" stop-color="#9FAEF5" stop-opacity="0"/></radialGradient></defs><rect x="2" y="2" width="140" height="140" rx="19" fill="url(#bga83dc08558)"/><g fill="none" stroke="#9FAEF5" stroke-opacity=".45" stroke-width="1.2"><rect x="3.5" y="3.5" width="137" height="137" rx="18"/></g><circle cx="72" cy="62" r="57" fill="url(#lighta83dc08558)"/><path d="M57 12h30" stroke="#9FAEF5" stroke-width="3" stroke-linecap="round"/><g fill="#9FAEF5" opacity=".85"></g><svg x="42.0" y="28" width="60" height="60" viewBox="0 0 24 24" fill="none" stroke="#F4F0E8" stroke-width="1.65" stroke-linecap="round" stroke-linejoin="round">
  <path d="M14.106 5.553a2 2 0 0 0 1.788 0l3.659-1.83A1 1 0 0 1 21 4.619v12.764a1 1 0 0 1-.553.894l-4.553 2.277a2 2 0 0 1-1.788 0l-4.212-2.106a2 2 0 0 0-1.788 0l-3.659 1.83A1 1 0 0 1 3 19.381V6.618a1 1 0 0 1 .553-.894l4.553-2.277a2 2 0 0 1 1.788 0z" />
  <path d="M15 5.764v15" />
  <path d="M9 3.236v15" />
</svg><text x="72" y="111" text-anchor="middle" fill="#F4F0E8" font-family="Arial,sans-serif" font-size="14" font-weight="700">EXPLAIN</text><text x="72" y="130" text-anchor="middle" fill="#F4F0E8" font-family="Arial,sans-serif" font-size="14" font-weight="700">FRAMEWORK</text></svg></g><g transform="translate(490,232)"><svg xmlns="http://www.w3.org/2000/svg" width="144" height="144" viewBox="0 0 144 144"><defs><linearGradient id="bg383e0daf91" x2=".7" y2="1"><stop stop-color="#28313D"/><stop offset="1" stop-color="#131B25"/></linearGradient><radialGradient id="light383e0daf91"><stop stop-color="#9FAEF5" stop-opacity=".18"/><stop offset="1" stop-color="#9FAEF5" stop-opacity="0"/></radialGradient></defs><rect x="2" y="2" width="140" height="140" rx="19" fill="url(#bg383e0daf91)"/><g fill="none" stroke="#9FAEF5" stroke-opacity=".45" stroke-width="1.2"><rect x="3.5" y="3.5" width="137" height="137" rx="18"/></g><circle cx="72" cy="62" r="57" fill="url(#light383e0daf91)"/><path d="M57 12h30" stroke="#9FAEF5" stroke-width="3" stroke-linecap="round"/><g fill="#9FAEF5" opacity=".85"></g><svg x="42.0" y="28" width="60" height="60" viewBox="0 0 24 24" fill="none" stroke="#F4F0E8" stroke-width="1.65" stroke-linecap="round" stroke-linejoin="round">
  <path d="M14.086 18.412A2 2 0 0112.67 19H5v-7.672a2 2 0 01.586-1.414L11.75 3.75a6 6 0 118.49 8.49z" />
  <path d="M16 8 2 22" />
  <path d="M17.488 15H9" />
</svg><text x="72" y="111" text-anchor="middle" fill="#F4F0E8" font-family="Arial,sans-serif" font-size="14" font-weight="700">WRITE</text><text x="72" y="130" text-anchor="middle" fill="#F4F0E8" font-family="Arial,sans-serif" font-size="14" font-weight="700">REPORT</text></svg></g><g transform="translate(646,232)"><svg xmlns="http://www.w3.org/2000/svg" width="144" height="144" viewBox="0 0 144 144"><defs><linearGradient id="bg8ef0328170" x2=".7" y2="1"><stop stop-color="#28313D"/><stop offset="1" stop-color="#131B25"/></linearGradient><radialGradient id="light8ef0328170"><stop stop-color="#9FAEF5" stop-opacity=".18"/><stop offset="1" stop-color="#9FAEF5" stop-opacity="0"/></radialGradient></defs><rect x="2" y="2" width="140" height="140" rx="19" fill="url(#bg8ef0328170)"/><g fill="none" stroke="#9FAEF5" stroke-opacity=".45" stroke-width="1.2"><rect x="3.5" y="3.5" width="137" height="137" rx="18"/></g><circle cx="72" cy="62" r="57" fill="url(#light8ef0328170)"/><path d="M57 12h30" stroke="#9FAEF5" stroke-width="3" stroke-linecap="round"/><g fill="#9FAEF5" opacity=".85"></g><svg x="42.0" y="28" width="60" height="60" viewBox="0 0 24 24" fill="none" stroke="#F4F0E8" stroke-width="1.65" stroke-linecap="round" stroke-linejoin="round">
  <path d="M13.4 2H6a2 2 0 0 0-2 2v16a2 2 0 0 0 2 2h12a2 2 0 0 0 2-2v-7.4" />
  <path d="M2 6h4" />
  <path d="M2 10h4" />
  <path d="M2 14h4" />
  <path d="M2 18h4" />
  <path d="M21.378 5.626a1 1 0 1 0-3.004-3.004l-5.01 5.012a2 2 0 0 0-.506.854l-.837 2.87a.5.5 0 0 0 .62.62l2.87-.837a2 2 0 0 0 .854-.506z" />
</svg><text x="72" y="111" text-anchor="middle" fill="#F4F0E8" font-family="Arial,sans-serif" font-size="14" font-weight="700">DECISION</text><text x="72" y="130" text-anchor="middle" fill="#F4F0E8" font-family="Arial,sans-serif" font-size="14" font-weight="700">RECORD</text></svg></g><text x="24" y="552" fill="#A4B1C2" font-family="Arial,sans-serif" font-size="11">Layout guide. Text buttons paste; links open in your default browser; shortcuts act on the focused app.</text></svg>