<svg xmlns="http://www.w3.org/2000/svg" width="900" height="850" viewBox="0 0 900 850"><rect width="900" height="850" rx="28" fill="#0E151E"/><text x="36" y="48" fill="#F4F0E8" font-family="Arial,sans-serif" font-size="25" font-weight="700">Code Ring / Build &amp; Fix</text><circle cx="450" cy="425" r="278" fill="none" stroke="#293646"/><circle cx="450" cy="425" r="102" fill="#18232F" stroke="#435163"/><text x="450" y="418" text-anchor="middle" fill="#E5B879" font-family="Arial,sans-serif" font-size="14" letter-spacing="2">ACTIONS RING</text><text x="450" y="447" text-anchor="middle" fill="#F4F0E8" font-family="Arial,sans-serif" font-size="21">Native navigation</text><g transform="translate(396.00,101.00)"><svg width="108" height="108" viewBox="0 0 144 144"><svg xmlns="http://www.w3.org/2000/svg" width="144" height="144" viewBox="0 0 144 144"><defs><linearGradient id="bgeb8476b1af" x2=".7" y2="1"><stop stop-color="#28313D"/><stop offset="1" stop-color="#131B25"/></linearGradient><radialGradient id="lighteb8476b1af"><stop stop-color="#7DCEC2" stop-opacity=".18"/><stop offset="1" stop-color="#7DCEC2" stop-opacity="0"/></radialGradient></defs><circle cx="72" cy="72" r="69" fill="url(#bgeb8476b1af)"/><g fill="none" stroke="#7DCEC2" stroke-opacity=".45" stroke-width="1.2"><circle cx="72" cy="72" r="67.5"/></g><circle cx="72" cy="62" r="57" fill="url(#lighteb8476b1af)"/><path d="M57 12h30" stroke="#7DCEC2" stroke-width="3" stroke-linecap="round"/><g fill="#7DCEC2" opacity=".85"></g><svg x="39.0" y="39" width="66" height="66" viewBox="0 0 24 24" fill="none" stroke="#F4F0E8" stroke-width="1.65" stroke-linecap="round" stroke-linejoin="round">
  <path d="m15 12-9.373 9.373a1 1 0 0 1-3.001-3L12 9" />
  <path d="m18 15 4-4" />
  <path d="m21.5 11.5-1.914-1.914A2 2 0 0 1 19 8.172v-.344a2 2 0 0 0-.586-1.414l-1.657-1.657A6 6 0 0 0 12.516 3H9l1.243 1.243A6 6 0 0 1 12 8.485V10l2 2h1.172a2 2 0 0 1 1.414.586L18.5 14.5" />
</svg></svg></svg></g><text x="450.00" y="227.00" text-anchor="middle" fill="#F4F0E8" font-family="Arial,sans-serif" font-size="16" font-weight="600">Implement Phase</text><g transform="translate(569.55,164.17)"><svg width="108" height="108" viewBox="0 0 144 144"><svg xmlns="http://www.w3.org/2000/svg" width="144" height="144" viewBox="0 0 144 144"><defs><linearGradient id="bgbe1fa0e40f" x2=".7" y2="1"><stop stop-color="#28313D"/><stop offset="1" stop-color="#131B25"/></linearGradient><radialGradient id="lightbe1fa0e40f"><stop stop-color="#7DCEC2" stop-opacity=".18"/><stop offset="1" stop-color="#7DCEC2" stop-opacity="0"/></radialGradient></defs><circle cx="72" cy="72" r="69" fill="url(#bgbe1fa0e40f)"/><g fill="none" stroke="#7DCEC2" stroke-opacity=".45" stroke-width="1.2"><circle cx="72" cy="72" r="67.5"/></g><circle cx="72" cy="62" r="57" fill="url(#lightbe1fa0e40f)"/><path d="M57 12h30" stroke="#7DCEC2" stroke-width="3" stroke-linecap="round"/><g fill="#7DCEC2" opacity=".85"></g><svg x="39.0" y="39" width="66" height="66" viewBox="0 0 24 24" fill="none" stroke="#F4F0E8" stroke-width="1.65" stroke-linecap="round" stroke-linejoin="round">
  <path d="M11.017 2.814a1 1 0 0 1 1.966 0l1.051 5.558a2 2 0 0 0 1.594 1.594l5.558 1.051a1 1 0 0 1 0 1.966l-5.558 1.051a2 2 0 0 0-1.594 1.594l-1.051 5.558a1 1 0 0 1-1.966 0l-1.051-5.558a2 2 0 0 0-1.594-1.594l-5.558-1.051a1 1 0 0 1 0-1.966l5.558-1.051a2 2 0 0 0 1.594-1.594z" />
  <path d="M20 2v4" />
  <path d="M22 4h-4" />
  <circle cx="4" cy="20" r="2" />
</svg></svg></svg></g><text x="623.55" y="290.17" text-anchor="middle" fill="#F4F0E8" font-family="Arial,sans-serif" font-size="16" font-weight="600">Mark Todo</text><g transform="translate(661.90,324.11)"><svg width="108" height="108" viewBox="0 0 144 144"><svg xmlns="http://www.w3.org/2000/svg" width="144" height="144" viewBox="0 0 144 144"><defs><linearGradient id="bgc094a914d0" x2=".7" y2="1"><stop stop-color="#28313D"/><stop offset="1" stop-color="#131B25"/></linearGradient><radialGradient id="lightc094a914d0"><stop stop-color="#7DCEC2" stop-opacity=".18"/><stop offset="1" stop-color="#7DCEC2" stop-opacity="0"/></radialGradient></defs><circle cx="72" cy="72" r="69" fill="url(#bgc094a914d0)"/><g fill="none" stroke="#7DCEC2" stroke-opacity=".45" stroke-width="1.2"><circle cx="72" cy="72" r="67.5"/></g><circle cx="72" cy="62" r="57" fill="url(#lightc094a914d0)"/><path d="M57 12h30" stroke="#7DCEC2" stroke-width="3" stroke-linecap="round"/><g fill="#7DCEC2" opacity=".85"></g><svg x="39.0" y="39" width="66" height="66" viewBox="0 0 24 24" fill="none" stroke="#F4F0E8" stroke-width="1.65" stroke-linecap="round" stroke-linejoin="round">
  <path d="M14 2v6a2 2 0 0 0 .245.96l5.51 10.08A2 2 0 0 1 18 22H6a2 2 0 0 1-1.755-2.96l5.51-10.08A2 2 0 0 0 10 8V2" />
  <path d="M6.453 15h11.094" />
  <path d="M8.5 2h7" />
</svg></svg></svg></g><text x="715.90" y="450.11" text-anchor="middle" fill="#F4F0E8" font-family="Arial,sans-serif" font-size="16" font-weight="600">Isolated Probe</text><g transform="translate(629.83,506.00)"><svg width="108" height="108" viewBox="0 0 144 144"><svg xmlns="http://www.w3.org/2000/svg" width="144" height="144" viewBox="0 0 144 144"><defs><linearGradient id="bgb261ac1c67" x2=".7" y2="1"><stop stop-color="#28313D"/><stop offset="1" stop-color="#131B25"/></linearGradient><radialGradient id="lightb261ac1c67"><stop stop-color="#7DCEC2" stop-opacity=".18"/><stop offset="1" stop-color="#7DCEC2" stop-opacity="0"/></radialGradient></defs><circle cx="72" cy="72" r="69" fill="url(#bgb261ac1c67)"/><g fill="none" stroke="#7DCEC2" stroke-opacity=".45" stroke-width="1.2"><circle cx="72" cy="72" r="67.5"/></g><circle cx="72" cy="62" r="57" fill="url(#lightb261ac1c67)"/><path d="M57 12h30" stroke="#7DCEC2" stroke-width="3" stroke-linecap="round"/><g fill="#7DCEC2" opacity=".85"></g><svg x="39.0" y="39" width="66" height="66" viewBox="0 0 24 24" fill="none" stroke="#F4F0E8" stroke-width="1.65" stroke-linecap="round" stroke-linejoin="round">
  <path d="M12 20v-9" />
  <path d="M14 7a4 4 0 0 1 4 4v3a6 6 0 0 1-12 0v-3a4 4 0 0 1 4-4z" />
  <path d="M14.12 3.88 16 2" />
  <path d="M21 21a4 4 0 0 0-3.81-4" />
  <path d="M21 5a4 4 0 0 1-3.55 3.97" />
  <path d="M22 13h-4" />
  <path d="M3 21a4 4 0 0 1 3.81-4" />
  <path d="M3 5a4 4 0 0 0 3.55 3.97" />
  <path d="M6 13H2" />
  <path d="m8 2 1.88 1.88" />
  <path d="M9 7.13V6a3 3 0 1 1 6 0v1.13" />
</svg></svg></svg></g><text x="683.83" y="632.00" text-anchor="middle" fill="#F4F0E8" font-family="Arial,sans-serif" font-size="16" font-weight="600">Fix Error</text><g transform="translate(488.35,624.72)"><svg width="108" height="108" viewBox="0 0 144 144"><svg xmlns="http://www.w3.org/2000/svg" width="144" height="144" viewBox="0 0 144 144"><defs><linearGradient id="bgeb8476b1af" x2=".7" y2="1"><stop stop-color="#28313D"/><stop offset="1" stop-color="#131B25"/></linearGradient><radialGradient id="lighteb8476b1af"><stop stop-color="#7DCEC2" stop-opacity=".18"/><stop offset="1" stop-color="#7DCEC2" stop-opacity="0"/></radialGradient></defs><circle cx="72" cy="72" r="69" fill="url(#bgeb8476b1af)"/><g fill="none" stroke="#7DCEC2" stroke-opacity=".45" stroke-width="1.2"><circle cx="72" cy="72" r="67.5"/></g><circle cx="72" cy="62" r="57" fill="url(#lighteb8476b1af)"/><path d="M57 12h30" stroke="#7DCEC2" stroke-width="3" stroke-linecap="round"/><g fill="#7DCEC2" opacity=".85"></g><svg x="39.0" y="39" width="66" height="66" viewBox="0 0 24 24" fill="none" stroke="#F4F0E8" stroke-width="1.65" stroke-linecap="round" stroke-linejoin="round">
  <path d="m15 12-9.373 9.373a1 1 0 0 1-3.001-3L12 9" />
  <path d="m18 15 4-4" />
  <path d="m21.5 11.5-1.914-1.914A2 2 0 0 1 19 8.172v-.344a2 2 0 0 0-.586-1.414l-1.657-1.657A6 6 0 0 0 12.516 3H9l1.243 1.243A6 6 0 0 1 12 8.485V10l2 2h1.172a2 2 0 0 1 1.414.586L18.5 14.5" />
</svg></svg></svg></g><text x="542.35" y="750.72" text-anchor="middle" fill="#F4F0E8" font-family="Arial,sans-serif" font-size="16" font-weight="600">Build Clean</text><g transform="translate(303.65,624.72)"><svg width="108" height="108" viewBox="0 0 144 144"><svg xmlns="http://www.w3.org/2000/svg" width="144" height="144" viewBox="0 0 144 144"><defs><linearGradient id="bg59ca6ff988" x2=".7" y2="1"><stop stop-color="#28313D"/><stop offset="1" stop-color="#131B25"/></linearGradient><radialGradient id="light59ca6ff988"><stop stop-color="#7DCEC2" stop-opacity=".18"/><stop offset="1" stop-color="#7DCEC2" stop-opacity="0"/></radialGradient></defs><circle cx="72" cy="72" r="69" fill="url(#bg59ca6ff988)"/><g fill="none" stroke="#7DCEC2" stroke-opacity=".45" stroke-width="1.2"><circle cx="72" cy="72" r="67.5"/></g><circle cx="72" cy="62" r="57" fill="url(#light59ca6ff988)"/><path d="M57 12h30" stroke="#7DCEC2" stroke-width="3" stroke-linecap="round"/><g fill="#7DCEC2" opacity=".85"></g><svg x="39.0" y="39" width="66" height="66" viewBox="0 0 24 24" fill="none" stroke="#F4F0E8" stroke-width="1.65" stroke-linecap="round" stroke-linejoin="round">
  <path d="M12 22v-9" />
  <path d="M15.17 2.21a1.67 1.67 0 0 1 1.63 0L21 4.57a1.93 1.93 0 0 1 0 3.36L8.82 14.79a1.655 1.655 0 0 1-1.64 0L3 12.43a1.93 1.93 0 0 1 0-3.36z" />
  <path d="M20 13v3.87a2.06 2.06 0 0 1-1.11 1.83l-6 3.08a1.93 1.93 0 0 1-1.78 0l-6-3.08A2.06 2.06 0 0 1 4 16.87V13" />
  <path d="M21 12.43a1.93 1.93 0 0 0 0-3.36L8.83 2.2a1.64 1.64 0 0 0-1.63 0L3 4.57a1.93 1.93 0 0 0 0 3.36l12.18 6.86a1.636 1.636 0 0 0 1.63 0z" />
</svg></svg></svg></g><text x="357.65" y="750.72" text-anchor="middle" fill="#F4F0E8" font-family="Arial,sans-serif" font-size="16" font-weight="600">Migration Plan</text><g transform="translate(162.17,506.00)"><svg width="108" height="108" viewBox="0 0 144 144"><svg xmlns="http://www.w3.org/2000/svg" width="144" height="144" viewBox="0 0 144 144"><defs><linearGradient id="bgbe1fa0e40f" x2=".7" y2="1"><stop stop-color="#28313D"/><stop offset="1" stop-color="#131B25"/></linearGradient><radialGradient id="lightbe1fa0e40f"><stop stop-color="#7DCEC2" stop-opacity=".18"/><stop offset="1" stop-color="#7DCEC2" stop-opacity="0"/></radialGradient></defs><circle cx="72" cy="72" r="69" fill="url(#bgbe1fa0e40f)"/><g fill="none" stroke="#7DCEC2" stroke-opacity=".45" stroke-width="1.2"><circle cx="72" cy="72" r="67.5"/></g><circle cx="72" cy="62" r="57" fill="url(#lightbe1fa0e40f)"/><path d="M57 12h30" stroke="#7DCEC2" stroke-width="3" stroke-linecap="round"/><g fill="#7DCEC2" opacity=".85"></g><svg x="39.0" y="39" width="66" height="66" viewBox="0 0 24 24" fill="none" stroke="#F4F0E8" stroke-width="1.65" stroke-linecap="round" stroke-linejoin="round">
  <path d="M11.017 2.814a1 1 0 0 1 1.966 0l1.051 5.558a2 2 0 0 0 1.594 1.594l5.558 1.051a1 1 0 0 1 0 1.966l-5.558 1.051a2 2 0 0 0-1.594 1.594l-1.051 5.558a1 1 0 0 1-1.966 0l-1.051-5.558a2 2 0 0 0-1.594-1.594l-5.558-1.051a1 1 0 0 1 0-1.966l5.558-1.051a2 2 0 0 0 1.594-1.594z" />
  <path d="M20 2v4" />
  <path d="M22 4h-4" />
  <circle cx="4" cy="20" r="2" />
</svg></svg></svg></g><text x="216.17" y="632.00" text-anchor="middle" fill="#F4F0E8" font-family="Arial,sans-serif" font-size="16" font-weight="600">Replace Mocks</text><g transform="translate(130.10,324.11)"><svg width="108" height="108" viewBox="0 0 144 144"><svg xmlns="http://www.w3.org/2000/svg" width="144" height="144" viewBox="0 0 144 144"><defs><linearGradient id="bg323bd90cd6" x2=".7" y2="1"><stop stop-color="#28313D"/><stop offset="1" stop-color="#131B25"/></linearGradient><radialGradient id="light323bd90cd6"><stop stop-color="#7DCEC2" stop-opacity=".18"/><stop offset="1" stop-color="#7DCEC2" stop-opacity="0"/></radialGradient></defs><circle cx="72" cy="72" r="69" fill="url(#bg323bd90cd6)"/><g fill="none" stroke="#7DCEC2" stroke-opacity=".45" stroke-width="1.2"><circle cx="72" cy="72" r="67.5"/></g><circle cx="72" cy="62" r="57" fill="url(#light323bd90cd6)"/><path d="M57 12h30" stroke="#7DCEC2" stroke-width="3" stroke-linecap="round"/><g fill="#7DCEC2" opacity=".85"></g><svg x="39.0" y="39" width="66" height="66" viewBox="0 0 24 24" fill="none" stroke="#F4F0E8" stroke-width="1.65" stroke-linecap="round" stroke-linejoin="round">
  <rect x="16" y="16" width="6" height="6" rx="1" />
  <rect x="2" y="16" width="6" height="6" rx="1" />
  <rect x="9" y="2" width="6" height="6" rx="1" />
  <path d="M5 16v-3a1 1 0 0 1 1-1h12a1 1 0 0 1 1 1v3" />
  <path d="M12 12V8" />
</svg></svg></svg></g><text x="184.10" y="450.11" text-anchor="middle" fill="#F4F0E8" font-family="Arial,sans-serif" font-size="16" font-weight="600">Integrate Api</text><g transform="translate(222.45,164.17)"><svg width="108" height="108" viewBox="0 0 144 144"><svg xmlns="http://www.w3.org/2000/svg" width="144" height="144" viewBox="0 0 144 144"><defs><linearGradient id="bgbe1fa0e40f" x2=".7" y2="1"><stop stop-color="#28313D"/><stop offset="1" stop-color="#131B25"/></linearGradient><radialGradient id="lightbe1fa0e40f"><stop stop-color="#7DCEC2" stop-opacity=".18"/><stop offset="1" stop-color="#7DCEC2" stop-opacity="0"/></radialGradient></defs><circle cx="72" cy="72" r="69" fill="url(#bgbe1fa0e40f)"/><g fill="none" stroke="#7DCEC2" stroke-opacity=".45" stroke-width="1.2"><circle cx="72" cy="72" r="67.5"/></g><circle cx="72" cy="62" r="57" fill="url(#lightbe1fa0e40f)"/><path d="M57 12h30" stroke="#7DCEC2" stroke-width="3" stroke-linecap="round"/><g fill="#7DCEC2" opacity=".85"></g><svg x="39.0" y="39" width="66" height="66" viewBox="0 0 24 24" fill="none" stroke="#F4F0E8" stroke-width="1.65" stroke-linecap="round" stroke-linejoin="round">
  <path d="M11.017 2.814a1 1 0 0 1 1.966 0l1.051 5.558a2 2 0 0 0 1.594 1.594l5.558 1.051a1 1 0 0 1 0 1.966l-5.558 1.051a2 2 0 0 0-1.594 1.594l-1.051 5.558a1 1 0 0 1-1.966 0l-1.051-5.558a2 2 0 0 0-1.594-1.594l-5.558-1.051a1 1 0 0 1 0-1.966l5.558-1.051a2 2 0 0 0 1.594-1.594z" />
  <path d="M20 2v4" />
  <path d="M22 4h-4" />
  <circle cx="4" cy="20" r="2" />
</svg></svg></svg></g><text x="276.45" y="290.17" text-anchor="middle" fill="#F4F0E8" font-family="Arial,sans-serif" font-size="16" font-weight="600">Resolve Conflicts</text><text x="36" y="820" fill="#A4B1C2" font-family="Arial,sans-serif" font-size="13">Generated layout guide. Native overlay geometry and labels may differ.</text></svg>