<svg xmlns="http://www.w3.org/2000/svg" width="900" height="850" viewBox="0 0 900 850"><rect width="900" height="850" rx="28" fill="#0E151E"/><text x="36" y="48" fill="#F4F0E8" font-family="Arial,sans-serif" font-size="25" font-weight="700">Flow Ring / Research</text><circle cx="450" cy="425" r="278" fill="none" stroke="#293646"/><circle cx="450" cy="425" r="102" fill="#18232F" stroke="#435163"/><text x="450" y="418" text-anchor="middle" fill="#E5B879" font-family="Arial,sans-serif" font-size="14" letter-spacing="2">ACTIONS RING</text><text x="450" y="447" text-anchor="middle" fill="#F4F0E8" font-family="Arial,sans-serif" font-size="21">Native navigation</text><g transform="translate(396.00,101.00)"><svg width="108" height="108" viewBox="0 0 144 144"><svg xmlns="http://www.w3.org/2000/svg" width="144" height="144" viewBox="0 0 144 144"><defs><linearGradient id="bg44c1a1762c" x2=".7" y2="1"><stop stop-color="#28313D"/><stop offset="1" stop-color="#131B25"/></linearGradient><radialGradient id="light44c1a1762c"><stop stop-color="#E697A5" stop-opacity=".18"/><stop offset="1" stop-color="#E697A5" stop-opacity="0"/></radialGradient></defs><circle cx="72" cy="72" r="69" fill="url(#bg44c1a1762c)"/><g fill="none" stroke="#E697A5" stroke-opacity=".45" stroke-width="1.2"><circle cx="72" cy="72" r="67.5"/></g><circle cx="72" cy="62" r="57" fill="url(#light44c1a1762c)"/><path d="M57 12h30" stroke="#E697A5" stroke-width="3" stroke-linecap="round"/><g fill="#E697A5" opacity=".85"></g><svg x="39.0" y="39" width="66" height="66" viewBox="0 0 24 24" fill="none" stroke="#F4F0E8" stroke-width="1.65" stroke-linecap="round" stroke-linejoin="round">
  <path d="M3 7V5a2 2 0 0 1 2-2h2" />
  <path d="M17 3h2a2 2 0 0 1 2 2v2" />
  <path d="M21 17v2a2 2 0 0 1-2 2h-2" />
  <path d="M7 21H5a2 2 0 0 1-2-2v-2" />
  <circle cx="12" cy="12" r="3" />
  <path d="m16 16-1.9-1.9" />
</svg></svg></svg></g><text x="450.00" y="227.00" text-anchor="middle" fill="#F4F0E8" font-family="Arial,sans-serif" font-size="16" font-weight="600">Search Plan</text><g transform="translate(569.55,164.17)"><svg width="108" height="108" viewBox="0 0 144 144"><svg xmlns="http://www.w3.org/2000/svg" width="144" height="144" viewBox="0 0 144 144"><defs><linearGradient id="bg11a5979a5e" x2=".7" y2="1"><stop stop-color="#28313D"/><stop offset="1" stop-color="#131B25"/></linearGradient><radialGradient id="light11a5979a5e"><stop stop-color="#E697A5" stop-opacity=".18"/><stop offset="1" stop-color="#E697A5" stop-opacity="0"/></radialGradient></defs><circle cx="72" cy="72" r="69" fill="url(#bg11a5979a5e)"/><g fill="none" stroke="#E697A5" stroke-opacity=".45" stroke-width="1.2"><circle cx="72" cy="72" r="67.5"/></g><circle cx="72" cy="62" r="57" fill="url(#light11a5979a5e)"/><path d="M57 12h30" stroke="#E697A5" stroke-width="3" stroke-linecap="round"/><g fill="#E697A5" opacity=".85"></g><svg x="39.0" y="39" width="66" height="66" viewBox="0 0 24 24" fill="none" stroke="#F4F0E8" stroke-width="1.65" stroke-linecap="round" stroke-linejoin="round">
  <path d="M6 18h8" />
  <path d="M3 22h18" />
  <path d="M14 22a7 7 0 1 0 0-14h-1" />
  <path d="M9 14h2" />
  <path d="M9 12a2 2 0 0 1-2-2V6h6v4a2 2 0 0 1-2 2Z" />
  <path d="M12 6V3a1 1 0 0 0-1-1H9a1 1 0 0 0-1 1v3" />
</svg></svg></svg></g><text x="623.55" y="290.17" text-anchor="middle" fill="#F4F0E8" font-family="Arial,sans-serif" font-size="16" font-weight="600">Find Sources</text><g transform="translate(661.90,324.11)"><svg width="108" height="108" viewBox="0 0 144 144"><svg xmlns="http://www.w3.org/2000/svg" width="144" height="144" viewBox="0 0 144 144"><defs><linearGradient id="bg11a5979a5e" x2=".7" y2="1"><stop stop-color="#28313D"/><stop offset="1" stop-color="#131B25"/></linearGradient><radialGradient id="light11a5979a5e"><stop stop-color="#E697A5" stop-opacity=".18"/><stop offset="1" stop-color="#E697A5" stop-opacity="0"/></radialGradient></defs><circle cx="72" cy="72" r="69" fill="url(#bg11a5979a5e)"/><g fill="none" stroke="#E697A5" stroke-opacity=".45" stroke-width="1.2"><circle cx="72" cy="72" r="67.5"/></g><circle cx="72" cy="62" r="57" fill="url(#light11a5979a5e)"/><path d="M57 12h30" stroke="#E697A5" stroke-width="3" stroke-linecap="round"/><g fill="#E697A5" opacity=".85"></g><svg x="39.0" y="39" width="66" height="66" viewBox="0 0 24 24" fill="none" stroke="#F4F0E8" stroke-width="1.65" stroke-linecap="round" stroke-linejoin="round">
  <path d="M6 18h8" />
  <path d="M3 22h18" />
  <path d="M14 22a7 7 0 1 0 0-14h-1" />
  <path d="M9 14h2" />
  <path d="M9 12a2 2 0 0 1-2-2V6h6v4a2 2 0 0 1-2 2Z" />
  <path d="M12 6V3a1 1 0 0 0-1-1H9a1 1 0 0 0-1 1v3" />
</svg></svg></svg></g><text x="715.90" y="450.11" text-anchor="middle" fill="#F4F0E8" font-family="Arial,sans-serif" font-size="16" font-weight="600">Evidence Table</text><g transform="translate(629.83,506.00)"><svg width="108" height="108" viewBox="0 0 144 144"><svg xmlns="http://www.w3.org/2000/svg" width="144" height="144" viewBox="0 0 144 144"><defs><linearGradient id="bg9adae6a245" x2=".7" y2="1"><stop stop-color="#28313D"/><stop offset="1" stop-color="#131B25"/></linearGradient><radialGradient id="light9adae6a245"><stop stop-color="#E697A5" stop-opacity=".18"/><stop offset="1" stop-color="#E697A5" stop-opacity="0"/></radialGradient></defs><circle cx="72" cy="72" r="69" fill="url(#bg9adae6a245)"/><g fill="none" stroke="#E697A5" stroke-opacity=".45" stroke-width="1.2"><circle cx="72" cy="72" r="67.5"/></g><circle cx="72" cy="62" r="57" fill="url(#light9adae6a245)"/><path d="M57 12h30" stroke="#E697A5" stroke-width="3" stroke-linecap="round"/><g fill="#E697A5" opacity=".85"></g><svg x="39.0" y="39" width="66" height="66" viewBox="0 0 24 24" fill="none" stroke="#F4F0E8" stroke-width="1.65" stroke-linecap="round" stroke-linejoin="round">
  <path d="M12 3v18" />
  <path d="m19 8 3 8a5 5 0 0 1-6 0zV7" />
  <path d="M3 7h1a17 17 0 0 0 8-2 17 17 0 0 0 8 2h1" />
  <path d="m5 8 3 8a5 5 0 0 1-6 0zV7" />
  <path d="M7 21h10" />
</svg></svg></svg></g><text x="683.83" y="632.00" text-anchor="middle" fill="#F4F0E8" font-family="Arial,sans-serif" font-size="16" font-weight="600">Compare Options</text><g transform="translate(488.35,624.72)"><svg width="108" height="108" viewBox="0 0 144 144"><svg xmlns="http://www.w3.org/2000/svg" width="144" height="144" viewBox="0 0 144 144"><defs><linearGradient id="bgd13b46cb60" x2=".7" y2="1"><stop stop-color="#28313D"/><stop offset="1" stop-color="#131B25"/></linearGradient><radialGradient id="lightd13b46cb60"><stop stop-color="#E697A5" stop-opacity=".18"/><stop offset="1" stop-color="#E697A5" stop-opacity="0"/></radialGradient></defs><circle cx="72" cy="72" r="69" fill="url(#bgd13b46cb60)"/><g fill="none" stroke="#E697A5" stroke-opacity=".45" stroke-width="1.2"><circle cx="72" cy="72" r="67.5"/></g><circle cx="72" cy="62" r="57" fill="url(#lightd13b46cb60)"/><path d="M57 12h30" stroke="#E697A5" stroke-width="3" stroke-linecap="round"/><g fill="#E697A5" opacity=".85"></g><svg x="39.0" y="39" width="66" height="66" viewBox="0 0 24 24" fill="none" stroke="#F4F0E8" stroke-width="1.65" stroke-linecap="round" stroke-linejoin="round">
  <path d="M11.017 2.814a1 1 0 0 1 1.966 0l1.051 5.558a2 2 0 0 0 1.594 1.594l5.558 1.051a1 1 0 0 1 0 1.966l-5.558 1.051a2 2 0 0 0-1.594 1.594l-1.051 5.558a1 1 0 0 1-1.966 0l-1.051-5.558a2 2 0 0 0-1.594-1.594l-5.558-1.051a1 1 0 0 1 0-1.966l5.558-1.051a2 2 0 0 0 1.594-1.594z" />
  <path d="M20 2v4" />
  <path d="M22 4h-4" />
  <circle cx="4" cy="20" r="2" />
</svg></svg></svg></g><text x="542.35" y="750.72" text-anchor="middle" fill="#F4F0E8" font-family="Arial,sans-serif" font-size="16" font-weight="600">Paper Brief</text><g transform="translate(303.65,624.72)"><svg width="108" height="108" viewBox="0 0 144 144"><svg xmlns="http://www.w3.org/2000/svg" width="144" height="144" viewBox="0 0 144 144"><defs><linearGradient id="bg293567532b" x2=".7" y2="1"><stop stop-color="#28313D"/><stop offset="1" stop-color="#131B25"/></linearGradient><radialGradient id="light293567532b"><stop stop-color="#E697A5" stop-opacity=".18"/><stop offset="1" stop-color="#E697A5" stop-opacity="0"/></radialGradient></defs><circle cx="72" cy="72" r="69" fill="url(#bg293567532b)"/><g fill="none" stroke="#E697A5" stroke-opacity=".45" stroke-width="1.2"><circle cx="72" cy="72" r="67.5"/></g><circle cx="72" cy="62" r="57" fill="url(#light293567532b)"/><path d="M57 12h30" stroke="#E697A5" stroke-width="3" stroke-linecap="round"/><g fill="#E697A5" opacity=".85"></g><svg x="39.0" y="39" width="66" height="66" viewBox="0 0 24 24" fill="none" stroke="#F4F0E8" stroke-width="1.65" stroke-linecap="round" stroke-linejoin="round">
  <path d="m13 19 6-6" />
  <path d="M14.5 17.5 3.586 6.586A2 2 0 013 5.172V3h2.172a2 2 0 011.414.586L17.5 14.5" />
  <path d="m14.828 6.172 2.586-2.586A2 2 0 0118.828 3H21v2.172a2 2 0 01-.586 1.414l-2.586 2.586" />
  <path d="m16 16 4 4" />
  <path d="m19 21 2-2" />
  <path d="m5 14 4 4" />
  <path d="m5 21-2-2" />
  <path d="M7.5 16.5 4 20" />
</svg></svg></svg></g><text x="357.65" y="750.72" text-anchor="middle" fill="#F4F0E8" font-family="Arial,sans-serif" font-size="16" font-weight="600">Counterpoint</text><g transform="translate(162.17,506.00)"><svg width="108" height="108" viewBox="0 0 144 144"><svg xmlns="http://www.w3.org/2000/svg" width="144" height="144" viewBox="0 0 144 144"><defs><linearGradient id="bg7514f72c96" x2=".7" y2="1"><stop stop-color="#28313D"/><stop offset="1" stop-color="#131B25"/></linearGradient><radialGradient id="light7514f72c96"><stop stop-color="#E697A5" stop-opacity=".18"/><stop offset="1" stop-color="#E697A5" stop-opacity="0"/></radialGradient></defs><circle cx="72" cy="72" r="69" fill="url(#bg7514f72c96)"/><g fill="none" stroke="#E697A5" stroke-opacity=".45" stroke-width="1.2"><circle cx="72" cy="72" r="67.5"/></g><circle cx="72" cy="62" r="57" fill="url(#light7514f72c96)"/><path d="M57 12h30" stroke="#E697A5" stroke-width="3" stroke-linecap="round"/><g fill="#E697A5" opacity=".85"></g><svg x="39.0" y="39" width="66" height="66" viewBox="0 0 24 24" fill="none" stroke="#F4F0E8" stroke-width="1.65" stroke-linecap="round" stroke-linejoin="round">
  <path d="M3 9h18" />
  <path d="M9 3v18" />
  <rect x="3" y="3" width="18" height="18" rx="2" />
</svg></svg></svg></g><text x="216.17" y="632.00" text-anchor="middle" fill="#F4F0E8" font-family="Arial,sans-serif" font-size="16" font-weight="600">Extract Data</text><g transform="translate(130.10,324.11)"><svg width="108" height="108" viewBox="0 0 144 144"><svg xmlns="http://www.w3.org/2000/svg" width="144" height="144" viewBox="0 0 144 144"><defs><linearGradient id="bgfbfb47b057" x2=".7" y2="1"><stop stop-color="#28313D"/><stop offset="1" stop-color="#131B25"/></linearGradient><radialGradient id="lightfbfb47b057"><stop stop-color="#E697A5" stop-opacity=".18"/><stop offset="1" stop-color="#E697A5" stop-opacity="0"/></radialGradient></defs><circle cx="72" cy="72" r="69" fill="url(#bgfbfb47b057)"/><g fill="none" stroke="#E697A5" stroke-opacity=".45" stroke-width="1.2"><circle cx="72" cy="72" r="67.5"/></g><circle cx="72" cy="62" r="57" fill="url(#lightfbfb47b057)"/><path d="M57 12h30" stroke="#E697A5" stroke-width="3" stroke-linecap="round"/><g fill="#E697A5" opacity=".85"></g><svg x="39.0" y="39" width="66" height="66" viewBox="0 0 24 24" fill="none" stroke="#F4F0E8" stroke-width="1.65" stroke-linecap="round" stroke-linejoin="round">
  <path d="M12 6V2H8" />
  <path d="M15 11v2" />
  <path d="M2 12h2" />
  <path d="M20 12h2" />
  <path d="M20 16a2 2 0 0 1-2 2H8.828a2 2 0 0 0-1.414.586l-2.202 2.202A.71.71 0 0 1 4 20.286V8a2 2 0 0 1 2-2h12a2 2 0 0 1 2 2z" />
  <path d="M9 11v2" />
</svg></svg></svg></g><text x="184.10" y="450.11" text-anchor="middle" fill="#F4F0E8" font-family="Arial,sans-serif" font-size="16" font-weight="600">Check Health Claims</text><g transform="translate(222.45,164.17)"><svg width="108" height="108" viewBox="0 0 144 144"><svg xmlns="http://www.w3.org/2000/svg" width="144" height="144" viewBox="0 0 144 144"><defs><linearGradient id="bg057acff723" x2=".7" y2="1"><stop stop-color="#28313D"/><stop offset="1" stop-color="#131B25"/></linearGradient><radialGradient id="light057acff723"><stop stop-color="#E697A5" stop-opacity=".18"/><stop offset="1" stop-color="#E697A5" stop-opacity="0"/></radialGradient></defs><circle cx="72" cy="72" r="69" fill="url(#bg057acff723)"/><g fill="none" stroke="#E697A5" stroke-opacity=".45" stroke-width="1.2"><circle cx="72" cy="72" r="67.5"/></g><circle cx="72" cy="62" r="57" fill="url(#light057acff723)"/><path d="M57 12h30" stroke="#E697A5" stroke-width="3" stroke-linecap="round"/><g fill="#E697A5" opacity=".85"></g><svg x="39.0" y="39" width="66" height="66" viewBox="0 0 24 24" fill="none" stroke="#F4F0E8" stroke-width="1.65" stroke-linecap="round" stroke-linejoin="round">
  <path d="m10.065 12.493-6.18 1.318a.934.934 0 0 1-1.108-.702l-.537-2.15a1.07 1.07 0 0 1 .691-1.265l13.504-4.44" />
  <path d="m13.56 11.747 4.332-.924" />
  <path d="m16 21-3.105-6.21" />
  <path d="M16.485 5.94a2 2 0 0 1 1.455-2.425l1.09-.272a1 1 0 0 1 1.212.727l1.515 6.06a1 1 0 0 1-.727 1.213l-1.09.272a2 2 0 0 1-2.425-1.455z" />
  <path d="m6.158 8.633 1.114 4.456" />
  <path d="m8 21 3.105-6.21" />
  <circle cx="12" cy="13" r="2" />
</svg></svg></svg></g><text x="276.45" y="290.17" text-anchor="middle" fill="#F4F0E8" font-family="Arial,sans-serif" font-size="16" font-weight="600">What Is Missing</text><text x="36" y="820" fill="#A4B1C2" font-family="Arial,sans-serif" font-size="13">Generated layout guide. Native overlay geometry and labels may differ.</text></svg>