<svg xmlns="http://www.w3.org/2000/svg" width="900" height="850" viewBox="0 0 900 850"><rect width="900" height="850" rx="28" fill="#0E151E"/><text x="36" y="48" fill="#F4F0E8" font-family="Arial,sans-serif" font-size="25" font-weight="700">Flow Ring / Client &amp; Content</text><circle cx="450" cy="425" r="278" fill="none" stroke="#293646"/><circle cx="450" cy="425" r="102" fill="#18232F" stroke="#435163"/><text x="450" y="418" text-anchor="middle" fill="#E5B879" font-family="Arial,sans-serif" font-size="14" letter-spacing="2">ACTIONS RING</text><text x="450" y="447" text-anchor="middle" fill="#F4F0E8" font-family="Arial,sans-serif" font-size="21">Native navigation</text><g transform="translate(396.00,101.00)"><svg width="108" height="108" viewBox="0 0 144 144"><svg xmlns="http://www.w3.org/2000/svg" width="144" height="144" viewBox="0 0 144 144"><defs><linearGradient id="bg1d13b3f69d" x2=".7" y2="1"><stop stop-color="#28313D"/><stop offset="1" stop-color="#131B25"/></linearGradient><radialGradient id="light1d13b3f69d"><stop stop-color="#B6CC92" stop-opacity=".18"/><stop offset="1" stop-color="#B6CC92" stop-opacity="0"/></radialGradient></defs><circle cx="72" cy="72" r="69" fill="url(#bg1d13b3f69d)"/><g fill="none" stroke="#B6CC92" stroke-opacity=".45" stroke-width="1.2"><circle cx="72" cy="72" r="67.5"/></g><circle cx="72" cy="62" r="57" fill="url(#light1d13b3f69d)"/><path d="M57 12h30" stroke="#B6CC92" stroke-width="3" stroke-linecap="round"/><g fill="#B6CC92" opacity=".85"></g><svg x="39.0" y="39" width="66" height="66" viewBox="0 0 24 24" fill="none" stroke="#F4F0E8" stroke-width="1.65" stroke-linecap="round" stroke-linejoin="round">
  <path d="M14.086 18.412A2 2 0 0112.67 19H5v-7.672a2 2 0 01.586-1.414L11.75 3.75a6 6 0 118.49 8.49z" />
  <path d="M16 8 2 22" />
  <path d="M17.488 15H9" />
</svg></svg></svg></g><text x="450.00" y="227.00" text-anchor="middle" fill="#F4F0E8" font-family="Arial,sans-serif" font-size="16" font-weight="600">Social Draft</text><g transform="translate(569.55,164.17)"><svg width="108" height="108" viewBox="0 0 144 144"><svg xmlns="http://www.w3.org/2000/svg" width="144" height="144" viewBox="0 0 144 144"><defs><linearGradient id="bg5c88c745b7" x2=".7" y2="1"><stop stop-color="#28313D"/><stop offset="1" stop-color="#131B25"/></linearGradient><radialGradient id="light5c88c745b7"><stop stop-color="#B6CC92" stop-opacity=".18"/><stop offset="1" stop-color="#B6CC92" stop-opacity="0"/></radialGradient></defs><circle cx="72" cy="72" r="69" fill="url(#bg5c88c745b7)"/><g fill="none" stroke="#B6CC92" stroke-opacity=".45" stroke-width="1.2"><circle cx="72" cy="72" r="67.5"/></g><circle cx="72" cy="62" r="57" fill="url(#light5c88c745b7)"/><path d="M57 12h30" stroke="#B6CC92" stroke-width="3" stroke-linecap="round"/><g fill="#B6CC92" opacity=".85"></g><svg x="39.0" y="39" width="66" height="66" viewBox="0 0 24 24" fill="none" stroke="#F4F0E8" stroke-width="1.65" stroke-linecap="round" stroke-linejoin="round">
  <path d="M11.017 2.814a1 1 0 0 1 1.966 0l1.051 5.558a2 2 0 0 0 1.594 1.594l5.558 1.051a1 1 0 0 1 0 1.966l-5.558 1.051a2 2 0 0 0-1.594 1.594l-1.051 5.558a1 1 0 0 1-1.966 0l-1.051-5.558a2 2 0 0 0-1.594-1.594l-5.558-1.051a1 1 0 0 1 0-1.966l5.558-1.051a2 2 0 0 0 1.594-1.594z" />
  <path d="M20 2v4" />
  <path d="M22 4h-4" />
  <circle cx="4" cy="20" r="2" />
</svg></svg></svg></g><text x="623.55" y="290.17" text-anchor="middle" fill="#F4F0E8" font-family="Arial,sans-serif" font-size="16" font-weight="600">Repurpose</text><g transform="translate(661.90,324.11)"><svg width="108" height="108" viewBox="0 0 144 144"><svg xmlns="http://www.w3.org/2000/svg" width="144" height="144" viewBox="0 0 144 144"><defs><linearGradient id="bg9b3aef21c5" x2=".7" y2="1"><stop stop-color="#28313D"/><stop offset="1" stop-color="#131B25"/></linearGradient><radialGradient id="light9b3aef21c5"><stop stop-color="#B6CC92" stop-opacity=".18"/><stop offset="1" stop-color="#B6CC92" stop-opacity="0"/></radialGradient></defs><circle cx="72" cy="72" r="69" fill="url(#bg9b3aef21c5)"/><g fill="none" stroke="#B6CC92" stroke-opacity=".45" stroke-width="1.2"><circle cx="72" cy="72" r="67.5"/></g><circle cx="72" cy="62" r="57" fill="url(#light9b3aef21c5)"/><path d="M57 12h30" stroke="#B6CC92" stroke-width="3" stroke-linecap="round"/><g fill="#B6CC92" opacity=".85"></g><svg x="39.0" y="39" width="66" height="66" viewBox="0 0 24 24" fill="none" stroke="#F4F0E8" stroke-width="1.65" stroke-linecap="round" stroke-linejoin="round">
  <path d="M11 6a13 13 0 0 0 8.4-2.8A1 1 0 0 1 21 4v12a1 1 0 0 1-1.6.8A13 13 0 0 0 11 14H5a2 2 0 0 1-2-2V8a2 2 0 0 1 2-2z" />
  <path d="M6 14a12 12 0 0 0 2.4 7.2 2 2 0 0 0 3.2-2.4A8 8 0 0 1 10 14" />
  <path d="M8 6v8" />
</svg></svg></svg></g><text x="715.90" y="450.11" text-anchor="middle" fill="#F4F0E8" font-family="Arial,sans-serif" font-size="16" font-weight="600">Content Ideas</text><g transform="translate(629.83,506.00)"><svg width="108" height="108" viewBox="0 0 144 144"><svg xmlns="http://www.w3.org/2000/svg" width="144" height="144" viewBox="0 0 144 144"><defs><linearGradient id="bg5c88c745b7" x2=".7" y2="1"><stop stop-color="#28313D"/><stop offset="1" stop-color="#131B25"/></linearGradient><radialGradient id="light5c88c745b7"><stop stop-color="#B6CC92" stop-opacity=".18"/><stop offset="1" stop-color="#B6CC92" stop-opacity="0"/></radialGradient></defs><circle cx="72" cy="72" r="69" fill="url(#bg5c88c745b7)"/><g fill="none" stroke="#B6CC92" stroke-opacity=".45" stroke-width="1.2"><circle cx="72" cy="72" r="67.5"/></g><circle cx="72" cy="62" r="57" fill="url(#light5c88c745b7)"/><path d="M57 12h30" stroke="#B6CC92" stroke-width="3" stroke-linecap="round"/><g fill="#B6CC92" opacity=".85"></g><svg x="39.0" y="39" width="66" height="66" viewBox="0 0 24 24" fill="none" stroke="#F4F0E8" stroke-width="1.65" stroke-linecap="round" stroke-linejoin="round">
  <path d="M11.017 2.814a1 1 0 0 1 1.966 0l1.051 5.558a2 2 0 0 0 1.594 1.594l5.558 1.051a1 1 0 0 1 0 1.966l-5.558 1.051a2 2 0 0 0-1.594 1.594l-1.051 5.558a1 1 0 0 1-1.966 0l-1.051-5.558a2 2 0 0 0-1.594-1.594l-5.558-1.051a1 1 0 0 1 0-1.966l5.558-1.051a2 2 0 0 0 1.594-1.594z" />
  <path d="M20 2v4" />
  <path d="M22 4h-4" />
  <circle cx="4" cy="20" r="2" />
</svg></svg></svg></g><text x="683.83" y="632.00" text-anchor="middle" fill="#F4F0E8" font-family="Arial,sans-serif" font-size="16" font-weight="600">Brand Check</text><g transform="translate(488.35,624.72)"><svg width="108" height="108" viewBox="0 0 144 144"><svg xmlns="http://www.w3.org/2000/svg" width="144" height="144" viewBox="0 0 144 144"><defs><linearGradient id="bgb44fe06438" x2=".7" y2="1"><stop stop-color="#28313D"/><stop offset="1" stop-color="#131B25"/></linearGradient><radialGradient id="lightb44fe06438"><stop stop-color="#B6CC92" stop-opacity=".18"/><stop offset="1" stop-color="#B6CC92" stop-opacity="0"/></radialGradient></defs><circle cx="72" cy="72" r="69" fill="url(#bgb44fe06438)"/><g fill="none" stroke="#B6CC92" stroke-opacity=".45" stroke-width="1.2"><circle cx="72" cy="72" r="67.5"/></g><circle cx="72" cy="62" r="57" fill="url(#lightb44fe06438)"/><path d="M57 12h30" stroke="#B6CC92" stroke-width="3" stroke-linecap="round"/><g fill="#B6CC92" opacity=".85"></g><svg x="39.0" y="39" width="66" height="66" viewBox="0 0 24 24" fill="none" stroke="#F4F0E8" stroke-width="1.65" stroke-linecap="round" stroke-linejoin="round">
  <path d="M13.4 2H6a2 2 0 0 0-2 2v16a2 2 0 0 0 2 2h12a2 2 0 0 0 2-2v-7.4" />
  <path d="M2 6h4" />
  <path d="M2 10h4" />
  <path d="M2 14h4" />
  <path d="M2 18h4" />
  <path d="M21.378 5.626a1 1 0 1 0-3.004-3.004l-5.01 5.012a2 2 0 0 0-.506.854l-.837 2.87a.5.5 0 0 0 .62.62l2.87-.837a2 2 0 0 0 .854-.506z" />
</svg></svg></svg></g><text x="542.35" y="750.72" text-anchor="middle" fill="#F4F0E8" font-family="Arial,sans-serif" font-size="16" font-weight="600">Meeting Notes</text><g transform="translate(303.65,624.72)"><svg width="108" height="108" viewBox="0 0 144 144"><svg xmlns="http://www.w3.org/2000/svg" width="144" height="144" viewBox="0 0 144 144"><defs><linearGradient id="bg1d13b3f69d" x2=".7" y2="1"><stop stop-color="#28313D"/><stop offset="1" stop-color="#131B25"/></linearGradient><radialGradient id="light1d13b3f69d"><stop stop-color="#B6CC92" stop-opacity=".18"/><stop offset="1" stop-color="#B6CC92" stop-opacity="0"/></radialGradient></defs><circle cx="72" cy="72" r="69" fill="url(#bg1d13b3f69d)"/><g fill="none" stroke="#B6CC92" stroke-opacity=".45" stroke-width="1.2"><circle cx="72" cy="72" r="67.5"/></g><circle cx="72" cy="62" r="57" fill="url(#light1d13b3f69d)"/><path d="M57 12h30" stroke="#B6CC92" stroke-width="3" stroke-linecap="round"/><g fill="#B6CC92" opacity=".85"></g><svg x="39.0" y="39" width="66" height="66" viewBox="0 0 24 24" fill="none" stroke="#F4F0E8" stroke-width="1.65" stroke-linecap="round" stroke-linejoin="round">
  <path d="M14.086 18.412A2 2 0 0112.67 19H5v-7.672a2 2 0 01.586-1.414L11.75 3.75a6 6 0 118.49 8.49z" />
  <path d="M16 8 2 22" />
  <path d="M17.488 15H9" />
</svg></svg></svg></g><text x="357.65" y="750.72" text-anchor="middle" fill="#F4F0E8" font-family="Arial,sans-serif" font-size="16" font-weight="600">Draft Proposal</text><g transform="translate(162.17,506.00)"><svg width="108" height="108" viewBox="0 0 144 144"><svg xmlns="http://www.w3.org/2000/svg" width="144" height="144" viewBox="0 0 144 144"><defs><linearGradient id="bg5c88c745b7" x2=".7" y2="1"><stop stop-color="#28313D"/><stop offset="1" stop-color="#131B25"/></linearGradient><radialGradient id="light5c88c745b7"><stop stop-color="#B6CC92" stop-opacity=".18"/><stop offset="1" stop-color="#B6CC92" stop-opacity="0"/></radialGradient></defs><circle cx="72" cy="72" r="69" fill="url(#bg5c88c745b7)"/><g fill="none" stroke="#B6CC92" stroke-opacity=".45" stroke-width="1.2"><circle cx="72" cy="72" r="67.5"/></g><circle cx="72" cy="62" r="57" fill="url(#light5c88c745b7)"/><path d="M57 12h30" stroke="#B6CC92" stroke-width="3" stroke-linecap="round"/><g fill="#B6CC92" opacity=".85"></g><svg x="39.0" y="39" width="66" height="66" viewBox="0 0 24 24" fill="none" stroke="#F4F0E8" stroke-width="1.65" stroke-linecap="round" stroke-linejoin="round">
  <path d="M11.017 2.814a1 1 0 0 1 1.966 0l1.051 5.558a2 2 0 0 0 1.594 1.594l5.558 1.051a1 1 0 0 1 0 1.966l-5.558 1.051a2 2 0 0 0-1.594 1.594l-1.051 5.558a1 1 0 0 1-1.966 0l-1.051-5.558a2 2 0 0 0-1.594-1.594l-5.558-1.051a1 1 0 0 1 0-1.966l5.558-1.051a2 2 0 0 0 1.594-1.594z" />
  <path d="M20 2v4" />
  <path d="M22 4h-4" />
  <circle cx="4" cy="20" r="2" />
</svg></svg></svg></g><text x="216.17" y="632.00" text-anchor="middle" fill="#F4F0E8" font-family="Arial,sans-serif" font-size="16" font-weight="600">Status Update</text><g transform="translate(130.10,324.11)"><svg width="108" height="108" viewBox="0 0 144 144"><svg xmlns="http://www.w3.org/2000/svg" width="144" height="144" viewBox="0 0 144 144"><defs><linearGradient id="bgd0228548d3" x2=".7" y2="1"><stop stop-color="#28313D"/><stop offset="1" stop-color="#131B25"/></linearGradient><radialGradient id="lightd0228548d3"><stop stop-color="#B6CC92" stop-opacity=".18"/><stop offset="1" stop-color="#B6CC92" stop-opacity="0"/></radialGradient></defs><circle cx="72" cy="72" r="69" fill="url(#bgd0228548d3)"/><g fill="none" stroke="#B6CC92" stroke-opacity=".45" stroke-width="1.2"><circle cx="72" cy="72" r="67.5"/></g><circle cx="72" cy="62" r="57" fill="url(#lightd0228548d3)"/><path d="M57 12h30" stroke="#B6CC92" stroke-width="3" stroke-linecap="round"/><g fill="#B6CC92" opacity=".85"></g><svg x="39.0" y="39" width="66" height="66" viewBox="0 0 24 24" fill="none" stroke="#F4F0E8" stroke-width="1.65" stroke-linecap="round" stroke-linejoin="round">
  <path d="M12 22v-9" />
  <path d="M15.17 2.21a1.67 1.67 0 0 1 1.63 0L21 4.57a1.93 1.93 0 0 1 0 3.36L8.82 14.79a1.655 1.655 0 0 1-1.64 0L3 12.43a1.93 1.93 0 0 1 0-3.36z" />
  <path d="M20 13v3.87a2.06 2.06 0 0 1-1.11 1.83l-6 3.08a1.93 1.93 0 0 1-1.78 0l-6-3.08A2.06 2.06 0 0 1 4 16.87V13" />
  <path d="M21 12.43a1.93 1.93 0 0 0 0-3.36L8.83 2.2a1.64 1.64 0 0 0-1.63 0L3 4.57a1.93 1.93 0 0 0 0 3.36l12.18 6.86a1.636 1.636 0 0 0 1.63 0z" />
</svg></svg></svg></g><text x="184.10" y="450.11" text-anchor="middle" fill="#F4F0E8" font-family="Arial,sans-serif" font-size="16" font-weight="600">Handoff</text><g transform="translate(222.45,164.17)"><svg width="108" height="108" viewBox="0 0 144 144"><svg xmlns="http://www.w3.org/2000/svg" width="144" height="144" viewBox="0 0 144 144"><defs><linearGradient id="bgf982d687e2" x2=".7" y2="1"><stop stop-color="#28313D"/><stop offset="1" stop-color="#131B25"/></linearGradient><radialGradient id="lightf982d687e2"><stop stop-color="#B6CC92" stop-opacity=".18"/><stop offset="1" stop-color="#B6CC92" stop-opacity="0"/></radialGradient></defs><circle cx="72" cy="72" r="69" fill="url(#bgf982d687e2)"/><g fill="none" stroke="#B6CC92" stroke-opacity=".45" stroke-width="1.2"><circle cx="72" cy="72" r="67.5"/></g><circle cx="72" cy="62" r="57" fill="url(#lightf982d687e2)"/><path d="M57 12h30" stroke="#B6CC92" stroke-width="3" stroke-linecap="round"/><g fill="#B6CC92" opacity=".85"></g><svg x="39.0" y="39" width="66" height="66" viewBox="0 0 24 24" fill="none" stroke="#F4F0E8" stroke-width="1.65" stroke-linecap="round" stroke-linejoin="round">
  <path d="m2 9 3-3 3 3" />
  <path d="M13 18H7a2 2 0 0 1-2-2V6" />
  <path d="m22 15-3 3-3-3" />
  <path d="M11 6h6a2 2 0 0 1 2 2v10" />
</svg></svg></svg></g><text x="276.45" y="290.17" text-anchor="middle" fill="#F4F0E8" font-family="Arial,sans-serif" font-size="16" font-weight="600">Resume Project</text><text x="36" y="820" fill="#A4B1C2" font-family="Arial,sans-serif" font-size="13">Generated layout guide. Native overlay geometry and labels may differ.</text></svg>