<svg xmlns="http://www.w3.org/2000/svg" width="900" height="850" viewBox="0 0 900 850"><rect width="900" height="850" rx="28" fill="#F7F9FD"/><text x="36" y="48" fill="#172033" font-family="Arial,sans-serif" font-size="25" font-weight="700">Work Ring / Start</text><circle cx="450" cy="425" r="278" fill="none" stroke="#DCE4F0"/><circle cx="450" cy="425" r="102" fill="#FFFFFF" stroke="#DCE4F0"/><text x="450" y="408" text-anchor="middle" fill="#4965D6" font-family="Arial,sans-serif" font-size="14" letter-spacing="2">ACTIONS RING</text><text x="450" y="441" text-anchor="middle" fill="#172033" font-family="Arial,sans-serif" font-size="24" font-weight="600">Start</text><text x="450" y="470" text-anchor="middle" fill="#56657A" font-family="Arial,sans-serif" font-size="13">9 controls</text><g transform="translate(396.00,101.00)"><svg width="108" height="108" viewBox="0 0 144 144"><svg xmlns="http://www.w3.org/2000/svg" width="144" height="144" viewBox="0 0 144 144"><circle cx="72" cy="72" r="69" fill="#F5F8FF"/><circle cx="72" cy="72" r="67" fill="none" stroke="#45D5CC" stroke-width="3"/><g transform="translate(29 29) scale(2.6875)">
<path d="M5 4.5C5 3.67157 5.67157 3 6.5 3H25.5C26.3284 3 27 3.67157 27 4.5V28.5C27 29.3284 26.3284 30 25.5 30H6.5C5.67157 30 5 29.3284 5 28.5V4.5Z" fill="#E19747"/>
<path d="M25 6C25 5.44772 24.5523 5 24 5H8C7.44772 5 7 5.44772 7 6V27C7 27.5523 7.44772 28 8 28H18.5858C18.7327 28 18.8764 27.9677 19.0071 27.9069L19.3282 27.1239L19.96 23.0379L24.4166 22.255L24.9064 22.0082C24.9675 21.8772 25 21.7332 25 21.5858V6Z" fill="#F3EEF8"/>
<path d="M24.9102 22H20C19.4477 22 19 22.4477 19 23V27.9102C19.108 27.861 19.2074 27.7926 19.2929 27.7071L24.7071 22.2929C24.7926 22.2074 24.861 22.108 24.9102 22Z" fill="#CDC4D6"/>
<path d="M18 4C18 2.89543 17.1046 2 16 2C14.8954 2 14 2.89543 14 4H13C11.8954 4 11 4.89543 11 6V7.5C11 7.77614 11.2239 8 11.5 8H20.5C20.7761 8 21 7.77614 21 7.5V6C21 4.89543 20.1046 4 19 4H18ZM17 4C17 4.55228 16.5523 5 16 5C15.4477 5 15 4.55228 15 4C15 3.44772 15.4477 3 16 3C16.5523 3 17 3.44772 17 4Z" fill="#9B9B9B"/>
<path d="M9 12.5C9 12.2239 9.22386 12 9.5 12H22.5C22.7761 12 23 12.2239 23 12.5C23 12.7761 22.7761 13 22.5 13H9.5C9.22386 13 9 12.7761 9 12.5Z" fill="#9B9B9B"/>
<path d="M9 15.5C9 15.2239 9.22386 15 9.5 15H22.5C22.7761 15 23 15.2239 23 15.5C23 15.7761 22.7761 16 22.5 16H9.5C9.22386 16 9 15.7761 9 15.5Z" fill="#9B9B9B"/>
<path d="M9.5 18C9.22386 18 9 18.2239 9 18.5C9 18.7761 9.22386 19 9.5 19H22.5C22.7761 19 23 18.7761 23 18.5C23 18.2239 22.7761 18 22.5 18H9.5Z" fill="#9B9B9B"/>
<path d="M9 21.5C9 21.2239 9.22386 21 9.5 21H17.5C17.7761 21 18 21.2239 18 21.5C18 21.7761 17.7761 22 17.5 22H9.5C9.22386 22 9 21.7761 9 21.5Z" fill="#9B9B9B"/>
</g></svg></svg></g><text x="450.00" y="227.00" text-anchor="middle" fill="#172033" font-family="Arial,sans-serif" font-size="16" font-weight="600">Morning Brief</text><g transform="translate(569.55,164.17)"><svg width="108" height="108" viewBox="0 0 144 144"><svg xmlns="http://www.w3.org/2000/svg" width="144" height="144" viewBox="0 0 144 144"><circle cx="72" cy="72" r="69" fill="#F5F8FF"/><circle cx="72" cy="72" r="67" fill="none" stroke="#49A8FF" stroke-width="3"/><g transform="translate(29 29) scale(2.6875)">
<path d="M2.52 6.84L8.97 5L9.5 16.5L8.97 27.99L2.85 29.98C2.42 30.09 2 29.76 2 29.32V7.5C2 7.19 2.22 6.92 2.52 6.84ZM15.98 7L22.97 5L23.5 16.5L22.99 28L15.98 30L15 18.5L15.98 7Z" fill="white"/>
<path d="M15.98 7L8.96997 5V27.99L15.98 30V7ZM29.4 6.84L22.97 5V28L29.06 29.98C29.49 30.09 29.91 29.76 29.91 29.32V7.5C29.91 7.19 29.7 6.92 29.4 6.84Z" fill="#E6E6E6"/>
<path d="M3.94994 8.34L8.96994 7L10 16.5L8.96994 26L4.30994 27.42C3.86994 27.54 3.43994 27.21 3.43994 26.76V9C3.43994 8.69 3.64994 8.42 3.94994 8.34ZM15.9399 9.00002L22.9699 7.02002L24 16.5L22.9699 25.99L15.9399 27.99L15 18.5L15.9399 9.00002Z" fill="#00A6ED"/>
<path d="M15.94 9.00002L8.96997 7.02002V25.99L15.94 27.99V9.00002ZM27.94 8.34001L22.97 7.02002V26.02L27.58 27.44C28.02 27.56 28.45 27.23 28.45 26.78V9.00002C28.45 8.69002 28.24 8.42001 27.94 8.34001Z" fill="#0074BA"/>
<path d="M14.32 17.64L14.85 17.11C14.9218 17.0471 15.0098 17.0085 15.0922 16.9722L15.12 16.96H15.55C15.77 16.96 15.95 16.78 15.95 16.56V16.37C15.95 16.15 15.77 15.97 15.55 15.97H15.36C15.14 15.97 14.96 15.79 14.96 15.57V14.38C14.96 14.16 15.14 13.98 15.36 13.98H15.55C15.77 13.98 15.95 13.8 15.95 13.58V13.39C15.95 13.17 16.13 12.99 16.35 12.99H17.79C17.89 12.99 17.99 12.96 18.06 12.89L19.81 11.32C19.89 11.24 19.94 11.13 19.94 11.02V10.99C19.94 10.44 20.39 9.98999 20.94 9.98999H21.34C21.67 9.98999 21.94 10.26 21.94 10.59C21.94 10.81 22.12 10.99 22.34 10.99H23.53C23.75 10.99 23.93 10.81 23.93 10.59V10.4C23.93 10.18 24.11 9.99998 24.33 9.99998H24.37C25.22 9.99998 25.92 10.69 25.92 11.55V13.49C25.92 13.77 25.7 13.99 25.42 13.99C25.14 13.99 24.92 13.77 24.92 13.49V13.39C24.92 13.17 24.74 12.99 24.52 12.99H24.33C24.11 12.99 23.93 13.17 23.93 13.39V14.58C23.93 14.8 24.11 14.98 24.33 14.98C24.61 14.98 24.81 15.27 24.7 15.53L23.82 17.72C23.76 17.87 23.61 17.97 23.45 17.97H22.33C22.11 17.97 21.93 17.79 21.93 17.57V17.38C21.93 17.16 21.75 16.98 21.53 16.98H21.34C21.12 16.98 20.94 17.16 20.94 17.38V17.57C20.94 17.79 20.76 17.97 20.54 17.97H20.35C20.13 17.97 19.95 17.79 19.95 17.57V17.38C19.95 17.16 19.77 16.98 19.55 16.98H19.36C19.14 16.98 18.96 17.16 18.96 17.38V17.88C18.96 17.94 18.95 18 18.92 18.06L18.01 19.89C17.98 19.95 17.97 20.01 17.97 20.07V21.31C17.97 21.74 17.8 22.15 17.5 22.45L17.09 22.86C17.01 22.94 16.91 22.98 16.8 22.98H16.37C16.15 22.98 15.97 22.8 15.97 22.58V20.39C15.97 20.17 15.79 19.99 15.57 19.99H15.14C15.03 19.99 14.93 19.95 14.85 19.87L14.32 19.34C14.1 19.12 13.97 18.81 13.97 18.49C13.97 18.17 14.09 17.87 14.32 17.64ZM10.97 23.49C10.97 23.77 10.75 23.99 10.47 23.99C10.2 23.99 9.96999 23.77 9.98999 23.52V22.15C9.98999 22.07 9.95999 21.99 9.89999 21.93L9.51999 21.55C9.17999 21.21 8.98999 20.74 8.98999 20.26V19.14C8.98999 19.06 8.95999 18.98 8.89999 18.92L7.64999 17.67C7.51599 17.536 7.29852 17.3867 7.06448 17.2261C6.56497 16.8832 5.98999 16.4886 5.98999 16.08V13.72C5.98999 13.5279 6.15496 13.3528 6.27578 13.2245C6.40027 13.0924 6.4779 13.01 6.27999 13.01C6.08999 13.01 5.90999 13.09 5.77999 13.22L4.51999 14.48C4.31999 14.67 3.98999 14.54 3.98999 14.26V14.13C3.98999 14.05 4.01999 13.97 4.07999 13.91L4.31999 13.67C4.73999 13.25 4.97999 12.67 4.97999 12.07V11.7C4.97999 11.32 5.28999 11.01 5.66999 11.01H6.28999C6.66999 11.01 6.97999 11.32 6.97999 11.7C6.97999 11.87 7.11999 12.01 7.28999 12.01H7.38999C7.84999 12.01 8.28999 11.82 8.59999 11.48L9.21999 10.81C9.69999 10.3 10.37 10.01 11.07 10.01H12.67C13.39 10.01 13.97 10.59 13.97 11.31C13.97 11.76 13.79 12.19 13.47 12.51L13.06 12.92C13 12.98 12.97 13.06 12.97 13.14V13.51C12.97 13.79 12.75 14.01 12.47 14.01C12.19 14.01 11.97 13.79 11.97 13.51V11.51C11.97 11.23 11.75 11.01 11.47 11.01C11.19 11.01 10.97 11.23 10.97 11.51V11.7C10.97 11.87 10.83 12.01 10.66 12.01H9.87999C9.69999 12.01 9.55999 12.15 9.56999 12.33L9.58999 12.68C9.59999 12.85 9.45999 13 9.27999 13C9.10999 13 8.96999 13.14 8.96999 13.31V13.5C8.96999 13.78 9.18999 14 9.46999 14C9.74999 14 9.96999 13.78 9.96999 13.5C9.96999 13.22 10.19 13 10.47 13C10.75 13 10.97 13.22 10.97 13.5V13.87C10.97 13.95 11 14.03 11.06 14.09L11.75 14.78C11.87 14.9 11.87 15.1 11.75 15.22L11.46 15.51C11.15 15.82 10.72 16 10.28 16C10.11 16 9.96999 16.14 9.96999 16.31V16.5C9.96999 16.78 9.74999 17 9.46999 17C9.18999 17 8.96999 16.78 8.96999 16.5V16.31C8.96999 16.14 8.82999 16 8.65999 16H8.27999C8.10999 16 7.96999 16.14 7.96999 16.31V16.87C7.96999 16.95 7.99999 17.03 8.05999 17.09L9.87999 18.91C9.93999 18.97 10.02 19 10.1 19H10.54C10.82 19 11.1 19.06 11.35 19.19L12.52 19.77C12.8 19.9 12.97 20.18 12.97 20.49C12.97 20.79 12.79 21.07 12.52 21.21L11.91 21.52C11.33 21.81 10.97 22.39 10.97 23.04V23.49ZM21.97 19.51C21.97 19.82 22.08 20.12 22.27 20.36L22.48 20.61C22.78 20.98 23.27 21.15 23.73 21.04C23.87 21.01 23.97 20.88 23.97 20.74V20.37C23.97 20.21 24.09 20.08 24.24 20.06L24.39 20.04C24.7 20.01 24.97 20.25 24.97 20.56C24.97 20.8 25.14 21.02 25.38 21.07L25.6 21.12C25.79 21.16 25.97 21.02 25.97 20.82V19.98C25.97 19.43 25.52 18.98 24.97 18.98H24.11C24.02 18.98 23.94 19.02 23.88 19.08L23.51 19.49C23.32 19.7 22.97 19.57 22.97 19.28C22.97 19.11 22.83 18.97 22.66 18.97H22.28C22.11 18.99 21.97 19.13 21.97 19.3V19.51ZM23.47 24C23.19 24 22.97 23.78 22.97 23.5V22.83C22.97 22.37 23.34 21.99 23.8 21.99H25.41C25.72 21.99 25.97 22.24 25.97 22.55V23.5C25.97 23.78 25.75 24 25.47 24H23.47Z" fill="#00D26A"/>
</g></svg></svg></g><text x="623.55" y="290.17" text-anchor="middle" fill="#172033" font-family="Arial,sans-serif" font-size="16" font-weight="600">Prime This Session</text><g transform="translate(661.90,324.11)"><svg width="108" height="108" viewBox="0 0 144 144"><svg xmlns="http://www.w3.org/2000/svg" width="144" height="144" viewBox="0 0 144 144"><circle cx="72" cy="72" r="69" fill="#F5F8FF"/><circle cx="72" cy="72" r="67" fill="none" stroke="#49A8FF" stroke-width="3"/><g transform="translate(29 29) scale(2.6875)">
<path d="M9.52777 7C4.83335 7 1.02777 10.8056 1.02777 15.5V22.5C1.02777 27.1944 4.83335 31 9.52777 31C12.1363 31 14.4695 29.8246 16.0278 27.9773C17.5861 29.8246 19.9193 31 22.5278 31C27.2222 31 31.0278 27.1944 31.0278 22.5V15.5C31.0278 10.8056 27.2222 7 22.5278 7C19.9193 7 17.5861 8.17537 16.0278 10.0227C14.4695 8.17537 12.1363 7 9.52777 7Z" fill="#9B9B9B"/>
<path d="M9.52777 8C5.38564 8 2.02777 11.3579 2.02777 15.5V22.5C2.02777 26.6421 5.38564 30 9.52777 30C12.3062 30 14.7318 28.4891 16.0278 26.2442C17.3237 28.4891 19.7493 30 22.5278 30C26.6699 30 30.0278 26.6421 30.0278 22.5V15.5C30.0278 11.3579 26.6699 8 22.5278 8C19.7493 8 17.3237 9.51086 16.0278 11.7558C14.7318 9.51086 12.3062 8 9.52777 8Z" fill="white"/>
<path d="M15.0278 15.5C15.0278 14.1363 15.3917 12.8577 16.0278 11.7558C15.1755 10.2794 13.8345 9.12044 12.226 8.5H12.059C13.1528 9.15625 13.9965 11.75 13.9965 13V25.125C13.9965 26.4997 13.8403 28.2181 12.06 29.5618C13.7422 28.9585 15.1463 27.7711 16.0278 26.2442C15.3917 25.1423 15.0278 23.8637 15.0278 22.5V15.5Z" fill="#D3D3D3"/>
<path d="M30.0278 15.5C30.0278 12.309 28.035 9.58346 25.226 8.5H25.059C26.7153 9.59375 27.9653 11.5625 27.9653 13.0312V25C27.9653 26.3747 26.8407 28.2181 25.06 29.5618C27.9561 28.5231 30.0278 25.7535 30.0278 22.5V15.5Z" fill="#D3D3D3"/>
<path d="M6.59027 13C4.65727 13 3.09027 14.567 3.09027 16.5V21.5C3.09027 23.433 4.65727 25 6.59027 25C8.52327 25 10.0903 23.433 10.0903 21.5V16.5C10.0903 14.567 8.52327 13 6.59027 13Z" fill="#321B41"/>
<path d="M19.5278 13C17.5948 13 16.0278 14.567 16.0278 16.5V21.5C16.0278 23.433 17.5948 25 19.5278 25C21.4608 25 23.0278 23.433 23.0278 21.5V16.5C23.0278 14.567 21.4608 13 19.5278 13Z" fill="#321B41"/>
<path d="M8.76628 16.861C9.13773 16.5518 9.12055 15.9188 8.7279 15.4471C8.33525 14.9754 7.71583 14.8437 7.34438 15.1528C6.97294 15.462 6.99012 16.0951 7.38277 16.5668C7.77541 17.0385 8.39483 17.1702 8.76628 16.861Z" fill="#F4F4F4"/>
<path d="M21.7629 16.861C22.1343 16.5518 22.1171 15.9188 21.7245 15.4471C21.3318 14.9754 20.7124 14.8437 20.341 15.1528C19.9695 15.462 19.9867 16.0951 20.3793 16.5668C20.772 17.0385 21.3914 17.1702 21.7629 16.861Z" fill="#F4F4F4"/>
</g></svg></svg></g><text x="715.90" y="450.11" text-anchor="middle" fill="#172033" font-family="Arial,sans-serif" font-size="16" font-weight="600">What Changed</text><text x="715.90" y="469.11" text-anchor="middle" fill="#172033" font-family="Arial,sans-serif" font-size="16" font-weight="600">Overnight</text><g transform="translate(629.83,506.00)"><svg width="108" height="108" viewBox="0 0 144 144"><svg xmlns="http://www.w3.org/2000/svg" width="144" height="144" viewBox="0 0 144 144"><circle cx="72" cy="72" r="69" fill="#F5F8FF"/><circle cx="72" cy="72" r="67" fill="none" stroke="#45D5CC" stroke-width="3"/><g transform="translate(29 29) scale(2.6875)">
<path d="M2 9.00001L15.2666 6.15716C15.7501 6.05357 16.2499 6.05357 16.7334 6.15716L30 9.00001V24.8C30 27.6719 27.6719 30 24.8 30H7.2C4.32812 30 2 27.6719 2 24.8V9.00001Z" fill="#B4ACBC"/>
<path d="M3 8.00005L15.213 5.18167C15.7309 5.06216 16.2691 5.06216 16.787 5.18167L29 8.00005V24.5001C29 26.9853 26.9853 29.0001 24.5 29.0001H7.5C5.01472 29.0001 3 26.9853 3 24.5001V8.00005Z" fill="#F3EEF8"/>
<path d="M7.9998 12C7.88935 12 7.7998 12.0895 7.7998 12.2V14.8C7.7998 14.9105 7.88935 15 7.9998 15H10.7998C10.9103 15 10.9998 14.9105 10.9998 14.8V12.2C10.9998 12.0895 10.9103 12 10.7998 12H7.9998Z" fill="#998EA4"/>
<path d="M7.9998 17.5C7.88935 17.5 7.7998 17.5895 7.7998 17.7V20.3C7.7998 20.4105 7.88935 20.5 7.9998 20.5H10.7998C10.9103 20.5 10.9998 20.4105 10.9998 20.3V17.7C10.9998 17.5895 10.9103 17.5 10.7998 17.5H7.9998Z" fill="#998EA4"/>
<path d="M7.7998 23.1C7.7998 22.9896 7.88935 22.9 7.9998 22.9H10.7998C10.9103 22.9 10.9998 22.9896 10.9998 23.1V25.7C10.9998 25.8105 10.9103 25.9 10.7998 25.9H7.9998C7.88935 25.9 7.7998 25.8105 7.7998 25.7V23.1Z" fill="#998EA4"/>
<path d="M14.5998 12C14.4893 12 14.3998 12.0895 14.3998 12.2V14.8C14.3998 14.9105 14.4893 15 14.5998 15H17.3998C17.5102 15 17.5998 14.9105 17.5998 14.8V12.2C17.5998 12.0895 17.5102 12 17.3998 12H14.5998Z" fill="#998EA4"/>
<path d="M14.3998 17.7C14.3998 17.5895 14.4893 17.5 14.5998 17.5H17.3998C17.5102 17.5 17.5998 17.5895 17.5998 17.7V20.3C17.5998 20.4105 17.5102 20.5 17.3998 20.5H14.5998C14.4893 20.5 14.3998 20.4105 14.3998 20.3V17.7Z" fill="#998EA4"/>
<path d="M14.5998 22.9C14.4893 22.9 14.3998 22.9896 14.3998 23.1V25.7C14.3998 25.8105 14.4893 25.9 14.5998 25.9H17.3998C17.5102 25.9 17.5998 25.8105 17.5998 25.7V23.1C17.5998 22.9896 17.5102 22.9 17.3998 22.9H14.5998Z" fill="#998EA4"/>
<path d="M20.9998 12.2C20.9998 12.0895 21.0894 12 21.1998 12H23.9998C24.1103 12 24.1998 12.0895 24.1998 12.2V14.8C24.1998 14.9105 24.1103 15 23.9998 15H21.1998C21.0894 15 20.9998 14.9105 20.9998 14.8V12.2Z" fill="#998EA4"/>
<path d="M21.1998 22.9C21.0894 22.9 20.9998 22.9896 20.9998 23.1V25.7C20.9998 25.8105 21.0894 25.9 21.1998 25.9H23.9998C24.1103 25.9 24.1998 25.8105 24.1998 25.7V23.1C24.1998 22.9896 24.1103 22.9 23.9998 22.9H21.1998Z" fill="#998EA4"/>
<path d="M7.2 2C4.32812 2 2 4.32812 2 7.2V9H30V7.2C30 4.32812 27.6719 2 24.8 2H7.2Z" fill="#0084CE"/>
<path d="M21.2 17.5C21.0895 17.5 21 17.5895 21 17.7V20.3C21 20.4105 21.0895 20.5 21.2 20.5H24C24.1105 20.5 24.2 20.4105 24.2 20.3V17.7C24.2 17.5895 24.1105 17.5 24 17.5H21.2Z" fill="#0084CE"/>
</g></svg></svg></g><text x="683.83" y="632.00" text-anchor="middle" fill="#172033" font-family="Arial,sans-serif" font-size="16" font-weight="600">Deadline Radar</text><g transform="translate(488.35,624.72)"><svg width="108" height="108" viewBox="0 0 144 144"><svg xmlns="http://www.w3.org/2000/svg" width="144" height="144" viewBox="0 0 144 144"><circle cx="72" cy="72" r="69" fill="#F5F8FF"/><circle cx="72" cy="72" r="67" fill="none" stroke="#45D5CC" stroke-width="3"/><g transform="translate(29 29) scale(2.6875)">
<path d="M23.6231 21.4249L24.6179 22.4209C25.1551 22.9587 26.0206 22.9587 26.5578 22.4209L29.7015 19.2737C30.0995 18.8753 30.0995 18.2379 29.7015 17.8395L23.8718 12.0033C23.6927 11.824 23.6927 11.5452 23.8718 11.3659C23.9812 11.2564 24.1304 11.2165 24.2697 11.2464C25.2148 11.4058 26.2196 11.1269 26.9458 10.3999C28.1496 9.19476 28.1396 7.23276 26.916 6.03762L26.0604 5.17115L25.6724 5.30063C24.6975 5.0118 23.6032 5.22095 22.7973 5.91811C21.9617 6.64515 21.6234 7.71081 21.7826 8.70675C21.8025 8.85614 21.7627 8.99557 21.6533 9.10513L21.6334 9.12505C21.4543 9.30432 21.1758 9.30432 20.9967 9.12505L15.1669 3.29878C14.769 2.90041 14.1323 2.90041 13.7343 3.29878L10.6205 6.41608C10.5409 6.49576 10.4812 6.58539 10.4215 6.67503L10.2126 6.46588L9.47642 7.20288L10.6205 8.34821L10.6404 8.36813C10.9189 8.64699 11.297 8.79638 11.685 8.77647C12.5803 8.73663 13.4956 9.08521 14.1422 9.83216C15.1271 10.9675 15.1371 12.6905 14.1422 13.8359C12.9683 15.1903 10.9189 15.2501 9.66544 14.0052C9.01879 13.3578 8.72034 12.5013 8.78003 11.6547C8.79993 11.2663 8.66065 10.8879 8.38209 10.609C8.37214 10.5891 8.3622 10.5791 8.35225 10.5692L7.3773 9.59314L6.94952 10.0314L7.13854 10.2206C6.87988 10.2704 6.64112 10.3999 6.44215 10.599L3.29845 13.7462C2.90052 14.1446 2.90052 14.782 3.29845 15.1804L9.13817 21.0266C9.31724 21.2058 9.31724 21.4847 9.13817 21.664C9.02874 21.7735 8.87951 21.8134 8.74024 21.7835C7.73545 21.6142 6.66102 21.9428 5.92483 22.7794C4.92999 23.9148 4.92004 25.6477 5.91489 26.7931C7.0888 28.1475 9.13817 28.2073 10.3917 26.9524C11.108 26.2353 11.3965 25.2394 11.2472 24.3132C11.2273 24.1638 11.2671 24.0243 11.3766 23.9148L11.3965 23.8949C11.5755 23.7156 11.8541 23.7156 12.0332 23.8949L17.8331 29.7012C18.231 30.0996 18.8677 30.0996 19.2657 29.7012L22.3795 26.5839C22.9167 26.0461 22.9167 25.1796 22.3795 24.6418L22.3596 24.6219L21.4742 23.7355L21.0862 24.1239L21.1957 24.2335C20.3401 24.2335 19.4845 23.8849 18.8677 23.1778C17.8828 22.0424 17.8729 20.3194 18.8677 19.1741C20.0416 17.8196 22.091 17.7599 23.3445 19.0048C23.8618 19.5227 24.1603 20.19 24.22 20.8672L24.2001 20.8473L23.6231 21.4249Z" fill="#D3D3D3"/>
<path d="M21.7702 4.90923C20.9348 5.63653 20.5967 6.70258 20.7558 7.69889C20.7757 7.84834 20.7359 7.98782 20.6265 8.09742L20.6066 8.11734C20.4276 8.29668 20.1492 8.29668 19.9702 8.11734L14.1525 2.29889C13.7547 1.90037 13.1182 1.90037 12.7204 2.29889L9.60773 5.41734C9.07072 5.95535 9.07072 6.82214 9.60773 7.36015L9.63757 7.38007C9.90608 7.64908 10.284 7.79852 10.6718 7.7786C11.5669 7.73875 12.4818 8.08745 13.1282 8.83469C14.1127 9.97048 14.1227 11.6941 13.1282 12.8399C11.9547 14.1948 9.90608 14.2546 8.65304 13.0092C8.01657 12.3517 7.71823 11.4948 7.76796 10.648C7.79779 10.2594 7.64862 9.87085 7.37017 9.60185C6.83315 9.06384 5.96796 9.06384 5.43094 9.60185L2.29834 12.7402C1.90055 13.1387 1.90055 13.7764 2.29834 14.1749L8.13591 20.0232C8.31492 20.2026 8.31492 20.4815 8.13591 20.6609C8.02652 20.7705 7.87735 20.8103 7.73812 20.7804C6.7337 20.6111 5.65967 20.9399 4.92376 21.7768C3.92928 22.9125 3.91934 24.6461 4.91381 25.7919C6.08729 27.1469 8.13591 27.2066 9.38895 25.9513C10.105 25.2339 10.3934 24.2376 10.2442 23.3111C10.2243 23.1616 10.2641 23.0221 10.3735 22.9125L10.3934 22.8926C10.5724 22.7133 10.8508 22.7133 11.0298 22.8926L16.8276 28.7011C17.2254 29.0996 17.8619 29.0996 18.2597 28.7011L21.3724 25.5827C21.9094 25.0447 21.9094 24.1779 21.3724 23.6399L21.3525 23.6199C21.084 23.3509 20.7061 23.2015 20.3182 23.2214C19.4232 23.2613 18.5083 22.9125 17.8619 22.1653C16.8773 21.0295 16.8674 19.3059 17.8619 18.1601C19.0354 16.8052 21.084 16.7454 22.337 17.9908C22.9834 18.6384 23.2818 19.4952 23.2221 20.3421C23.2022 20.7306 23.3414 21.1092 23.6199 21.3882C24.1569 21.9262 25.0221 21.9262 25.5591 21.3882L28.7017 18.2399C29.0994 17.8413 29.0994 17.2037 28.7017 16.8052L22.874 10.9668C22.695 10.7875 22.695 10.5085 22.874 10.3292C22.9834 10.2196 23.1326 10.1797 23.2718 10.2096C24.2166 10.369 25.221 10.09 25.947 9.36273C27.1901 8.11734 27.1403 6.05498 25.7779 4.87934C24.6243 3.92288 22.9039 3.92288 21.7702 4.90923Z" fill="#C3EF3C"/>
</g></svg></svg></g><text x="542.35" y="750.72" text-anchor="middle" fill="#172033" font-family="Arial,sans-serif" font-size="16" font-weight="600">Top Blocker</text><g transform="translate(303.65,624.72)"><svg width="108" height="108" viewBox="0 0 144 144"><svg xmlns="http://www.w3.org/2000/svg" width="144" height="144" viewBox="0 0 144 144"><circle cx="72" cy="72" r="69" fill="#F5F8FF"/><circle cx="72" cy="72" r="67" fill="none" stroke="#55D99B" stroke-width="3"/><g transform="translate(29 29) scale(2.6875)">
<path d="M11.4063 6.15625C6.13126 5.50625 4.25001 8.15625 3.34376 9.37501C0.875013 13.0156 2.35939 17.0156 4.15626 18.9375C4.15626 18.9375 14.25 28.7656 14.5313 29.0312C14.8125 29.2969 15.4766 30.2031 17.0781 29.9453C18.4757 29.7203 18.875 28.0312 18.875 28.0312C18.875 28.0312 19.9073 28.8731 21.3906 28.0312C22.5469 27.375 22.5 26.0625 22.5 26.0625C22.5 26.0625 23.7383 26.6829 25.0625 25.5625C26.2553 24.5532 25.5156 22.7812 25.5156 22.7812C25.5156 22.7812 26.5856 22.9571 27.3438 22.125C28.3688 21 28.0156 19.5781 27.3438 18.9375L19.625 10.5L19.0313 7.375L11.4063 6.15625Z" fill="#FFC83D"/>
<path d="M26.7074 22.5933L24.4809 20.3364C24.287 20.1398 23.9704 20.1376 23.7739 20.3315C23.5773 20.5255 23.5751 20.8421 23.769 21.0386L25.5334 22.8272C25.5223 22.7973 25.5156 22.7812 25.5156 22.7812C25.5156 22.7812 26.0977 22.8769 26.7074 22.5933Z" fill="#D67D00"/>
<path d="M23.9779 26.1509L21.6684 23.5872C21.4835 23.382 21.1674 23.3656 20.9622 23.5504C20.757 23.7352 20.7406 24.0514 20.9254 24.2565L22.5845 26.0983C22.7836 26.1741 23.3157 26.3302 23.9779 26.1509Z" fill="#D67D00"/>
<path d="M20.5759 28.351L18.7698 26.438C18.5802 26.2372 18.2638 26.2281 18.063 26.4177C17.8622 26.6073 17.8531 26.9237 18.0427 27.1245L18.9471 28.0824C19.1457 28.2124 19.7417 28.5326 20.5759 28.351Z" fill="#D67D00"/>
<path d="M18.4033 29.0535C17.6442 29.2557 16.2359 29.3193 15.2656 28.2812L14.4899 28.9916C14.51 29.011 14.524 29.0244 14.5313 29.0312C14.5602 29.0586 14.5932 29.0927 14.6309 29.1317C14.9591 29.4711 15.6414 30.1766 17.0781 29.9453C17.6998 29.8452 18.124 29.4554 18.4033 29.0535Z" fill="#D67D00"/>
<path d="M6.375 6.8125C4.6875 8.97916 2.0875 14.5875 6.6875 18.4375L5.24045 19.9931C4.5734 19.3437 4.15626 18.9375 4.15626 18.9375C2.35939 17.0156 0.875013 13.0156 3.34376 9.375C3.35716 9.35698 3.37078 9.33864 3.38461 9.32C3.90872 8.61416 4.74999 7.48117 6.33357 6.75266L6.375 6.8125Z" fill="#F59F00"/>
<path d="M17.25 23.6875C18.4531 25.0781 16.9492 26.8496 16.25 27.5938L5.66868 16.5845C7.64313 14.5816 8.94702 14.3814 9.82813 15.25C10.7092 16.1186 10.2969 16.7344 10.2969 16.7344C10.2969 16.7344 11.4909 16.0557 12.75 17.2969C14.0091 18.5381 13.1406 19.4844 13.1406 19.4844C13.1406 19.4844 14.44 19.2504 15.3594 20.2812C16.3906 21.4375 15.7344 22.7812 15.7344 22.7812C15.7344 22.7812 16.5248 22.8493 17.25 23.6875Z" fill="#D67D00"/>
<path d="M12.4375 8C15.6719 6.70313 20.5781 6.04688 22.8281 6.01562C24.3594 6.01562 26.3091 6.38659 28.375 8.8125C31.6748 12.6873 29.2031 17.1094 27.25 18.9062V17.5C27.25 17.5 19.7436 10.9644 19.5 10.7344C19.05 10.3094 17.1979 10.4375 17 10.5C16.3958 10.6875 15.35 11 14 11.5C12.9023 11.9066 12.0312 11.5781 11.6718 10.7344C11.3124 9.89062 10.8297 8.64466 12.4375 8Z" fill="#FFC83D"/>
<path d="M28.3106 17.7099C27.9645 18.1804 27.599 18.5852 27.25 18.9063C24.4896 16.5 18.8719 11.5813 18.4219 11.1563C17.9719 10.7313 17.4479 10.75 17.25 10.8125C16.6458 11 15.1 11.5 13.75 12C12.6523 12.4066 11.5469 11.5781 11.1875 10.7344C10.8589 9.96292 10.8321 8.85521 12.0589 8.17831L12.69 7.90133C12.7068 7.89496 12.7235 7.8886 12.7403 7.88226C10.7869 9.34968 12.5116 11.1435 14.125 10.9375C14.6919 10.8651 15.625 10.6719 16.5313 10.4375C16.8909 10.3445 17.2439 10.1794 17.5771 10.0236C18.2021 9.73124 18.7575 9.47151 19.1563 9.78126C20.6561 10.9462 25.1333 14.7492 28.3106 17.7099Z" fill="#D67D00"/>
<path d="M8.81945 16.8786C8.07602 15.9154 6.69251 15.7372 5.72929 16.4806L3.81252 18.1016C2.92972 18.836 2.70107 20.2103 3.34614 21.103C3.93006 21.9111 4.82674 22.2447 5.64863 22.0112C5.28362 22.846 5.31493 23.914 6.01567 24.5001C6.67051 25.0477 7.47952 25.423 8.29069 25.1697C8.21346 25.7052 8.3713 26.2914 8.92192 26.875C9.44191 27.4262 10.1973 27.7006 11.0083 27.5183C10.9011 28.0902 11.0818 28.7257 11.7507 29.3711C12.57 30.1616 13.8311 30.2288 15.0157 29.1407L15.7879 28.241C16.4082 27.461 17.2658 26.1055 15.9844 24.9532C15.5412 24.5547 15.0316 24.3341 14.5026 24.3327C14.7901 23.6321 14.7847 22.7748 13.9532 21.9532C13.4334 21.4396 12.7958 21.2165 12.0932 21.3852C12.473 20.5766 12.4644 19.7523 11.7032 19.0001C11.0118 18.3169 10.1604 17.9929 9.06004 18.6091C9.25414 18.0144 9.20803 17.3821 8.81945 16.8786Z" fill="#FFC83D"/>
<path d="M9.03352 17.2422L4.31006 21.9066C4.72783 22.0935 5.1834 22.1356 5.61931 22.0191L9.08879 18.593C9.0792 18.5983 9.0696 18.6036 9.05998 18.609C9.20968 18.1502 9.2165 17.6692 9.03352 17.2422Z" fill="#D67D00"/>
<path d="M12.2463 19.8263L6.95856 25.0846C7.38419 25.2563 7.83707 25.3112 8.29063 25.1696C8.29067 25.1693 8.29059 25.1698 8.29063 25.1696L12.0982 21.3838C12.0965 21.3842 12.0948 21.3846 12.0932 21.385C12.3378 20.8641 12.4213 20.3367 12.2463 19.8263Z" fill="#D67D00"/>
<path d="M14.5732 22.8968L9.65496 27.3953C10.0587 27.5722 10.5196 27.6262 11.0004 27.5199L14.5129 24.3071C14.683 23.8795 14.7429 23.3951 14.5732 22.8968Z" fill="#D67D00"/>
</g></svg></svg></g><text x="357.65" y="750.72" text-anchor="middle" fill="#172033" font-family="Arial,sans-serif" font-size="16" font-weight="600">Client Fires Scan</text><g transform="translate(162.17,506.00)"><svg width="108" height="108" viewBox="0 0 144 144"><svg xmlns="http://www.w3.org/2000/svg" width="144" height="144" viewBox="0 0 144 144"><circle cx="72" cy="72" r="69" fill="#F5F8FF"/><circle cx="72" cy="72" r="67" fill="none" stroke="#55D99B" stroke-width="3"/><g transform="translate(29 29) scale(2.6875)">
<path d="M2 6C2 3.79086 3.79086 2 6 2H26C27.6999 2 29.1521 3.06033 29.7313 4.55565L29.1461 6.33236L30 7.17778V26C30 28.2091 28.2091 30 26 30H6C4.11588 30 2.53602 28.6973 2.11192 26.9435L2.78222 25.0512L2 24.3404V6Z" fill="#E1D8EC"/>
<path d="M10 11V21H2V22H10V30H11V22H21V30H22V22H30V21H22V11H30V10H22V2H21V10H11V2H10V10H2V11H10ZM11 11H21V21H11V11Z" fill="#B4ACBC"/>
<path d="M2.11995 26.9761C2.0416 26.6637 2 26.3367 2 26V24.2988L9.06209 17.3261C9.90713 16.4917 11.2618 16.4786 12.1229 17.2964L14.2711 19.3369C14.4679 19.5238 14.7779 19.5196 14.9696 19.3273L29.7216 4.53076C29.9013 4.98559 30 5.48125 30 5.99997V7.18702L16.1318 20.9016C15.2906 21.7334 13.9423 21.7512 13.0796 20.9417L10.9297 18.9247C10.7335 18.7406 10.4268 18.7448 10.2357 18.9342L2.11995 26.9761Z" fill="#319FE7"/>
</g></svg></svg></g><text x="216.17" y="632.00" text-anchor="middle" fill="#172033" font-family="Arial,sans-serif" font-size="16" font-weight="600">Money Scan</text><g transform="translate(130.10,324.11)"><svg width="108" height="108" viewBox="0 0 144 144"><svg xmlns="http://www.w3.org/2000/svg" width="144" height="144" viewBox="0 0 144 144"><circle cx="72" cy="72" r="69" fill="#F5F8FF"/><circle cx="72" cy="72" r="67" fill="none" stroke="#B99BFF" stroke-width="3"/><g transform="translate(29 29) scale(2.6875)">
<path d="M19.949 11.75H23.969C24.389 11.75 24.719 11.41 24.719 11C24.719 10.59 24.379 10.25 23.969 10.25H19.949C19.569 10.25 19.219 10.07 18.999 9.76999L16.629 6.51999C16.4584 6.2948 16.1854 6.19068 15.9243 6.22353C15.6985 6.22945 15.4794 6.33695 15.339 6.52999L12.969 9.76999C12.749 10.07 12.389 10.25 12.019 10.25H7.99902C7.58902 10.25 7.24902 10.59 7.24902 11C7.24902 11.41 7.58902 11.75 7.99902 11.75H12.019C12.869 11.75 13.679 11.34 14.179 10.66L15.9877 8.1874L17.789 10.65C18.289 11.34 19.099 11.75 19.949 11.75Z" fill="#9B9B9B"/>
<path d="M15.249 4H16.749V28H15.249V4ZM13.0391 20.73C13.1291 20.88 13.2991 20.96 13.4591 20.96C13.5491 20.96 13.6391 20.94 13.6991 20.88C13.9291 20.73 13.9991 20.42 13.8491 20.19L8.47739 11.8516C8.41545 11.646 8.22717 11.5 7.99907 11.5C7.83813 11.5 7.54907 11.77 7.54907 11.77L2.15907 20.15C2.08907 20.23 2.04907 20.34 2.04907 20.46C2.04907 20.74 2.26907 20.96 2.54907 20.96C2.71907 20.96 2.87907 20.87 2.96907 20.73L7.49902 13.6964V20.8C7.49902 21.08 7.71902 21.3 7.99902 21.3C8.27902 21.3 8.49902 21.08 8.49902 20.8V13.6947L13.0391 20.73ZM29.0391 20.73C29.1291 20.88 29.2991 20.96 29.4591 20.96C29.5491 20.96 29.6391 20.94 29.6991 20.88C29.9291 20.73 29.9991 20.42 29.8491 20.19L24.4774 11.8516C24.4154 11.646 24.2272 11.5 23.9991 11.5C23.8381 11.5 23.64 11.655 23.5491 11.77L18.1591 20.15C18.0891 20.23 18.0491 20.34 18.0491 20.46C18.0491 20.74 18.2691 20.96 18.5491 20.96C18.7191 20.96 18.8791 20.87 18.9691 20.73L23.499 13.6964V20.8C23.499 21.08 23.719 21.3 23.999 21.3C24.279 21.3 24.499 21.08 24.499 20.8V13.6947L29.0391 20.73Z" fill="#D3D3D3"/>
<path d="M17.5891 3.59C17.5891 4.46813 16.8772 5.18 15.9991 5.18C15.1209 5.18 14.4091 4.46813 14.4091 3.59C14.4091 2.71187 15.1209 2 15.9991 2C16.8772 2 17.5891 2.71187 17.5891 3.59Z" fill="#F9C23C"/>
<path d="M9.58906 11C9.58906 11.8781 8.87719 12.59 7.99906 12.59C7.12092 12.59 6.40906 11.8781 6.40906 11C6.40906 10.1219 7.12092 9.41 7.99906 9.41C8.87719 9.41 9.58906 10.1219 9.58906 11Z" fill="#F9C23C"/>
<path d="M2.01904 20.64C1.92904 20.32 2.16904 20 2.50904 20H13.489C13.829 20 14.069 20.32 13.979 20.64C13.239 23.2 10.849 25 7.99904 25C5.14904 25 2.75904 23.2 2.01904 20.64Z" fill="#F9C23C"/>
<path d="M18.019 20.64C17.929 20.32 18.169 20 18.509 20H29.489C29.829 20 30.069 20.32 29.979 20.64C29.239 23.2 26.849 25 23.999 25C21.149 25 18.759 23.2 18.019 20.64Z" fill="#F9C23C"/>
<path d="M23.3991 30C23.8791 30 24.1091 29.42 23.7591 29.09C21.7391 27.17 19.0091 26 15.9991 26C12.9891 26 10.2591 27.17 8.23908 29.09C7.88908 29.42 8.11908 30 8.59908 30H23.3991Z" fill="#F9C23C"/>
<path d="M23.9991 12.59C24.8772 12.59 25.5891 11.8781 25.5891 11C25.5891 10.1219 24.8772 9.41 23.9991 9.41C23.1209 9.41 22.4091 10.1219 22.4091 11C22.4091 11.8781 23.1209 12.59 23.9991 12.59Z" fill="#F9C23C"/>
</g></svg></svg></g><text x="184.10" y="450.11" text-anchor="middle" fill="#172033" font-family="Arial,sans-serif" font-size="16" font-weight="600">Pick My Battles</text><g transform="translate(222.45,164.17)"><svg width="108" height="108" viewBox="0 0 144 144"><svg xmlns="http://www.w3.org/2000/svg" width="144" height="144" viewBox="0 0 144 144"><circle cx="72" cy="72" r="69" fill="#F5F8FF"/><circle cx="72" cy="72" r="67" fill="none" stroke="#45D5CC" stroke-width="3"/><g transform="translate(29 29) scale(2.6875)">
<path d="M2 9.00001L15.2666 6.15716C15.7501 6.05357 16.2499 6.05357 16.7334 6.15716L30 9.00001V24.8C30 27.6719 27.6719 30 24.8 30H7.2C4.32812 30 2 27.6719 2 24.8V9.00001Z" fill="#B4ACBC"/>
<path d="M3 8.00005L15.213 5.18167C15.7309 5.06216 16.2691 5.06216 16.787 5.18167L29 8.00005V24.5001C29 26.9853 26.9853 29.0001 24.5 29.0001H7.5C5.01472 29.0001 3 26.9853 3 24.5001V8.00005Z" fill="#F3EEF8"/>
<path d="M7.9998 12C7.88935 12 7.7998 12.0895 7.7998 12.2V14.8C7.7998 14.9105 7.88935 15 7.9998 15H10.7998C10.9103 15 10.9998 14.9105 10.9998 14.8V12.2C10.9998 12.0895 10.9103 12 10.7998 12H7.9998Z" fill="#998EA4"/>
<path d="M7.9998 17.5C7.88935 17.5 7.7998 17.5895 7.7998 17.7V20.3C7.7998 20.4105 7.88935 20.5 7.9998 20.5H10.7998C10.9103 20.5 10.9998 20.4105 10.9998 20.3V17.7C10.9998 17.5895 10.9103 17.5 10.7998 17.5H7.9998Z" fill="#998EA4"/>
<path d="M7.7998 23.1C7.7998 22.9896 7.88935 22.9 7.9998 22.9H10.7998C10.9103 22.9 10.9998 22.9896 10.9998 23.1V25.7C10.9998 25.8105 10.9103 25.9 10.7998 25.9H7.9998C7.88935 25.9 7.7998 25.8105 7.7998 25.7V23.1Z" fill="#998EA4"/>
<path d="M14.5998 12C14.4893 12 14.3998 12.0895 14.3998 12.2V14.8C14.3998 14.9105 14.4893 15 14.5998 15H17.3998C17.5102 15 17.5998 14.9105 17.5998 14.8V12.2C17.5998 12.0895 17.5102 12 17.3998 12H14.5998Z" fill="#998EA4"/>
<path d="M14.3998 17.7C14.3998 17.5895 14.4893 17.5 14.5998 17.5H17.3998C17.5102 17.5 17.5998 17.5895 17.5998 17.7V20.3C17.5998 20.4105 17.5102 20.5 17.3998 20.5H14.5998C14.4893 20.5 14.3998 20.4105 14.3998 20.3V17.7Z" fill="#998EA4"/>
<path d="M14.5998 22.9C14.4893 22.9 14.3998 22.9896 14.3998 23.1V25.7C14.3998 25.8105 14.4893 25.9 14.5998 25.9H17.3998C17.5102 25.9 17.5998 25.8105 17.5998 25.7V23.1C17.5998 22.9896 17.5102 22.9 17.3998 22.9H14.5998Z" fill="#998EA4"/>
<path d="M20.9998 12.2C20.9998 12.0895 21.0894 12 21.1998 12H23.9998C24.1103 12 24.1998 12.0895 24.1998 12.2V14.8C24.1998 14.9105 24.1103 15 23.9998 15H21.1998C21.0894 15 20.9998 14.9105 20.9998 14.8V12.2Z" fill="#998EA4"/>
<path d="M21.1998 22.9C21.0894 22.9 20.9998 22.9896 20.9998 23.1V25.7C20.9998 25.8105 21.0894 25.9 21.1998 25.9H23.9998C24.1103 25.9 24.1998 25.8105 24.1998 25.7V23.1C24.1998 22.9896 24.1103 22.9 23.9998 22.9H21.1998Z" fill="#998EA4"/>
<path d="M7.2 2C4.32812 2 2 4.32812 2 7.2V9H30V7.2C30 4.32812 27.6719 2 24.8 2H7.2Z" fill="#0084CE"/>
<path d="M21.2 17.5C21.0895 17.5 21 17.5895 21 17.7V20.3C21 20.4105 21.0895 20.5 21.2 20.5H24C24.1105 20.5 24.2 20.4105 24.2 20.3V17.7C24.2 17.5895 24.1105 17.5 24 17.5H21.2Z" fill="#0084CE"/>
</g></svg></svg></g><text x="276.45" y="290.17" text-anchor="middle" fill="#172033" font-family="Arial,sans-serif" font-size="16" font-weight="600">Calendar Collisions</text><text x="36" y="820" fill="#56657A" font-family="Arial,sans-serif" font-size="13">Generated layout guide. Native overlay geometry and labels may differ.</text></svg>