<svg xmlns="http://www.w3.org/2000/svg" width="900" height="850" viewBox="0 0 900 850"><rect width="900" height="850" rx="28" fill="#0E151E"/><text x="36" y="48" fill="#F4F0E8" font-family="Arial,sans-serif" font-size="25" font-weight="700">Work Ring / Operations</text><circle cx="450" cy="425" r="278" fill="none" stroke="#293646"/><circle cx="450" cy="425" r="102" fill="#18232F" stroke="#435163"/><text x="450" y="418" text-anchor="middle" fill="#E5B879" font-family="Arial,sans-serif" font-size="14" letter-spacing="2">ACTIONS RING</text><text x="450" y="447" text-anchor="middle" fill="#F4F0E8" font-family="Arial,sans-serif" font-size="21">Native navigation</text><g transform="translate(396.00,101.00)"><svg width="108" height="108" viewBox="0 0 144 144"><svg xmlns="http://www.w3.org/2000/svg" width="144" height="144" viewBox="0 0 144 144"><defs><linearGradient id="bgad3c2f5686" x2=".7" y2="1"><stop stop-color="#28313D"/><stop offset="1" stop-color="#131B25"/></linearGradient><radialGradient id="lightad3c2f5686"><stop stop-color="#DDAA83" stop-opacity=".18"/><stop offset="1" stop-color="#DDAA83" stop-opacity="0"/></radialGradient></defs><circle cx="72" cy="72" r="69" fill="url(#bgad3c2f5686)"/><g fill="none" stroke="#DDAA83" stroke-opacity=".45" stroke-width="1.2"><circle cx="72" cy="72" r="67.5"/></g><circle cx="72" cy="62" r="57" fill="url(#lightad3c2f5686)"/><path d="M57 12h30" stroke="#DDAA83" stroke-width="3" stroke-linecap="round"/><g fill="#DDAA83" opacity=".85"></g><svg x="39.0" y="39" width="66" height="66" viewBox="0 0 24 24" fill="none" stroke="#F4F0E8" stroke-width="1.65" stroke-linecap="round" stroke-linejoin="round">
  <rect x="16" y="16" width="6" height="6" rx="1" />
  <rect x="2" y="16" width="6" height="6" rx="1" />
  <rect x="9" y="2" width="6" height="6" rx="1" />
  <path d="M5 16v-3a1 1 0 0 1 1-1h12a1 1 0 0 1 1 1v3" />
  <path d="M12 12V8" />
</svg></svg></svg></g><text x="450.00" y="227.00" text-anchor="middle" fill="#F4F0E8" font-family="Arial,sans-serif" font-size="16" font-weight="600">Diagnose The Stack</text><g transform="translate(569.55,164.17)"><svg width="108" height="108" viewBox="0 0 144 144"><svg xmlns="http://www.w3.org/2000/svg" width="144" height="144" viewBox="0 0 144 144"><defs><linearGradient id="bg0ae905558e" x2=".7" y2="1"><stop stop-color="#28313D"/><stop offset="1" stop-color="#131B25"/></linearGradient><radialGradient id="light0ae905558e"><stop stop-color="#DDAA83" stop-opacity=".18"/><stop offset="1" stop-color="#DDAA83" stop-opacity="0"/></radialGradient></defs><circle cx="72" cy="72" r="69" fill="url(#bg0ae905558e)"/><g fill="none" stroke="#DDAA83" stroke-opacity=".45" stroke-width="1.2"><circle cx="72" cy="72" r="67.5"/></g><circle cx="72" cy="62" r="57" fill="url(#light0ae905558e)"/><path d="M57 12h30" stroke="#DDAA83" stroke-width="3" stroke-linecap="round"/><g fill="#DDAA83" opacity=".85"></g><svg x="39.0" y="39" width="66" height="66" viewBox="0 0 24 24" fill="none" stroke="#F4F0E8" stroke-width="1.65" stroke-linecap="round" stroke-linejoin="round">
  <path d="M12 20v-9" />
  <path d="M14 7a4 4 0 0 1 4 4v3a6 6 0 0 1-12 0v-3a4 4 0 0 1 4-4z" />
  <path d="M14.12 3.88 16 2" />
  <path d="M21 21a4 4 0 0 0-3.81-4" />
  <path d="M21 5a4 4 0 0 1-3.55 3.97" />
  <path d="M22 13h-4" />
  <path d="M3 21a4 4 0 0 1 3.81-4" />
  <path d="M3 5a4 4 0 0 0 3.55 3.97" />
  <path d="M6 13H2" />
  <path d="m8 2 1.88 1.88" />
  <path d="M9 7.13V6a3 3 0 1 1 6 0v1.13" />
</svg></svg></svg></g><text x="623.55" y="290.17" text-anchor="middle" fill="#F4F0E8" font-family="Arial,sans-serif" font-size="16" font-weight="600">Explain This Error</text><g transform="translate(661.90,324.11)"><svg width="108" height="108" viewBox="0 0 144 144"><svg xmlns="http://www.w3.org/2000/svg" width="144" height="144" viewBox="0 0 144 144"><defs><linearGradient id="bg0ae905558e" x2=".7" y2="1"><stop stop-color="#28313D"/><stop offset="1" stop-color="#131B25"/></linearGradient><radialGradient id="light0ae905558e"><stop stop-color="#DDAA83" stop-opacity=".18"/><stop offset="1" stop-color="#DDAA83" stop-opacity="0"/></radialGradient></defs><circle cx="72" cy="72" r="69" fill="url(#bg0ae905558e)"/><g fill="none" stroke="#DDAA83" stroke-opacity=".45" stroke-width="1.2"><circle cx="72" cy="72" r="67.5"/></g><circle cx="72" cy="62" r="57" fill="url(#light0ae905558e)"/><path d="M57 12h30" stroke="#DDAA83" stroke-width="3" stroke-linecap="round"/><g fill="#DDAA83" opacity=".85"></g><svg x="39.0" y="39" width="66" height="66" viewBox="0 0 24 24" fill="none" stroke="#F4F0E8" stroke-width="1.65" stroke-linecap="round" stroke-linejoin="round">
  <path d="M12 20v-9" />
  <path d="M14 7a4 4 0 0 1 4 4v3a6 6 0 0 1-12 0v-3a4 4 0 0 1 4-4z" />
  <path d="M14.12 3.88 16 2" />
  <path d="M21 21a4 4 0 0 0-3.81-4" />
  <path d="M21 5a4 4 0 0 1-3.55 3.97" />
  <path d="M22 13h-4" />
  <path d="M3 21a4 4 0 0 1 3.81-4" />
  <path d="M3 5a4 4 0 0 0 3.55 3.97" />
  <path d="M6 13H2" />
  <path d="m8 2 1.88 1.88" />
  <path d="M9 7.13V6a3 3 0 1 1 6 0v1.13" />
</svg></svg></svg></g><text x="715.90" y="450.11" text-anchor="middle" fill="#F4F0E8" font-family="Arial,sans-serif" font-size="16" font-weight="600">Screenshot Debug</text><g transform="translate(629.83,506.00)"><svg width="108" height="108" viewBox="0 0 144 144"><svg xmlns="http://www.w3.org/2000/svg" width="144" height="144" viewBox="0 0 144 144"><defs><linearGradient id="bg73b8da60aa" x2=".7" y2="1"><stop stop-color="#28313D"/><stop offset="1" stop-color="#131B25"/></linearGradient><radialGradient id="light73b8da60aa"><stop stop-color="#DDAA83" stop-opacity=".18"/><stop offset="1" stop-color="#DDAA83" stop-opacity="0"/></radialGradient></defs><circle cx="72" cy="72" r="69" fill="url(#bg73b8da60aa)"/><g fill="none" stroke="#DDAA83" stroke-opacity=".45" stroke-width="1.2"><circle cx="72" cy="72" r="67.5"/></g><circle cx="72" cy="62" r="57" fill="url(#light73b8da60aa)"/><path d="M57 12h30" stroke="#DDAA83" stroke-width="3" stroke-linecap="round"/><g fill="#DDAA83" opacity=".85"></g><svg x="39.0" y="39" width="66" height="66" viewBox="0 0 24 24" fill="none" stroke="#F4F0E8" stroke-width="1.65" stroke-linecap="round" stroke-linejoin="round">
  <path d="M11 6a13 13 0 0 0 8.4-2.8A1 1 0 0 1 21 4v12a1 1 0 0 1-1.6.8A13 13 0 0 0 11 14H5a2 2 0 0 1-2-2V8a2 2 0 0 1 2-2z" />
  <path d="M6 14a12 12 0 0 0 2.4 7.2 2 2 0 0 0 3.2-2.4A8 8 0 0 1 10 14" />
  <path d="M8 6v8" />
</svg></svg></svg></g><text x="683.83" y="632.00" text-anchor="middle" fill="#F4F0E8" font-family="Arial,sans-serif" font-size="16" font-weight="600">Publisher Health</text><g transform="translate(488.35,624.72)"><svg width="108" height="108" viewBox="0 0 144 144"><svg xmlns="http://www.w3.org/2000/svg" width="144" height="144" viewBox="0 0 144 144"><defs><linearGradient id="bg24f2b60c8c" x2=".7" y2="1"><stop stop-color="#28313D"/><stop offset="1" stop-color="#131B25"/></linearGradient><radialGradient id="light24f2b60c8c"><stop stop-color="#DDAA83" stop-opacity=".18"/><stop offset="1" stop-color="#DDAA83" stop-opacity="0"/></radialGradient></defs><circle cx="72" cy="72" r="69" fill="url(#bg24f2b60c8c)"/><g fill="none" stroke="#DDAA83" stroke-opacity=".45" stroke-width="1.2"><circle cx="72" cy="72" r="67.5"/></g><circle cx="72" cy="62" r="57" fill="url(#light24f2b60c8c)"/><path d="M57 12h30" stroke="#DDAA83" stroke-width="3" stroke-linecap="round"/><g fill="#DDAA83" opacity=".85"></g><svg x="39.0" y="39" width="66" height="66" viewBox="0 0 24 24" fill="none" stroke="#F4F0E8" stroke-width="1.65" stroke-linecap="round" stroke-linejoin="round">
  <path d="M11.017 2.814a1 1 0 0 1 1.966 0l1.051 5.558a2 2 0 0 0 1.594 1.594l5.558 1.051a1 1 0 0 1 0 1.966l-5.558 1.051a2 2 0 0 0-1.594 1.594l-1.051 5.558a1 1 0 0 1-1.966 0l-1.051-5.558a2 2 0 0 0-1.594-1.594l-5.558-1.051a1 1 0 0 1 0-1.966l5.558-1.051a2 2 0 0 0 1.594-1.594z" />
  <path d="M20 2v4" />
  <path d="M22 4h-4" />
  <circle cx="4" cy="20" r="2" />
</svg></svg></svg></g><text x="542.35" y="750.72" text-anchor="middle" fill="#F4F0E8" font-family="Arial,sans-serif" font-size="16" font-weight="600">What Should</text><text x="542.35" y="769.72" text-anchor="middle" fill="#F4F0E8" font-family="Arial,sans-serif" font-size="16" font-weight="600">Be Automated</text><g transform="translate(303.65,624.72)"><svg width="108" height="108" viewBox="0 0 144 144"><svg xmlns="http://www.w3.org/2000/svg" width="144" height="144" viewBox="0 0 144 144"><defs><linearGradient id="bg5279a2e876" x2=".7" y2="1"><stop stop-color="#28313D"/><stop offset="1" stop-color="#131B25"/></linearGradient><radialGradient id="light5279a2e876"><stop stop-color="#DDAA83" stop-opacity=".18"/><stop offset="1" stop-color="#DDAA83" stop-opacity="0"/></radialGradient></defs><circle cx="72" cy="72" r="69" fill="url(#bg5279a2e876)"/><g fill="none" stroke="#DDAA83" stroke-opacity=".45" stroke-width="1.2"><circle cx="72" cy="72" r="67.5"/></g><circle cx="72" cy="62" r="57" fill="url(#light5279a2e876)"/><path d="M57 12h30" stroke="#DDAA83" stroke-width="3" stroke-linecap="round"/><g fill="#DDAA83" opacity=".85"></g><svg x="39.0" y="39" width="66" height="66" viewBox="0 0 24 24" fill="none" stroke="#F4F0E8" stroke-width="1.65" stroke-linecap="round" stroke-linejoin="round">
  <path d="M6 18h8" />
  <path d="M3 22h18" />
  <path d="M14 22a7 7 0 1 0 0-14h-1" />
  <path d="M9 14h2" />
  <path d="M9 12a2 2 0 0 1-2-2V6h6v4a2 2 0 0 1-2 2Z" />
  <path d="M12 6V3a1 1 0 0 0-1-1H9a1 1 0 0 0-1 1v3" />
</svg></svg></svg></g><text x="357.65" y="750.72" text-anchor="middle" fill="#F4F0E8" font-family="Arial,sans-serif" font-size="16" font-weight="600">Prove It</text><g transform="translate(162.17,506.00)"><svg width="108" height="108" viewBox="0 0 144 144"><svg xmlns="http://www.w3.org/2000/svg" width="144" height="144" viewBox="0 0 144 144"><defs><linearGradient id="bg5279a2e876" x2=".7" y2="1"><stop stop-color="#28313D"/><stop offset="1" stop-color="#131B25"/></linearGradient><radialGradient id="light5279a2e876"><stop stop-color="#DDAA83" stop-opacity=".18"/><stop offset="1" stop-color="#DDAA83" stop-opacity="0"/></radialGradient></defs><circle cx="72" cy="72" r="69" fill="url(#bg5279a2e876)"/><g fill="none" stroke="#DDAA83" stroke-opacity=".45" stroke-width="1.2"><circle cx="72" cy="72" r="67.5"/></g><circle cx="72" cy="62" r="57" fill="url(#light5279a2e876)"/><path d="M57 12h30" stroke="#DDAA83" stroke-width="3" stroke-linecap="round"/><g fill="#DDAA83" opacity=".85"></g><svg x="39.0" y="39" width="66" height="66" viewBox="0 0 24 24" fill="none" stroke="#F4F0E8" stroke-width="1.65" stroke-linecap="round" stroke-linejoin="round">
  <path d="M6 18h8" />
  <path d="M3 22h18" />
  <path d="M14 22a7 7 0 1 0 0-14h-1" />
  <path d="M9 14h2" />
  <path d="M9 12a2 2 0 0 1-2-2V6h6v4a2 2 0 0 1-2 2Z" />
  <path d="M12 6V3a1 1 0 0 0-1-1H9a1 1 0 0 0-1 1v3" />
</svg></svg></svg></g><text x="216.17" y="632.00" text-anchor="middle" fill="#F4F0E8" font-family="Arial,sans-serif" font-size="16" font-weight="600">Subscription Audit</text><g transform="translate(130.10,324.11)"><svg width="108" height="108" viewBox="0 0 144 144"><svg xmlns="http://www.w3.org/2000/svg" width="144" height="144" viewBox="0 0 144 144"><defs><linearGradient id="bg5798ddca1a" x2=".7" y2="1"><stop stop-color="#28313D"/><stop offset="1" stop-color="#131B25"/></linearGradient><radialGradient id="light5798ddca1a"><stop stop-color="#DDAA83" stop-opacity=".18"/><stop offset="1" stop-color="#DDAA83" stop-opacity="0"/></radialGradient></defs><circle cx="72" cy="72" r="69" fill="url(#bg5798ddca1a)"/><g fill="none" stroke="#DDAA83" stroke-opacity=".45" stroke-width="1.2"><circle cx="72" cy="72" r="67.5"/></g><circle cx="72" cy="62" r="57" fill="url(#light5798ddca1a)"/><path d="M57 12h30" stroke="#DDAA83" stroke-width="3" stroke-linecap="round"/><g fill="#DDAA83" opacity=".85"></g><svg x="39.0" y="39" width="66" height="66" viewBox="0 0 24 24" fill="none" stroke="#F4F0E8" stroke-width="1.65" stroke-linecap="round" stroke-linejoin="round">
  <path d="M2.586 17.414A2 2 0 0 0 2 18.828V21a1 1 0 0 0 1 1h3a1 1 0 0 0 1-1v-1a1 1 0 0 1 1-1h1a1 1 0 0 0 1-1v-1a1 1 0 0 1 1-1h.172a2 2 0 0 0 1.414-.586l.814-.814a6.5 6.5 0 1 0-4-4z" />
  <circle cx="16.5" cy="7.5" r=".5" fill="currentColor" />
</svg></svg></svg></g><text x="184.10" y="450.11" text-anchor="middle" fill="#F4F0E8" font-family="Arial,sans-serif" font-size="16" font-weight="600">Security Sweep</text><g transform="translate(222.45,164.17)"><svg width="108" height="108" viewBox="0 0 144 144"><svg xmlns="http://www.w3.org/2000/svg" width="144" height="144" viewBox="0 0 144 144"><defs><linearGradient id="bg5279a2e876" x2=".7" y2="1"><stop stop-color="#28313D"/><stop offset="1" stop-color="#131B25"/></linearGradient><radialGradient id="light5279a2e876"><stop stop-color="#DDAA83" stop-opacity=".18"/><stop offset="1" stop-color="#DDAA83" stop-opacity="0"/></radialGradient></defs><circle cx="72" cy="72" r="69" fill="url(#bg5279a2e876)"/><g fill="none" stroke="#DDAA83" stroke-opacity=".45" stroke-width="1.2"><circle cx="72" cy="72" r="67.5"/></g><circle cx="72" cy="62" r="57" fill="url(#light5279a2e876)"/><path d="M57 12h30" stroke="#DDAA83" stroke-width="3" stroke-linecap="round"/><g fill="#DDAA83" opacity=".85"></g><svg x="39.0" y="39" width="66" height="66" viewBox="0 0 24 24" fill="none" stroke="#F4F0E8" stroke-width="1.65" stroke-linecap="round" stroke-linejoin="round">
  <path d="M6 18h8" />
  <path d="M3 22h18" />
  <path d="M14 22a7 7 0 1 0 0-14h-1" />
  <path d="M9 14h2" />
  <path d="M9 12a2 2 0 0 1-2-2V6h6v4a2 2 0 0 1-2 2Z" />
  <path d="M12 6V3a1 1 0 0 0-1-1H9a1 1 0 0 0-1 1v3" />
</svg></svg></svg></g><text x="276.45" y="290.17" text-anchor="middle" fill="#F4F0E8" font-family="Arial,sans-serif" font-size="16" font-weight="600">Verify Three Ways</text><text x="36" y="820" fill="#A4B1C2" font-family="Arial,sans-serif" font-size="13">Generated layout guide. Native overlay geometry and labels may differ.</text></svg>