<svg xmlns="http://www.w3.org/2000/svg" width="900" height="850" viewBox="0 0 900 850"><rect width="900" height="850" rx="28" fill="#0E151E"/><text x="36" y="48" fill="#F4F0E8" font-family="Arial,sans-serif" font-size="25" font-weight="700">Work Ring / Social</text><circle cx="450" cy="425" r="278" fill="none" stroke="#293646"/><circle cx="450" cy="425" r="102" fill="#18232F" stroke="#435163"/><text x="450" y="418" text-anchor="middle" fill="#E5B879" font-family="Arial,sans-serif" font-size="14" letter-spacing="2">ACTIONS RING</text><text x="450" y="447" text-anchor="middle" fill="#F4F0E8" font-family="Arial,sans-serif" font-size="21">Native navigation</text><g transform="translate(396.00,101.00)"><svg width="108" height="108" viewBox="0 0 144 144"><svg xmlns="http://www.w3.org/2000/svg" width="144" height="144" viewBox="0 0 144 144"><defs><linearGradient id="bg851d773124" x2=".7" y2="1"><stop stop-color="#28313D"/><stop offset="1" stop-color="#131B25"/></linearGradient><radialGradient id="light851d773124"><stop stop-color="#B6CC92" stop-opacity=".18"/><stop offset="1" stop-color="#B6CC92" stop-opacity="0"/></radialGradient></defs><circle cx="72" cy="72" r="69" fill="url(#bg851d773124)"/><g fill="none" stroke="#B6CC92" stroke-opacity=".45" stroke-width="1.2"><circle cx="72" cy="72" r="67.5"/></g><circle cx="72" cy="62" r="57" fill="url(#light851d773124)"/><path d="M57 12h30" stroke="#B6CC92" stroke-width="3" stroke-linecap="round"/><g fill="#B6CC92" opacity=".85"></g><svg x="39.0" y="39" width="66" height="66" viewBox="0 0 24 24" fill="none" stroke="#F4F0E8" stroke-width="1.65" stroke-linecap="round" stroke-linejoin="round">
  <path d="m13 19 6-6" />
  <path d="M14.5 17.5 3.586 6.586A2 2 0 013 5.172V3h2.172a2 2 0 011.414.586L17.5 14.5" />
  <path d="m14.828 6.172 2.586-2.586A2 2 0 0118.828 3H21v2.172a2 2 0 01-.586 1.414l-2.586 2.586" />
  <path d="m16 16 4 4" />
  <path d="m19 21 2-2" />
  <path d="m5 14 4 4" />
  <path d="m5 21-2-2" />
  <path d="M7.5 16.5 4 20" />
</svg></svg></svg></g><text x="450.00" y="227.00" text-anchor="middle" fill="#F4F0E8" font-family="Arial,sans-serif" font-size="16" font-weight="600">Schedule Preview</text><g transform="translate(569.55,164.17)"><svg width="108" height="108" viewBox="0 0 144 144"><svg xmlns="http://www.w3.org/2000/svg" width="144" height="144" viewBox="0 0 144 144"><defs><linearGradient id="bg5c88c745b7" x2=".7" y2="1"><stop stop-color="#28313D"/><stop offset="1" stop-color="#131B25"/></linearGradient><radialGradient id="light5c88c745b7"><stop stop-color="#B6CC92" stop-opacity=".18"/><stop offset="1" stop-color="#B6CC92" stop-opacity="0"/></radialGradient></defs><circle cx="72" cy="72" r="69" fill="url(#bg5c88c745b7)"/><g fill="none" stroke="#B6CC92" stroke-opacity=".45" stroke-width="1.2"><circle cx="72" cy="72" r="67.5"/></g><circle cx="72" cy="62" r="57" fill="url(#light5c88c745b7)"/><path d="M57 12h30" stroke="#B6CC92" stroke-width="3" stroke-linecap="round"/><g fill="#B6CC92" opacity=".85"></g><svg x="39.0" y="39" width="66" height="66" viewBox="0 0 24 24" fill="none" stroke="#F4F0E8" stroke-width="1.65" stroke-linecap="round" stroke-linejoin="round">
  <path d="M11.017 2.814a1 1 0 0 1 1.966 0l1.051 5.558a2 2 0 0 0 1.594 1.594l5.558 1.051a1 1 0 0 1 0 1.966l-5.558 1.051a2 2 0 0 0-1.594 1.594l-1.051 5.558a1 1 0 0 1-1.966 0l-1.051-5.558a2 2 0 0 0-1.594-1.594l-5.558-1.051a1 1 0 0 1 0-1.966l5.558-1.051a2 2 0 0 0 1.594-1.594z" />
  <path d="M20 2v4" />
  <path d="M22 4h-4" />
  <circle cx="4" cy="20" r="2" />
</svg></svg></svg></g><text x="623.55" y="290.17" text-anchor="middle" fill="#F4F0E8" font-family="Arial,sans-serif" font-size="16" font-weight="600">One Idea,</text><text x="623.55" y="309.17" text-anchor="middle" fill="#F4F0E8" font-family="Arial,sans-serif" font-size="16" font-weight="600">All Platforms</text><g transform="translate(661.90,324.11)"><svg width="108" height="108" viewBox="0 0 144 144"><svg xmlns="http://www.w3.org/2000/svg" width="144" height="144" viewBox="0 0 144 144"><defs><linearGradient id="bga077e03f04" x2=".7" y2="1"><stop stop-color="#28313D"/><stop offset="1" stop-color="#131B25"/></linearGradient><radialGradient id="lighta077e03f04"><stop stop-color="#B6CC92" stop-opacity=".18"/><stop offset="1" stop-color="#B6CC92" stop-opacity="0"/></radialGradient></defs><circle cx="72" cy="72" r="69" fill="url(#bga077e03f04)"/><g fill="none" stroke="#B6CC92" stroke-opacity=".45" stroke-width="1.2"><circle cx="72" cy="72" r="67.5"/></g><circle cx="72" cy="62" r="57" fill="url(#lighta077e03f04)"/><path d="M57 12h30" stroke="#B6CC92" stroke-width="3" stroke-linecap="round"/><g fill="#B6CC92" opacity=".85"></g><svg x="39.0" y="39" width="66" height="66" viewBox="0 0 24 24" fill="none" stroke="#F4F0E8" stroke-width="1.65" stroke-linecap="round" stroke-linejoin="round">
  <path d="M12 6V2H8" />
  <path d="M15 11v2" />
  <path d="M2 12h2" />
  <path d="M20 12h2" />
  <path d="M20 16a2 2 0 0 1-2 2H8.828a2 2 0 0 0-1.414.586l-2.202 2.202A.71.71 0 0 1 4 20.286V8a2 2 0 0 1 2-2h12a2 2 0 0 1 2 2z" />
  <path d="M9 11v2" />
</svg></svg></svg></g><text x="715.90" y="450.11" text-anchor="middle" fill="#F4F0E8" font-family="Arial,sans-serif" font-size="16" font-weight="600">Daily Cards</text><g transform="translate(629.83,506.00)"><svg width="108" height="108" viewBox="0 0 144 144"><svg xmlns="http://www.w3.org/2000/svg" width="144" height="144" viewBox="0 0 144 144"><defs><linearGradient id="bg9b3aef21c5" x2=".7" y2="1"><stop stop-color="#28313D"/><stop offset="1" stop-color="#131B25"/></linearGradient><radialGradient id="light9b3aef21c5"><stop stop-color="#B6CC92" stop-opacity=".18"/><stop offset="1" stop-color="#B6CC92" stop-opacity="0"/></radialGradient></defs><circle cx="72" cy="72" r="69" fill="url(#bg9b3aef21c5)"/><g fill="none" stroke="#B6CC92" stroke-opacity=".45" stroke-width="1.2"><circle cx="72" cy="72" r="67.5"/></g><circle cx="72" cy="62" r="57" fill="url(#light9b3aef21c5)"/><path d="M57 12h30" stroke="#B6CC92" stroke-width="3" stroke-linecap="round"/><g fill="#B6CC92" opacity=".85"></g><svg x="39.0" y="39" width="66" height="66" viewBox="0 0 24 24" fill="none" stroke="#F4F0E8" stroke-width="1.65" stroke-linecap="round" stroke-linejoin="round">
  <path d="M11 6a13 13 0 0 0 8.4-2.8A1 1 0 0 1 21 4v12a1 1 0 0 1-1.6.8A13 13 0 0 0 11 14H5a2 2 0 0 1-2-2V8a2 2 0 0 1 2-2z" />
  <path d="M6 14a12 12 0 0 0 2.4 7.2 2 2 0 0 0 3.2-2.4A8 8 0 0 1 10 14" />
  <path d="M8 6v8" />
</svg></svg></svg></g><text x="683.83" y="632.00" text-anchor="middle" fill="#F4F0E8" font-family="Arial,sans-serif" font-size="16" font-weight="600">Campaign Skeleton</text><g transform="translate(488.35,624.72)"><svg width="108" height="108" viewBox="0 0 144 144"><svg xmlns="http://www.w3.org/2000/svg" width="144" height="144" viewBox="0 0 144 144"><defs><linearGradient id="bg5c88c745b7" x2=".7" y2="1"><stop stop-color="#28313D"/><stop offset="1" stop-color="#131B25"/></linearGradient><radialGradient id="light5c88c745b7"><stop stop-color="#B6CC92" stop-opacity=".18"/><stop offset="1" stop-color="#B6CC92" stop-opacity="0"/></radialGradient></defs><circle cx="72" cy="72" r="69" fill="url(#bg5c88c745b7)"/><g fill="none" stroke="#B6CC92" stroke-opacity=".45" stroke-width="1.2"><circle cx="72" cy="72" r="67.5"/></g><circle cx="72" cy="62" r="57" fill="url(#light5c88c745b7)"/><path d="M57 12h30" stroke="#B6CC92" stroke-width="3" stroke-linecap="round"/><g fill="#B6CC92" opacity=".85"></g><svg x="39.0" y="39" width="66" height="66" viewBox="0 0 24 24" fill="none" stroke="#F4F0E8" stroke-width="1.65" stroke-linecap="round" stroke-linejoin="round">
  <path d="M11.017 2.814a1 1 0 0 1 1.966 0l1.051 5.558a2 2 0 0 0 1.594 1.594l5.558 1.051a1 1 0 0 1 0 1.966l-5.558 1.051a2 2 0 0 0-1.594 1.594l-1.051 5.558a1 1 0 0 1-1.966 0l-1.051-5.558a2 2 0 0 0-1.594-1.594l-5.558-1.051a1 1 0 0 1 0-1.966l5.558-1.051a2 2 0 0 0 1.594-1.594z" />
  <path d="M20 2v4" />
  <path d="M22 4h-4" />
  <circle cx="4" cy="20" r="2" />
</svg></svg></svg></g><text x="542.35" y="750.72" text-anchor="middle" fill="#F4F0E8" font-family="Arial,sans-serif" font-size="16" font-weight="600">Repurpose This</text><g transform="translate(303.65,624.72)"><svg width="108" height="108" viewBox="0 0 144 144"><svg xmlns="http://www.w3.org/2000/svg" width="144" height="144" viewBox="0 0 144 144"><defs><linearGradient id="bg1d13b3f69d" x2=".7" y2="1"><stop stop-color="#28313D"/><stop offset="1" stop-color="#131B25"/></linearGradient><radialGradient id="light1d13b3f69d"><stop stop-color="#B6CC92" stop-opacity=".18"/><stop offset="1" stop-color="#B6CC92" stop-opacity="0"/></radialGradient></defs><circle cx="72" cy="72" r="69" fill="url(#bg1d13b3f69d)"/><g fill="none" stroke="#B6CC92" stroke-opacity=".45" stroke-width="1.2"><circle cx="72" cy="72" r="67.5"/></g><circle cx="72" cy="62" r="57" fill="url(#light1d13b3f69d)"/><path d="M57 12h30" stroke="#B6CC92" stroke-width="3" stroke-linecap="round"/><g fill="#B6CC92" opacity=".85"></g><svg x="39.0" y="39" width="66" height="66" viewBox="0 0 24 24" fill="none" stroke="#F4F0E8" stroke-width="1.65" stroke-linecap="round" stroke-linejoin="round">
  <path d="M14.086 18.412A2 2 0 0112.67 19H5v-7.672a2 2 0 01.586-1.414L11.75 3.75a6 6 0 118.49 8.49z" />
  <path d="M16 8 2 22" />
  <path d="M17.488 15H9" />
</svg></svg></svg></g><text x="357.65" y="750.72" text-anchor="middle" fill="#F4F0E8" font-family="Arial,sans-serif" font-size="16" font-weight="600">Caption Draft</text><g transform="translate(162.17,506.00)"><svg width="108" height="108" viewBox="0 0 144 144"><svg xmlns="http://www.w3.org/2000/svg" width="144" height="144" viewBox="0 0 144 144"><defs><linearGradient id="bga077e03f04" x2=".7" y2="1"><stop stop-color="#28313D"/><stop offset="1" stop-color="#131B25"/></linearGradient><radialGradient id="lighta077e03f04"><stop stop-color="#B6CC92" stop-opacity=".18"/><stop offset="1" stop-color="#B6CC92" stop-opacity="0"/></radialGradient></defs><circle cx="72" cy="72" r="69" fill="url(#bga077e03f04)"/><g fill="none" stroke="#B6CC92" stroke-opacity=".45" stroke-width="1.2"><circle cx="72" cy="72" r="67.5"/></g><circle cx="72" cy="62" r="57" fill="url(#lighta077e03f04)"/><path d="M57 12h30" stroke="#B6CC92" stroke-width="3" stroke-linecap="round"/><g fill="#B6CC92" opacity=".85"></g><svg x="39.0" y="39" width="66" height="66" viewBox="0 0 24 24" fill="none" stroke="#F4F0E8" stroke-width="1.65" stroke-linecap="round" stroke-linejoin="round">
  <path d="M12 6V2H8" />
  <path d="M15 11v2" />
  <path d="M2 12h2" />
  <path d="M20 12h2" />
  <path d="M20 16a2 2 0 0 1-2 2H8.828a2 2 0 0 0-1.414.586l-2.202 2.202A.71.71 0 0 1 4 20.286V8a2 2 0 0 1 2-2h12a2 2 0 0 1 2 2z" />
  <path d="M9 11v2" />
</svg></svg></svg></g><text x="216.17" y="632.00" text-anchor="middle" fill="#F4F0E8" font-family="Arial,sans-serif" font-size="16" font-weight="600">Failed Posts Check</text><g transform="translate(130.10,324.11)"><svg width="108" height="108" viewBox="0 0 144 144"><svg xmlns="http://www.w3.org/2000/svg" width="144" height="144" viewBox="0 0 144 144"><defs><linearGradient id="bg5c88c745b7" x2=".7" y2="1"><stop stop-color="#28313D"/><stop offset="1" stop-color="#131B25"/></linearGradient><radialGradient id="light5c88c745b7"><stop stop-color="#B6CC92" stop-opacity=".18"/><stop offset="1" stop-color="#B6CC92" stop-opacity="0"/></radialGradient></defs><circle cx="72" cy="72" r="69" fill="url(#bg5c88c745b7)"/><g fill="none" stroke="#B6CC92" stroke-opacity=".45" stroke-width="1.2"><circle cx="72" cy="72" r="67.5"/></g><circle cx="72" cy="62" r="57" fill="url(#light5c88c745b7)"/><path d="M57 12h30" stroke="#B6CC92" stroke-width="3" stroke-linecap="round"/><g fill="#B6CC92" opacity=".85"></g><svg x="39.0" y="39" width="66" height="66" viewBox="0 0 24 24" fill="none" stroke="#F4F0E8" stroke-width="1.65" stroke-linecap="round" stroke-linejoin="round">
  <path d="M11.017 2.814a1 1 0 0 1 1.966 0l1.051 5.558a2 2 0 0 0 1.594 1.594l5.558 1.051a1 1 0 0 1 0 1.966l-5.558 1.051a2 2 0 0 0-1.594 1.594l-1.051 5.558a1 1 0 0 1-1.966 0l-1.051-5.558a2 2 0 0 0-1.594-1.594l-5.558-1.051a1 1 0 0 1 0-1.966l5.558-1.051a2 2 0 0 0 1.594-1.594z" />
  <path d="M20 2v4" />
  <path d="M22 4h-4" />
  <circle cx="4" cy="20" r="2" />
</svg></svg></svg></g><text x="184.10" y="450.11" text-anchor="middle" fill="#F4F0E8" font-family="Arial,sans-serif" font-size="16" font-weight="600">Keywords And Tags</text><g transform="translate(222.45,164.17)"><svg width="108" height="108" viewBox="0 0 144 144"><svg xmlns="http://www.w3.org/2000/svg" width="144" height="144" viewBox="0 0 144 144"><defs><linearGradient id="bg0ee1e9f989" x2=".7" y2="1"><stop stop-color="#28313D"/><stop offset="1" stop-color="#131B25"/></linearGradient><radialGradient id="light0ee1e9f989"><stop stop-color="#B6CC92" stop-opacity=".18"/><stop offset="1" stop-color="#B6CC92" stop-opacity="0"/></radialGradient></defs><circle cx="72" cy="72" r="69" fill="url(#bg0ee1e9f989)"/><g fill="none" stroke="#B6CC92" stroke-opacity=".45" stroke-width="1.2"><circle cx="72" cy="72" r="67.5"/></g><circle cx="72" cy="62" r="57" fill="url(#light0ee1e9f989)"/><path d="M57 12h30" stroke="#B6CC92" stroke-width="3" stroke-linecap="round"/><g fill="#B6CC92" opacity=".85"></g><svg x="39.0" y="39" width="66" height="66" viewBox="0 0 24 24" fill="none" stroke="#F4F0E8" stroke-width="1.65" stroke-linecap="round" stroke-linejoin="round">
  <path d="M8 2v3" />
  <path d="M16 2v3" />
  <rect x="3" y="3" width="18" height="18" rx="2" />
  <path d="M3 9h18" />
  <path d="M8 13h.01" />
  <path d="M12 13h.01" />
  <path d="M16 13h.01" />
  <path d="M8 17h.01" />
  <path d="M12 17h.01" />
  <path d="M16 17h.01" />
</svg></svg></svg></g><text x="276.45" y="290.17" text-anchor="middle" fill="#F4F0E8" font-family="Arial,sans-serif" font-size="16" font-weight="600">Week Of Content</text><text x="36" y="820" fill="#A4B1C2" font-family="Arial,sans-serif" font-size="13">Generated layout guide. Native overlay geometry and labels may differ.</text></svg>